<?xml version="1.0" encoding="UTF-8"?>
<svg id="_레이어_1" data-name="레이어_1" xmlns="http://www.w3.org/2000/svg" version="1.1" viewBox="0 0 800 800">
  <!-- Generator: Adobe Illustrator 29.4.0, SVG Export Plug-In . SVG Version: 2.1.0 Build 152)  -->
  <defs>
    <style>
      .st0 {
        fill-rule: evenodd;
      }
    </style>
  </defs>
  <g id="Page-1">
    <g id="Dribbble-Light-Preview">
      <g id="icons">
        <path id="behance-_x5B__x23_163_x5D_" class="st0" d="M519.19,222.68h203.52v-66.35h-203.52v66.35ZM619.51,355.94c-45.4,0-79.88,32.02-83.2,91.19h162.88c-11.04-70.22-38.44-91.19-79.68-91.19h0ZM625.87,630.37c41.92,0,72.68-30.15,78.96-55.54h88.16c-25.2,91.86-77.24,143.44-170.68,143.44-119.24,0-186.16-96.55-186.16-224.67,0-301.71,382.4-312.54,363.2,28.17h-263.04c2.56,69.17,27.64,108.6,89.56,108.6h0ZM229.15,617.09c48.12,0,81.8-21.06,81.8-77.94s-29.76-84.56-79.72-84.56h-120.56v162.5h118.48ZM222.79,365.9c40.04,0,67.68-21.21,67.68-70.51,0-51.92-32.16-67.95-76.12-67.95h-103.68v138.46h112.12ZM236.91,126.27c94.84,0,160.76,35.69,160.76,146.73,0,54.99-19.4,95.95-68.4,123.56,62.72,21.21,92.4,76.89,92.4,150.09,0,116.16-80.92,171.61-177.72,171.61H-.05V126.27h236.96Z"/>
      </g>
    </g>
  </g>
</svg>