<?xml version="1.0" encoding="UTF-8"?>
<svg id="_레이어_1" data-name="레이어_1" xmlns="http://www.w3.org/2000/svg" version="1.1" viewBox="0 0 800 800">
  <!-- Generator: Adobe Illustrator 29.4.0, SVG Export Plug-In . SVG Version: 2.1.0 Build 152)  -->
  <defs>
    <style>
      .st0 {
        fill-rule: evenodd;
      }
    </style>
  </defs>
  <path class="st0" d="M401,618.18c120.95,0,219-97.68,219-218.18s-98.05-218.18-219-218.18-219,97.68-219,218.18,98.05,218.18,219,218.18ZM401,545.45c80.63,0,146-65.12,146-145.45s-65.37-145.45-146-145.45-146,65.12-146,145.45,65.37,145.45,146,145.45Z"/>
  <path d="M620,145.45c-20.16,0-36.5,16.28-36.5,36.36s16.34,36.36,36.5,36.36,36.5-16.28,36.5-36.36-16.34-36.36-36.5-36.36Z"/>
  <path class="st0" d="M23.3,119.13C-.5,165.8-.5,226.9-.5,349.09v101.82c0,122.19,0,183.29,23.8,229.96,20.93,41.05,54.33,74.43,95.41,95.35,46.7,23.78,107.84,23.78,230.11,23.78h101.88c122.27,0,183.41,0,230.1-23.78,41.08-20.92,74.48-54.29,95.41-95.35,23.8-46.67,23.8-107.77,23.8-229.96v-101.82c0-122.19,0-183.29-23.8-229.96-20.93-41.05-54.33-74.43-95.41-95.35C634.1,0,572.96,0,450.69,0h-101.88c-122.27,0-183.4,0-230.11,23.78-41.08,20.92-74.48,54.3-95.41,95.35ZM450.69,72.73h-101.88c-62.34,0-104.71.06-137.46,2.73-31.91,2.61-48.22,7.33-59.6,13.12-27.39,13.95-49.65,36.2-63.61,63.57-5.8,11.37-10.52,27.68-13.13,59.57-2.68,32.73-2.73,75.08-2.73,137.38v101.82c0,62.3.06,104.64,2.73,137.38,2.61,31.89,7.33,48.19,13.13,59.57,13.95,27.37,36.22,49.62,63.61,63.56,11.38,5.8,27.7,10.52,59.6,13.12,32.75,2.67,75.13,2.73,137.46,2.73h101.88c62.34,0,104.71-.06,137.46-2.73,31.91-2.6,48.22-7.33,59.6-13.12,27.38-13.95,49.65-36.2,63.6-63.56,5.8-11.37,10.53-27.68,13.13-59.57,2.67-32.73,2.73-75.08,2.73-137.38v-101.82c0-62.3-.06-104.65-2.73-137.38-2.61-31.89-7.33-48.19-13.13-59.57-13.95-27.37-36.22-49.62-63.6-63.57-11.38-5.8-27.7-10.52-59.6-13.12-32.76-2.67-75.13-2.73-137.46-2.73Z"/>
</svg>