<?xml version="1.0" encoding="UTF-8"?><svg id="a" xmlns="http://www.w3.org/2000/svg" width="512" height="512" viewBox="0 0 512 512"><defs><style>.b{fill:#458afe;}.c{fill:#fefefe;}.d{fill:#fdfefe;}</style></defs><path class="c" d="M512,0v512H0V0h512ZM284,329v19.5c0,5.84-10.35,15.92-15.63,18.37-28.17,13.08-33.84-15.74-55.88-14.94-22.11.81-33.75,26.59-20,44.07,44.82,57.01,146.06,21.59,146.55-51.47V104.46c.12-8.76-7.58-17.55-16.54-17.54s-21.82,11.46-30.16,14.88c-54.23-31.11-114.94,9.93-118.39,69.65-1.41,24.46-1.45,58.65,0,83.09,2.14,35.96,24.84,67.33,60.04,76.96,17.81,4.87,32.78,4.31,50-2.5Z"/><path class="b" d="M284,329c-17.22,6.81-32.19,7.37-50,2.5-35.2-9.63-57.9-41-60.04-76.96-1.46-24.44-1.42-58.63,0-83.09,3.45-59.72,64.16-100.76,118.39-69.65,8.33-3.43,21.27-14.88,30.16-14.88s16.66,8.78,16.54,17.54v240.08c-.49,73.06-101.73,108.48-146.55,51.47-13.75-17.49-2.11-43.27,20-44.07,22.04-.8,27.71,28.01,55.88,14.94,5.28-2.45,15.63-12.54,15.63-18.37v-19.5ZM253.78,145.28c-11.83,1.13-21.58,10.08-24.54,21.46,1.66,28.66-3.05,61.58-.23,89.75,3.05,30.43,49.28,32.11,54.75,1.77-1.81-28.13,3.24-61.22.25-88.77-1.69-15.53-14.94-25.68-30.23-24.21Z"/><path class="d" d="M253.78,145.28c15.29-1.47,28.54,8.68,30.23,24.21,3,27.55-2.05,60.64-.25,88.77-5.47,30.34-51.7,28.65-54.75-1.77-2.83-28.17,1.89-61.09.23-89.75,2.96-11.37,12.71-20.32,24.54-21.46Z"/></svg>