<?xml version="1.0" encoding="UTF-8"?>
<svg id="_레이어_1" data-name="레이어_1" xmlns="http://www.w3.org/2000/svg" version="1.1" viewBox="0 0 800 800">
  <!-- Generator: Adobe Illustrator 29.4.0, SVG Export Plug-In . SVG Version: 2.1.0 Build 152)  -->
  <defs>
    <style>
      .st0 {
        fill-rule: evenodd;
      }
    </style>
  </defs>
  <g id="Page-1">
    <g id="Dribbble-Light-Preview">
      <g id="icons">
        <path id="paypal-_x5B__x23_140_x5D_" class="st0" d="M749.04,236c-53.16,208.69-215.31,244-433.13,244l-65.67,320h120.23c21.9,0,31.08-13.63,35.12-32.83,29.98-173.24,25.77-144.88,28.49-172.01,2.59-15.12,16.9-35.16,33.71-35.16,159.7,0,265.62-42.21,297.97-193.67,11.5-53.89,7.73-95.45-16.72-130.33M252.7,474.39l-49.12,245.61H51.43c-14.4,0-25.42-16.07-23.13-29.04L141.91,30.04c2.99-17.29,19.36-30.04,38.59-30.04h272.82c161.54,0,270.32,56.04,245.16,202.17-44.03,260.23-288.1,237.83-399.15,237.83-19.23,0-43.59,17.13-46.62,34.39"/>
      </g>
    </g>
  </g>
</svg>