<?xml version="1.0" encoding="UTF-8"?>
<svg id="_레이어_1" data-name="레이어_1" xmlns="http://www.w3.org/2000/svg" version="1.1" viewBox="0 0 800 800">
  <!-- Generator: Adobe Illustrator 29.4.0, SVG Export Plug-In . SVG Version: 2.1.0 Build 152)  -->
  <defs>
    <style>
      .st0 {
        fill: none;
        stroke: #000;
        stroke-linecap: round;
        stroke-linejoin: round;
        stroke-width: 66.67px;
      }
    </style>
  </defs>
  <path class="st0" d="M313.59,641.16h-150.69c-44.42,0-66.63,0-83.59-8.7-14.92-7.65-27.06-19.87-34.66-34.89-8.64-17.08-8.64-39.44-8.64-84.15V210.02c0-44.71,0-67.07,8.64-84.15,7.6-15.02,19.74-27.24,34.66-34.89,16.97-8.7,39.18-8.7,83.59-8.7h460.01c44.42,0,66.63,0,83.6,8.7,14.92,7.65,27.06,19.87,34.66,34.89,8.65,17.08,8.65,39.44,8.65,84.15v71.86"/>
  <path class="st0" d="M734.44,212.51l-197.66,134.58c-50.15,34.14-75.22,51.22-102.33,57.85-23.95,5.86-48.92,5.86-72.87,0-27.1-6.63-52.18-23.71-102.33-57.85L52,205.97"/>
  <path class="st0" d="M476.2,721l79.15-16.17c6.9-1.41,10.35-2.12,13.57-3.41,2.86-1.14,5.57-2.63,8.09-4.42,2.84-2.02,5.32-4.56,10.3-9.64l162.5-165.96c21.59-22.05,21.59-57.79,0-79.84-21.59-22.05-56.59-22.05-78.18,0l-162.5,165.96c-4.98,5.09-7.47,7.62-9.44,10.52-1.76,2.57-3.21,5.34-4.33,8.26-1.26,3.29-1.95,6.81-3.33,13.86l-15.83,80.84Z"/>
</svg>