<svg xmlns="http://www.w3.org/2000/svg" width="500" height="500"><defs><clipPath id="clip-path-dot-color"><rect width="12" height="12" x="28" y="160" transform="rotate(0,34,166)"/><rect width="12" height="12" x="28" y="172" transform="rotate(0,34,178)"/><rect width="12" height="12" x="28" y="256" transform="rotate(0,34,262)"/><rect width="12" height="12" x="28" y="304" transform="rotate(0,34,310)"/><rect width="12" height="12" x="28" y="316" transform="rotate(0,34,322)"/><rect width="12" height="12" x="28" y="328" transform="rotate(0,34,334)"/><rect width="12" height="12" x="28" y="340" transform="rotate(0,34,346)"/><rect width="12" height="12" x="40" y="148" transform="rotate(0,46,154)"/><rect width="12" height="12" x="40" y="172" transform="rotate(0,46,178)"/><rect width="12" height="12" x="40" y="220" transform="rotate(0,46,226)"/><rect width="12" height="12" x="40" y="256" transform="rotate(0,46,262)"/><rect width="12" height="12" x="40" y="280" transform="rotate(0,46,286)"/><rect width="12" height="12" x="40" y="316" transform="rotate(0,46,322)"/><rect width="12" height="12" x="40" y="364" transform="rotate(0,46,370)"/><rect width="12" height="12" x="52" y="148" transform="rotate(0,58,154)"/><rect width="12" height="12" x="52" y="172" transform="rotate(0,58,178)"/><rect width="12" height="12" x="52" y="196" transform="rotate(0,58,202)"/><rect width="12" height="12" x="52" y="220" transform="rotate(0,58,226)"/><rect width="12" height="12" x="52" y="244" transform="rotate(0,58,250)"/><rect width="12" height="12" x="52" y="280" transform="rotate(0,58,286)"/><rect width="12" height="12" x="52" y="304" transform="rotate(0,58,310)"/><rect width="12" height="12" x="52" y="316" transform="rotate(0,58,322)"/><rect width="12" height="12" x="52" y="328" transform="rotate(0,58,334)"/><rect width="12" height="12" x="52" y="340" transform="rotate(0,58,346)"/><rect width="12" height="12" x="52" y="364" transform="rotate(0,58,370)"/><rect width="12" height="12" x="64" y="124" transform="rotate(0,70,130)"/><rect width="12" height="12" x="64" y="136" transform="rotate(0,70,142)"/><rect width="12" height="12" x="64" y="148" transform="rotate(0,70,154)"/><rect width="12" height="12" x="64" y="172" transform="rotate(0,70,178)"/><rect width="12" height="12" x="64" y="220" transform="rotate(0,70,226)"/><rect width="12" height="12" x="64" y="244" transform="rotate(0,70,250)"/><rect width="12" height="12" x="64" y="256" transform="rotate(0,70,262)"/><rect width="12" height="12" x="64" y="268" transform="rotate(0,70,274)"/><rect width="12" height="12" x="64" y="280" transform="rotate(0,70,286)"/><rect width="12" height="12" x="64" y="292" transform="rotate(0,70,298)"/><rect width="12" height="12" x="64" y="328" transform="rotate(0,70,334)"/><rect width="12" height="12" x="76" y="172" transform="rotate(0,82,178)"/><rect width="12" height="12" x="76" y="220" transform="rotate(0,82,226)"/><rect width="12" height="12" x="76" y="232" transform="rotate(0,82,238)"/><rect width="12" height="12" x="76" y="244" transform="rotate(0,82,250)"/><rect width="12" height="12" x="76" y="256" transform="rotate(0,82,262)"/><rect width="12" height="12" x="76" y="268" transform="rotate(0,82,274)"/><rect width="12" height="12" x="76" y="328" transform="rotate(0,82,334)"/><rect width="12" height="12" x="76" y="340" transform="rotate(0,82,346)"/><rect width="12" height="12" x="76" y="364" transform="rotate(0,82,370)"/><rect width="12" height="12" x="88" y="124" transform="rotate(0,94,130)"/><rect width="12" height="12" x="88" y="148" transform="rotate(0,94,154)"/><rect width="12" height="12" x="88" y="160" transform="rotate(0,94,166)"/><rect width="12" height="12" x="88" y="172" transform="rotate(0,94,178)"/><rect width="12" height="12" x="88" y="208" transform="rotate(0,94,214)"/><rect width="12" height="12" x="88" y="232" transform="rotate(0,94,238)"/><rect width="12" height="12" x="88" y="244" transform="rotate(0,94,250)"/><rect width="12" height="12" x="88" y="268" transform="rotate(0,94,274)"/><rect width="12" height="12" x="88" y="364" transform="rotate(0,94,370)"/><rect width="12" height="12" x="100" y="124" transform="rotate(0,106,130)"/><rect width="12" height="12" x="100" y="148" transform="rotate(0,106,154)"/><rect width="12" height="12" x="100" y="172" transform="rotate(0,106,178)"/><rect width="12" height="12" x="100" y="196" transform="rotate(0,106,202)"/><rect width="12" height="12" x="100" y="220" transform="rotate(0,106,226)"/><rect width="12" height="12" x="100" y="244" transform="rotate(0,106,250)"/><rect width="12" height="12" x="100" y="268" transform="rotate(0,106,274)"/><rect width="12" height="12" x="100" y="292" transform="rotate(0,106,298)"/><rect width="12" height="12" x="100" y="316" transform="rotate(0,106,322)"/><rect width="12" height="12" x="100" y="340" transform="rotate(0,106,346)"/><rect width="12" height="12" x="100" y="364" transform="rotate(0,106,370)"/><rect width="12" height="12" x="112" y="124" transform="rotate(0,118,130)"/><rect width="12" height="12" x="112" y="148" transform="rotate(0,118,154)"/><rect width="12" height="12" x="112" y="160" transform="rotate(0,118,166)"/><rect width="12" height="12" x="112" y="172" transform="rotate(0,118,178)"/><rect width="12" height="12" x="112" y="184" transform="rotate(0,118,190)"/><rect width="12" height="12" x="112" y="196" transform="rotate(0,118,202)"/><rect width="12" height="12" x="112" y="208" transform="rotate(0,118,214)"/><rect width="12" height="12" x="112" y="220" transform="rotate(0,118,226)"/><rect width="12" height="12" x="112" y="232" transform="rotate(0,118,238)"/><rect width="12" height="12" x="112" y="268" transform="rotate(0,118,274)"/><rect width="12" height="12" x="112" y="316" transform="rotate(0,118,322)"/><rect width="12" height="12" x="112" y="340" transform="rotate(0,118,346)"/><rect width="12" height="12" x="112" y="352" transform="rotate(0,118,358)"/><rect width="12" height="12" x="112" y="364" transform="rotate(0,118,370)"/><rect width="12" height="12" x="124" y="40" transform="rotate(0,130,46)"/><rect width="12" height="12" x="124" y="52" transform="rotate(0,130,58)"/><rect width="12" height="12" x="124" y="100" transform="rotate(0,130,106)"/><rect width="12" height="12" x="124" y="136" transform="rotate(0,130,142)"/><rect width="12" height="12" x="124" y="148" transform="rotate(0,130,154)"/><rect width="12" height="12" x="124" y="160" transform="rotate(0,130,166)"/><rect width="12" height="12" x="124" y="184" transform="rotate(0,130,190)"/><rect width="12" height="12" x="124" y="208" transform="rotate(0,130,214)"/><rect width="12" height="12" x="124" y="220" transform="rotate(0,130,226)"/><rect width="12" height="12" x="124" y="244" transform="rotate(0,130,250)"/><rect width="12" height="12" x="124" y="256" transform="rotate(0,130,262)"/><rect width="12" height="12" x="124" y="268" transform="rotate(0,130,274)"/><rect width="12" height="12" x="124" y="316" transform="rotate(0,130,322)"/><rect width="12" height="12" x="124" y="328" transform="rotate(0,130,334)"/><rect width="12" height="12" x="124" y="340" transform="rotate(0,130,346)"/><rect width="12" height="12" x="124" y="364" transform="rotate(0,130,370)"/><rect width="12" height="12" x="124" y="388" transform="rotate(0,130,394)"/><rect width="12" height="12" x="124" y="400" transform="rotate(0,130,406)"/><rect width="12" height="12" x="124" y="424" transform="rotate(0,130,430)"/><rect width="12" height="12" x="136" y="112" transform="rotate(0,142,118)"/><rect width="12" height="12" x="136" y="136" transform="rotate(0,142,142)"/><rect width="12" height="12" x="136" y="160" transform="rotate(0,142,166)"/><rect width="12" height="12" x="136" y="172" transform="rotate(0,142,178)"/><rect width="12" height="12" x="136" y="280" transform="rotate(0,142,286)"/><rect width="12" height="12" x="136" y="304" transform="rotate(0,142,310)"/><rect width="12" height="12" x="136" y="316" transform="rotate(0,142,322)"/><rect width="12" height="12" x="136" y="328" transform="rotate(0,142,334)"/><rect width="12" height="12" x="136" y="340" transform="rotate(0,142,346)"/><rect width="12" height="12" x="136" y="364" transform="rotate(0,142,370)"/><rect width="12" height="12" x="136" y="388" transform="rotate(0,142,394)"/><rect width="12" height="12" x="136" y="400" transform="rotate(0,142,406)"/><rect width="12" height="12" x="136" y="424" transform="rotate(0,142,430)"/><rect width="12" height="12" x="136" y="436" transform="rotate(0,142,442)"/><rect width="12" height="12" x="136" y="460" transform="rotate(0,142,466)"/><rect width="12" height="12" x="148" y="52" transform="rotate(0,154,58)"/><rect width="12" height="12" x="148" y="76" transform="rotate(0,154,82)"/><rect width="12" height="12" x="148" y="88" transform="rotate(0,154,94)"/><rect width="12" height="12" x="148" y="100" transform="rotate(0,154,106)"/><rect width="12" height="12" x="148" y="112" transform="rotate(0,154,118)"/><rect width="12" height="12" x="148" y="124" transform="rotate(0,154,130)"/><rect width="12" height="12" x="148" y="136" transform="rotate(0,154,142)"/><rect width="12" height="12" x="148" y="160" transform="rotate(0,154,166)"/><rect width="12" height="12" x="148" y="184" transform="rotate(0,154,190)"/><rect width="12" height="12" x="148" y="208" transform="rotate(0,154,214)"/><rect width="12" height="12" x="148" y="220" transform="rotate(0,154,226)"/><rect width="12" height="12" x="148" y="244" transform="rotate(0,154,250)"/><rect width="12" height="12" x="148" y="256" transform="rotate(0,154,262)"/><rect width="12" height="12" x="148" y="292" transform="rotate(0,154,298)"/><rect width="12" height="12" x="148" y="304" transform="rotate(0,154,310)"/><rect width="12" height="12" x="148" y="364" transform="rotate(0,154,370)"/><rect width="12" height="12" x="148" y="376" transform="rotate(0,154,382)"/><rect width="12" height="12" x="148" y="388" transform="rotate(0,154,394)"/><rect width="12" height="12" x="148" y="400" transform="rotate(0,154,406)"/><rect width="12" height="12" x="148" y="412" transform="rotate(0,154,418)"/><rect width="12" height="12" x="148" y="436" transform="rotate(0,154,442)"/><rect width="12" height="12" x="148" y="460" transform="rotate(0,154,466)"/><rect width="12" height="12" x="160" y="40" transform="rotate(0,166,46)"/><rect width="12" height="12" x="160" y="64" transform="rotate(0,166,70)"/><rect width="12" height="12" x="160" y="76" transform="rotate(0,166,82)"/><rect width="12" height="12" x="160" y="88" transform="rotate(0,166,94)"/><rect width="12" height="12" x="160" y="124" transform="rotate(0,166,130)"/><rect width="12" height="12" x="160" y="172" transform="rotate(0,166,178)"/><rect width="12" height="12" x="160" y="184" transform="rotate(0,166,190)"/><rect width="12" height="12" x="160" y="220" transform="rotate(0,166,226)"/><rect width="12" height="12" x="160" y="292" transform="rotate(0,166,298)"/><rect width="12" height="12" x="160" y="304" transform="rotate(0,166,310)"/><rect width="12" height="12" x="160" y="340" transform="rotate(0,166,346)"/><rect width="12" height="12" x="160" y="352" transform="rotate(0,166,358)"/><rect width="12" height="12" x="160" y="364" transform="rotate(0,166,370)"/><rect width="12" height="12" x="160" y="400" transform="rotate(0,166,406)"/><rect width="12" height="12" x="160" y="448" transform="rotate(0,166,454)"/><rect width="12" height="12" x="160" y="460" transform="rotate(0,166,466)"/><rect width="12" height="12" x="172" y="28" transform="rotate(0,178,34)"/><rect width="12" height="12" x="172" y="76" transform="rotate(0,178,82)"/><rect width="12" height="12" x="172" y="100" transform="rotate(0,178,106)"/><rect width="12" height="12" x="172" y="136" transform="rotate(0,178,142)"/><rect width="12" height="12" x="172" y="172" transform="rotate(0,178,178)"/><rect width="12" height="12" x="172" y="184" transform="rotate(0,178,190)"/><rect width="12" height="12" x="172" y="208" transform="rotate(0,178,214)"/><rect width="12" height="12" x="172" y="232" transform="rotate(0,178,238)"/><rect width="12" height="12" x="172" y="244" transform="rotate(0,178,250)"/><rect width="12" height="12" x="172" y="304" transform="rotate(0,178,310)"/><rect width="12" height="12" x="172" y="316" transform="rotate(0,178,322)"/><rect width="12" height="12" x="172" y="388" transform="rotate(0,178,394)"/><rect width="12" height="12" x="172" y="400" transform="rotate(0,178,406)"/><rect width="12" height="12" x="172" y="424" transform="rotate(0,178,430)"/><rect width="12" height="12" x="172" y="448" transform="rotate(0,178,454)"/><rect width="12" height="12" x="172" y="460" transform="rotate(0,178,466)"/><rect width="12" height="12" x="184" y="28" transform="rotate(0,190,34)"/><rect width="12" height="12" x="184" y="40" transform="rotate(0,190,46)"/><rect width="12" height="12" x="184" y="64" transform="rotate(0,190,70)"/><rect width="12" height="12" x="184" y="76" transform="rotate(0,190,82)"/><rect width="12" height="12" x="184" y="88" transform="rotate(0,190,94)"/><rect width="12" height="12" x="184" y="148" transform="rotate(0,190,154)"/><rect width="12" height="12" x="184" y="184" transform="rotate(0,190,190)"/><rect width="12" height="12" x="184" y="220" transform="rotate(0,190,226)"/><rect width="12" height="12" x="184" y="232" transform="rotate(0,190,238)"/><rect width="12" height="12" x="184" y="256" transform="rotate(0,190,262)"/><rect width="12" height="12" x="184" y="268" transform="rotate(0,190,274)"/><rect width="12" height="12" x="184" y="280" transform="rotate(0,190,286)"/><rect width="12" height="12" x="184" y="292" transform="rotate(0,190,298)"/><rect width="12" height="12" x="184" y="304" transform="rotate(0,190,310)"/><rect width="12" height="12" x="184" y="316" transform="rotate(0,190,322)"/><rect width="12" height="12" x="184" y="328" transform="rotate(0,190,334)"/><rect width="12" height="12" x="184" y="352" transform="rotate(0,190,358)"/><rect width="12" height="12" x="184" y="364" transform="rotate(0,190,370)"/><rect width="12" height="12" x="184" y="376" transform="rotate(0,190,382)"/><rect width="12" height="12" x="184" y="388" transform="rotate(0,190,394)"/><rect width="12" height="12" x="184" y="436" transform="rotate(0,190,442)"/><rect width="12" height="12" x="184" y="460" transform="rotate(0,190,466)"/><rect width="12" height="12" x="196" y="64" transform="rotate(0,202,70)"/><rect width="12" height="12" x="196" y="76" transform="rotate(0,202,82)"/><rect width="12" height="12" x="196" y="100" transform="rotate(0,202,106)"/><rect width="12" height="12" x="196" y="112" transform="rotate(0,202,118)"/><rect width="12" height="12" x="196" y="124" transform="rotate(0,202,130)"/><rect width="12" height="12" x="196" y="160" transform="rotate(0,202,166)"/><rect width="12" height="12" x="196" y="172" transform="rotate(0,202,178)"/><rect width="12" height="12" x="196" y="196" transform="rotate(0,202,202)"/><rect width="12" height="12" x="196" y="220" transform="rotate(0,202,226)"/><rect width="12" height="12" x="196" y="256" transform="rotate(0,202,262)"/><rect width="12" height="12" x="196" y="304" transform="rotate(0,202,310)"/><rect width="12" height="12" x="196" y="316" transform="rotate(0,202,322)"/><rect width="12" height="12" x="196" y="352" transform="rotate(0,202,358)"/><rect width="12" height="12" x="196" y="364" transform="rotate(0,202,370)"/><rect width="12" height="12" x="196" y="412" transform="rotate(0,202,418)"/><rect width="12" height="12" x="196" y="424" transform="rotate(0,202,430)"/><rect width="12" height="12" x="196" y="436" transform="rotate(0,202,442)"/><rect width="12" height="12" x="196" y="460" transform="rotate(0,202,466)"/><rect width="12" height="12" x="208" y="28" transform="rotate(0,214,34)"/><rect width="12" height="12" x="208" y="52" transform="rotate(0,214,58)"/><rect width="12" height="12" x="208" y="64" transform="rotate(0,214,70)"/><rect width="12" height="12" x="208" y="88" transform="rotate(0,214,94)"/><rect width="12" height="12" x="208" y="112" transform="rotate(0,214,118)"/><rect width="12" height="12" x="208" y="124" transform="rotate(0,214,130)"/><rect width="12" height="12" x="208" y="136" transform="rotate(0,214,142)"/><rect width="12" height="12" x="208" y="148" transform="rotate(0,214,154)"/><rect width="12" height="12" x="208" y="160" transform="rotate(0,214,166)"/><rect width="12" height="12" x="208" y="172" transform="rotate(0,214,178)"/><rect width="12" height="12" x="208" y="184" transform="rotate(0,214,190)"/><rect width="12" height="12" x="208" y="196" transform="rotate(0,214,202)"/><rect width="12" height="12" x="208" y="208" transform="rotate(0,214,214)"/><rect width="12" height="12" x="208" y="220" transform="rotate(0,214,226)"/><rect width="12" height="12" x="208" y="244" transform="rotate(0,214,250)"/><rect width="12" height="12" x="208" y="256" transform="rotate(0,214,262)"/><rect width="12" height="12" x="208" y="268" transform="rotate(0,214,274)"/><rect width="12" height="12" x="208" y="280" transform="rotate(0,214,286)"/><rect width="12" height="12" x="208" y="304" transform="rotate(0,214,310)"/><rect width="12" height="12" x="208" y="316" transform="rotate(0,214,322)"/><rect width="12" height="12" x="208" y="340" transform="rotate(0,214,346)"/><rect width="12" height="12" x="208" y="376" transform="rotate(0,214,382)"/><rect width="12" height="12" x="208" y="388" transform="rotate(0,214,394)"/><rect width="12" height="12" x="208" y="400" transform="rotate(0,214,406)"/><rect width="12" height="12" x="208" y="424" transform="rotate(0,214,430)"/><rect width="12" height="12" x="208" y="460" transform="rotate(0,214,466)"/><rect width="12" height="12" x="220" y="40" transform="rotate(0,226,46)"/><rect width="12" height="12" x="220" y="64" transform="rotate(0,226,70)"/><rect width="12" height="12" x="220" y="76" transform="rotate(0,226,82)"/><rect width="12" height="12" x="220" y="100" transform="rotate(0,226,106)"/><rect width="12" height="12" x="220" y="112" transform="rotate(0,226,118)"/><rect width="12" height="12" x="220" y="124" transform="rotate(0,226,130)"/><rect width="12" height="12" x="220" y="136" transform="rotate(0,226,142)"/><rect width="12" height="12" x="220" y="160" transform="rotate(0,226,166)"/><rect width="12" height="12" x="220" y="172" transform="rotate(0,226,178)"/><rect width="12" height="12" x="220" y="184" transform="rotate(0,226,190)"/><rect width="12" height="12" x="220" y="196" transform="rotate(0,226,202)"/><rect width="12" height="12" x="220" y="208" transform="rotate(0,226,214)"/><rect width="12" height="12" x="220" y="232" transform="rotate(0,226,238)"/><rect width="12" height="12" x="220" y="244" transform="rotate(0,226,250)"/><rect width="12" height="12" x="220" y="256" transform="rotate(0,226,262)"/><rect width="12" height="12" x="220" y="268" transform="rotate(0,226,274)"/><rect width="12" height="12" x="220" y="280" transform="rotate(0,226,286)"/><rect width="12" height="12" x="220" y="316" transform="rotate(0,226,322)"/><rect width="12" height="12" x="220" y="352" transform="rotate(0,226,358)"/><rect width="12" height="12" x="220" y="364" transform="rotate(0,226,370)"/><rect width="12" height="12" x="220" y="388" transform="rotate(0,226,394)"/><rect width="12" height="12" x="220" y="400" transform="rotate(0,226,406)"/><rect width="12" height="12" x="232" y="52" transform="rotate(0,238,58)"/><rect width="12" height="12" x="232" y="64" transform="rotate(0,238,70)"/><rect width="12" height="12" x="232" y="76" transform="rotate(0,238,82)"/><rect width="12" height="12" x="232" y="88" transform="rotate(0,238,94)"/><rect width="12" height="12" x="232" y="124" transform="rotate(0,238,130)"/><rect width="12" height="12" x="232" y="160" transform="rotate(0,238,166)"/><rect width="12" height="12" x="232" y="196" transform="rotate(0,238,202)"/><rect width="12" height="12" x="232" y="220" transform="rotate(0,238,226)"/><rect width="12" height="12" x="232" y="232" transform="rotate(0,238,238)"/><rect width="12" height="12" x="232" y="316" transform="rotate(0,238,322)"/><rect width="12" height="12" x="232" y="328" transform="rotate(0,238,334)"/><rect width="12" height="12" x="232" y="352" transform="rotate(0,238,358)"/><rect width="12" height="12" x="232" y="364" transform="rotate(0,238,370)"/><rect width="12" height="12" x="232" y="388" transform="rotate(0,238,394)"/><rect width="12" height="12" x="232" y="400" transform="rotate(0,238,406)"/><rect width="12" height="12" x="232" y="424" transform="rotate(0,238,430)"/><rect width="12" height="12" x="232" y="460" transform="rotate(0,238,466)"/><rect width="12" height="12" x="244" y="28" transform="rotate(0,250,34)"/><rect width="12" height="12" x="244" y="52" transform="rotate(0,250,58)"/><rect width="12" height="12" x="244" y="100" transform="rotate(0,250,106)"/><rect width="12" height="12" x="244" y="136" transform="rotate(0,250,142)"/><rect width="12" height="12" x="244" y="148" transform="rotate(0,250,154)"/><rect width="12" height="12" x="244" y="160" transform="rotate(0,250,166)"/><rect width="12" height="12" x="244" y="172" transform="rotate(0,250,178)"/><rect width="12" height="12" x="244" y="208" transform="rotate(0,250,214)"/><rect width="12" height="12" x="244" y="220" transform="rotate(0,250,226)"/><rect width="12" height="12" x="244" y="316" transform="rotate(0,250,322)"/><rect width="12" height="12" x="244" y="352" transform="rotate(0,250,358)"/><rect width="12" height="12" x="244" y="364" transform="rotate(0,250,370)"/><rect width="12" height="12" x="244" y="400" transform="rotate(0,250,406)"/><rect width="12" height="12" x="244" y="412" transform="rotate(0,250,418)"/><rect width="12" height="12" x="244" y="460" transform="rotate(0,250,466)"/><rect width="12" height="12" x="256" y="76" transform="rotate(0,262,82)"/><rect width="12" height="12" x="256" y="124" transform="rotate(0,262,130)"/><rect width="12" height="12" x="256" y="172" transform="rotate(0,262,178)"/><rect width="12" height="12" x="256" y="208" transform="rotate(0,262,214)"/><rect width="12" height="12" x="256" y="220" transform="rotate(0,262,226)"/><rect width="12" height="12" x="256" y="232" transform="rotate(0,262,238)"/><rect width="12" height="12" x="256" y="244" transform="rotate(0,262,250)"/><rect width="12" height="12" x="256" y="292" transform="rotate(0,262,298)"/><rect width="12" height="12" x="256" y="304" transform="rotate(0,262,310)"/><rect width="12" height="12" x="256" y="316" transform="rotate(0,262,322)"/><rect width="12" height="12" x="256" y="340" transform="rotate(0,262,346)"/><rect width="12" height="12" x="256" y="352" transform="rotate(0,262,358)"/><rect width="12" height="12" x="256" y="364" transform="rotate(0,262,370)"/><rect width="12" height="12" x="256" y="376" transform="rotate(0,262,382)"/><rect width="12" height="12" x="256" y="388" transform="rotate(0,262,394)"/><rect width="12" height="12" x="256" y="412" transform="rotate(0,262,418)"/><rect width="12" height="12" x="256" y="424" transform="rotate(0,262,430)"/><rect width="12" height="12" x="256" y="448" transform="rotate(0,262,454)"/><rect width="12" height="12" x="256" y="460" transform="rotate(0,262,466)"/><rect width="12" height="12" x="268" y="40" transform="rotate(0,274,46)"/><rect width="12" height="12" x="268" y="88" transform="rotate(0,274,94)"/><rect width="12" height="12" x="268" y="100" transform="rotate(0,274,106)"/><rect width="12" height="12" x="268" y="112" transform="rotate(0,274,118)"/><rect width="12" height="12" x="268" y="124" transform="rotate(0,274,130)"/><rect width="12" height="12" x="268" y="136" transform="rotate(0,274,142)"/><rect width="12" height="12" x="268" y="172" transform="rotate(0,274,178)"/><rect width="12" height="12" x="268" y="184" transform="rotate(0,274,190)"/><rect width="12" height="12" x="268" y="232" transform="rotate(0,274,238)"/><rect width="12" height="12" x="268" y="244" transform="rotate(0,274,250)"/><rect width="12" height="12" x="268" y="256" transform="rotate(0,274,262)"/><rect width="12" height="12" x="268" y="316" transform="rotate(0,274,322)"/><rect width="12" height="12" x="268" y="364" transform="rotate(0,274,370)"/><rect width="12" height="12" x="268" y="388" transform="rotate(0,274,394)"/><rect width="12" height="12" x="268" y="424" transform="rotate(0,274,430)"/><rect width="12" height="12" x="268" y="448" transform="rotate(0,274,454)"/><rect width="12" height="12" x="268" y="460" transform="rotate(0,274,466)"/><rect width="12" height="12" x="280" y="40" transform="rotate(0,286,46)"/><rect width="12" height="12" x="280" y="124" transform="rotate(0,286,130)"/><rect width="12" height="12" x="280" y="136" transform="rotate(0,286,142)"/><rect width="12" height="12" x="280" y="172" transform="rotate(0,286,178)"/><rect width="12" height="12" x="280" y="184" transform="rotate(0,286,190)"/><rect width="12" height="12" x="280" y="196" transform="rotate(0,286,202)"/><rect width="12" height="12" x="280" y="232" transform="rotate(0,286,238)"/><rect width="12" height="12" x="280" y="268" transform="rotate(0,286,274)"/><rect width="12" height="12" x="280" y="280" transform="rotate(0,286,286)"/><rect width="12" height="12" x="280" y="304" transform="rotate(0,286,310)"/><rect width="12" height="12" x="280" y="316" transform="rotate(0,286,322)"/><rect width="12" height="12" x="280" y="328" transform="rotate(0,286,334)"/><rect width="12" height="12" x="280" y="340" transform="rotate(0,286,346)"/><rect width="12" height="12" x="280" y="352" transform="rotate(0,286,358)"/><rect width="12" height="12" x="280" y="388" transform="rotate(0,286,394)"/><rect width="12" height="12" x="280" y="400" transform="rotate(0,286,406)"/><rect width="12" height="12" x="280" y="460" transform="rotate(0,286,466)"/><rect width="12" height="12" x="292" y="52" transform="rotate(0,298,58)"/><rect width="12" height="12" x="292" y="64" transform="rotate(0,298,70)"/><rect width="12" height="12" x="292" y="76" transform="rotate(0,298,82)"/><rect width="12" height="12" x="292" y="88" transform="rotate(0,298,94)"/><rect width="12" height="12" x="292" y="100" transform="rotate(0,298,106)"/><rect width="12" height="12" x="292" y="124" transform="rotate(0,298,130)"/><rect width="12" height="12" x="292" y="148" transform="rotate(0,298,154)"/><rect width="12" height="12" x="292" y="160" transform="rotate(0,298,166)"/><rect width="12" height="12" x="292" y="172" transform="rotate(0,298,178)"/><rect width="12" height="12" x="292" y="196" transform="rotate(0,298,202)"/><rect width="12" height="12" x="292" y="220" transform="rotate(0,298,226)"/><rect width="12" height="12" x="292" y="256" transform="rotate(0,298,262)"/><rect width="12" height="12" x="292" y="304" transform="rotate(0,298,310)"/><rect width="12" height="12" x="292" y="352" transform="rotate(0,298,358)"/><rect width="12" height="12" x="292" y="364" transform="rotate(0,298,370)"/><rect width="12" height="12" x="292" y="400" transform="rotate(0,298,406)"/><rect width="12" height="12" x="292" y="412" transform="rotate(0,298,418)"/><rect width="12" height="12" x="292" y="436" transform="rotate(0,298,442)"/><rect width="12" height="12" x="292" y="460" transform="rotate(0,298,466)"/><rect width="12" height="12" x="304" y="76" transform="rotate(0,310,82)"/><rect width="12" height="12" x="304" y="88" transform="rotate(0,310,94)"/><rect width="12" height="12" x="304" y="124" transform="rotate(0,310,130)"/><rect width="12" height="12" x="304" y="160" transform="rotate(0,310,166)"/><rect width="12" height="12" x="304" y="172" transform="rotate(0,310,178)"/><rect width="12" height="12" x="304" y="208" transform="rotate(0,310,214)"/><rect width="12" height="12" x="304" y="220" transform="rotate(0,310,226)"/><rect width="12" height="12" x="304" y="232" transform="rotate(0,310,238)"/><rect width="12" height="12" x="304" y="256" transform="rotate(0,310,262)"/><rect width="12" height="12" x="304" y="292" transform="rotate(0,310,298)"/><rect width="12" height="12" x="304" y="328" transform="rotate(0,310,334)"/><rect width="12" height="12" x="304" y="352" transform="rotate(0,310,358)"/><rect width="12" height="12" x="304" y="376" transform="rotate(0,310,382)"/><rect width="12" height="12" x="304" y="400" transform="rotate(0,310,406)"/><rect width="12" height="12" x="304" y="424" transform="rotate(0,310,430)"/><rect width="12" height="12" x="304" y="448" transform="rotate(0,310,454)"/><rect width="12" height="12" x="304" y="460" transform="rotate(0,310,466)"/><rect width="12" height="12" x="316" y="28" transform="rotate(0,322,34)"/><rect width="12" height="12" x="316" y="40" transform="rotate(0,322,46)"/><rect width="12" height="12" x="316" y="52" transform="rotate(0,322,58)"/><rect width="12" height="12" x="316" y="64" transform="rotate(0,322,70)"/><rect width="12" height="12" x="316" y="100" transform="rotate(0,322,106)"/><rect width="12" height="12" x="316" y="112" transform="rotate(0,322,118)"/><rect width="12" height="12" x="316" y="184" transform="rotate(0,322,190)"/><rect width="12" height="12" x="316" y="220" transform="rotate(0,322,226)"/><rect width="12" height="12" x="316" y="256" transform="rotate(0,322,262)"/><rect width="12" height="12" x="316" y="304" transform="rotate(0,322,310)"/><rect width="12" height="12" x="316" y="328" transform="rotate(0,322,334)"/><rect width="12" height="12" x="316" y="364" transform="rotate(0,322,370)"/><rect width="12" height="12" x="316" y="388" transform="rotate(0,322,394)"/><rect width="12" height="12" x="328" y="40" transform="rotate(0,334,46)"/><rect width="12" height="12" x="328" y="64" transform="rotate(0,334,70)"/><rect width="12" height="12" x="328" y="124" transform="rotate(0,334,130)"/><rect width="12" height="12" x="328" y="148" transform="rotate(0,334,154)"/><rect width="12" height="12" x="328" y="172" transform="rotate(0,334,178)"/><rect width="12" height="12" x="328" y="184" transform="rotate(0,334,190)"/><rect width="12" height="12" x="328" y="196" transform="rotate(0,334,202)"/><rect width="12" height="12" x="328" y="208" transform="rotate(0,334,214)"/><rect width="12" height="12" x="328" y="220" transform="rotate(0,334,226)"/><rect width="12" height="12" x="328" y="256" transform="rotate(0,334,262)"/><rect width="12" height="12" x="328" y="268" transform="rotate(0,334,274)"/><rect width="12" height="12" x="328" y="292" transform="rotate(0,334,298)"/><rect width="12" height="12" x="328" y="304" transform="rotate(0,334,310)"/><rect width="12" height="12" x="328" y="316" transform="rotate(0,334,322)"/><rect width="12" height="12" x="328" y="388" transform="rotate(0,334,394)"/><rect width="12" height="12" x="328" y="400" transform="rotate(0,334,406)"/><rect width="12" height="12" x="328" y="424" transform="rotate(0,334,430)"/><rect width="12" height="12" x="328" y="436" transform="rotate(0,334,442)"/><rect width="12" height="12" x="328" y="460" transform="rotate(0,334,466)"/><rect width="12" height="12" x="340" y="28" transform="rotate(0,346,34)"/><rect width="12" height="12" x="340" y="40" transform="rotate(0,346,46)"/><rect width="12" height="12" x="340" y="52" transform="rotate(0,346,58)"/><rect width="12" height="12" x="340" y="64" transform="rotate(0,346,70)"/><rect width="12" height="12" x="340" y="88" transform="rotate(0,346,94)"/><rect width="12" height="12" x="340" y="100" transform="rotate(0,346,106)"/><rect width="12" height="12" x="340" y="112" transform="rotate(0,346,118)"/><rect width="12" height="12" x="340" y="124" transform="rotate(0,346,130)"/><rect width="12" height="12" x="340" y="136" transform="rotate(0,346,142)"/><rect width="12" height="12" x="340" y="148" transform="rotate(0,346,154)"/><rect width="12" height="12" x="340" y="160" transform="rotate(0,346,166)"/><rect width="12" height="12" x="340" y="184" transform="rotate(0,346,190)"/><rect width="12" height="12" x="340" y="208" transform="rotate(0,346,214)"/><rect width="12" height="12" x="340" y="232" transform="rotate(0,346,238)"/><rect width="12" height="12" x="340" y="256" transform="rotate(0,346,262)"/><rect width="12" height="12" x="340" y="292" transform="rotate(0,346,298)"/><rect width="12" height="12" x="340" y="304" transform="rotate(0,346,310)"/><rect width="12" height="12" x="340" y="328" transform="rotate(0,346,334)"/><rect width="12" height="12" x="340" y="352" transform="rotate(0,346,358)"/><rect width="12" height="12" x="340" y="364" transform="rotate(0,346,370)"/><rect width="12" height="12" x="340" y="376" transform="rotate(0,346,382)"/><rect width="12" height="12" x="340" y="388" transform="rotate(0,346,394)"/><rect width="12" height="12" x="340" y="400" transform="rotate(0,346,406)"/><rect width="12" height="12" x="340" y="412" transform="rotate(0,346,418)"/><rect width="12" height="12" x="340" y="424" transform="rotate(0,346,430)"/><rect width="12" height="12" x="340" y="460" transform="rotate(0,346,466)"/><rect width="12" height="12" x="352" y="112" transform="rotate(0,358,118)"/><rect width="12" height="12" x="352" y="160" transform="rotate(0,358,166)"/><rect width="12" height="12" x="352" y="196" transform="rotate(0,358,202)"/><rect width="12" height="12" x="352" y="232" transform="rotate(0,358,238)"/><rect width="12" height="12" x="352" y="244" transform="rotate(0,358,250)"/><rect width="12" height="12" x="352" y="304" transform="rotate(0,358,310)"/><rect width="12" height="12" x="352" y="316" transform="rotate(0,358,322)"/><rect width="12" height="12" x="352" y="340" transform="rotate(0,358,346)"/><rect width="12" height="12" x="352" y="364" transform="rotate(0,358,370)"/><rect width="12" height="12" x="352" y="376" transform="rotate(0,358,382)"/><rect width="12" height="12" x="352" y="388" transform="rotate(0,358,394)"/><rect width="12" height="12" x="352" y="412" transform="rotate(0,358,418)"/><rect width="12" height="12" x="352" y="424" transform="rotate(0,358,430)"/><rect width="12" height="12" x="352" y="448" transform="rotate(0,358,454)"/><rect width="12" height="12" x="352" y="460" transform="rotate(0,358,466)"/><rect width="12" height="12" x="364" y="28" transform="rotate(0,370,34)"/><rect width="12" height="12" x="364" y="40" transform="rotate(0,370,46)"/><rect width="12" height="12" x="364" y="52" transform="rotate(0,370,58)"/><rect width="12" height="12" x="364" y="76" transform="rotate(0,370,82)"/><rect width="12" height="12" x="364" y="88" transform="rotate(0,370,94)"/><rect width="12" height="12" x="364" y="100" transform="rotate(0,370,106)"/><rect width="12" height="12" x="364" y="112" transform="rotate(0,370,118)"/><rect width="12" height="12" x="364" y="148" transform="rotate(0,370,154)"/><rect width="12" height="12" x="364" y="160" transform="rotate(0,370,166)"/><rect width="12" height="12" x="364" y="172" transform="rotate(0,370,178)"/><rect width="12" height="12" x="364" y="268" transform="rotate(0,370,274)"/><rect width="12" height="12" x="364" y="316" transform="rotate(0,370,322)"/><rect width="12" height="12" x="364" y="364" transform="rotate(0,370,370)"/><rect width="12" height="12" x="364" y="376" transform="rotate(0,370,382)"/><rect width="12" height="12" x="364" y="388" transform="rotate(0,370,394)"/><rect width="12" height="12" x="364" y="400" transform="rotate(0,370,406)"/><rect width="12" height="12" x="364" y="412" transform="rotate(0,370,418)"/><rect width="12" height="12" x="364" y="424" transform="rotate(0,370,430)"/><rect width="12" height="12" x="364" y="460" transform="rotate(0,370,466)"/><rect width="12" height="12" x="376" y="124" transform="rotate(0,382,130)"/><rect width="12" height="12" x="376" y="136" transform="rotate(0,382,142)"/><rect width="12" height="12" x="376" y="148" transform="rotate(0,382,154)"/><rect width="12" height="12" x="376" y="184" transform="rotate(0,382,190)"/><rect width="12" height="12" x="376" y="220" transform="rotate(0,382,226)"/><rect width="12" height="12" x="376" y="244" transform="rotate(0,382,250)"/><rect width="12" height="12" x="376" y="256" transform="rotate(0,382,262)"/><rect width="12" height="12" x="376" y="304" transform="rotate(0,382,310)"/><rect width="12" height="12" x="376" y="316" transform="rotate(0,382,322)"/><rect width="12" height="12" x="376" y="328" transform="rotate(0,382,334)"/><rect width="12" height="12" x="376" y="340" transform="rotate(0,382,346)"/><rect width="12" height="12" x="376" y="352" transform="rotate(0,382,358)"/><rect width="12" height="12" x="376" y="364" transform="rotate(0,382,370)"/><rect width="12" height="12" x="376" y="412" transform="rotate(0,382,418)"/><rect width="12" height="12" x="376" y="424" transform="rotate(0,382,430)"/><rect width="12" height="12" x="376" y="460" transform="rotate(0,382,466)"/><rect width="12" height="12" x="388" y="160" transform="rotate(0,394,166)"/><rect width="12" height="12" x="388" y="172" transform="rotate(0,394,178)"/><rect width="12" height="12" x="388" y="184" transform="rotate(0,394,190)"/><rect width="12" height="12" x="388" y="196" transform="rotate(0,394,202)"/><rect width="12" height="12" x="388" y="220" transform="rotate(0,394,226)"/><rect width="12" height="12" x="388" y="232" transform="rotate(0,394,238)"/><rect width="12" height="12" x="388" y="244" transform="rotate(0,394,250)"/><rect width="12" height="12" x="388" y="280" transform="rotate(0,394,286)"/><rect width="12" height="12" x="388" y="292" transform="rotate(0,394,298)"/><rect width="12" height="12" x="388" y="304" transform="rotate(0,394,310)"/><rect width="12" height="12" x="388" y="328" transform="rotate(0,394,334)"/><rect width="12" height="12" x="388" y="364" transform="rotate(0,394,370)"/><rect width="12" height="12" x="388" y="388" transform="rotate(0,394,394)"/><rect width="12" height="12" x="388" y="412" transform="rotate(0,394,418)"/><rect width="12" height="12" x="388" y="424" transform="rotate(0,394,430)"/><rect width="12" height="12" x="388" y="436" transform="rotate(0,394,442)"/><rect width="12" height="12" x="388" y="460" transform="rotate(0,394,466)"/><rect width="12" height="12" x="400" y="136" transform="rotate(0,406,142)"/><rect width="12" height="12" x="400" y="160" transform="rotate(0,406,166)"/><rect width="12" height="12" x="400" y="172" transform="rotate(0,406,178)"/><rect width="12" height="12" x="400" y="292" transform="rotate(0,406,298)"/><rect width="12" height="12" x="400" y="316" transform="rotate(0,406,322)"/><rect width="12" height="12" x="400" y="340" transform="rotate(0,406,346)"/><rect width="12" height="12" x="400" y="352" transform="rotate(0,406,358)"/><rect width="12" height="12" x="400" y="364" transform="rotate(0,406,370)"/><rect width="12" height="12" x="400" y="412" transform="rotate(0,406,418)"/><rect width="12" height="12" x="400" y="424" transform="rotate(0,406,430)"/><rect width="12" height="12" x="400" y="448" transform="rotate(0,406,454)"/><rect width="12" height="12" x="412" y="148" transform="rotate(0,418,154)"/><rect width="12" height="12" x="412" y="160" transform="rotate(0,418,166)"/><rect width="12" height="12" x="412" y="184" transform="rotate(0,418,190)"/><rect width="12" height="12" x="412" y="256" transform="rotate(0,418,262)"/><rect width="12" height="12" x="412" y="268" transform="rotate(0,418,274)"/><rect width="12" height="12" x="412" y="280" transform="rotate(0,418,286)"/><rect width="12" height="12" x="412" y="292" transform="rotate(0,418,298)"/><rect width="12" height="12" x="412" y="304" transform="rotate(0,418,310)"/><rect width="12" height="12" x="412" y="340" transform="rotate(0,418,346)"/><rect width="12" height="12" x="412" y="352" transform="rotate(0,418,358)"/><rect width="12" height="12" x="412" y="364" transform="rotate(0,418,370)"/><rect width="12" height="12" x="412" y="376" transform="rotate(0,418,382)"/><rect width="12" height="12" x="412" y="388" transform="rotate(0,418,394)"/><rect width="12" height="12" x="412" y="400" transform="rotate(0,418,406)"/><rect width="12" height="12" x="412" y="412" transform="rotate(0,418,418)"/><rect width="12" height="12" x="412" y="448" transform="rotate(0,418,454)"/><rect width="12" height="12" x="412" y="460" transform="rotate(0,418,466)"/><rect width="12" height="12" x="424" y="136" transform="rotate(0,430,142)"/><rect width="12" height="12" x="424" y="148" transform="rotate(0,430,154)"/><rect width="12" height="12" x="424" y="172" transform="rotate(0,430,178)"/><rect width="12" height="12" x="424" y="196" transform="rotate(0,430,202)"/><rect width="12" height="12" x="424" y="208" transform="rotate(0,430,214)"/><rect width="12" height="12" x="424" y="232" transform="rotate(0,430,238)"/><rect width="12" height="12" x="424" y="268" transform="rotate(0,430,274)"/><rect width="12" height="12" x="424" y="280" transform="rotate(0,430,286)"/><rect width="12" height="12" x="424" y="292" transform="rotate(0,430,298)"/><rect width="12" height="12" x="424" y="352" transform="rotate(0,430,358)"/><rect width="12" height="12" x="424" y="412" transform="rotate(0,430,418)"/><rect width="12" height="12" x="424" y="448" transform="rotate(0,430,454)"/><rect width="12" height="12" x="424" y="460" transform="rotate(0,430,466)"/><rect width="12" height="12" x="436" y="124" transform="rotate(0,442,130)"/><rect width="12" height="12" x="436" y="148" transform="rotate(0,442,154)"/><rect width="12" height="12" x="436" y="172" transform="rotate(0,442,178)"/><rect width="12" height="12" x="436" y="184" transform="rotate(0,442,190)"/><rect width="12" height="12" x="436" y="220" transform="rotate(0,442,226)"/><rect width="12" height="12" x="436" y="232" transform="rotate(0,442,238)"/><rect width="12" height="12" x="436" y="268" transform="rotate(0,442,274)"/><rect width="12" height="12" x="436" y="304" transform="rotate(0,442,310)"/><rect width="12" height="12" x="436" y="328" transform="rotate(0,442,334)"/><rect width="12" height="12" x="436" y="352" transform="rotate(0,442,358)"/><rect width="12" height="12" x="436" y="364" transform="rotate(0,442,370)"/><rect width="12" height="12" x="436" y="412" transform="rotate(0,442,418)"/><rect width="12" height="12" x="436" y="448" transform="rotate(0,442,454)"/><rect width="12" height="12" x="436" y="460" transform="rotate(0,442,466)"/><rect width="12" height="12" x="448" y="124" transform="rotate(0,454,130)"/><rect width="12" height="12" x="448" y="136" transform="rotate(0,454,142)"/><rect width="12" height="12" x="448" y="172" transform="rotate(0,454,178)"/><rect width="12" height="12" x="448" y="208" transform="rotate(0,454,214)"/><rect width="12" height="12" x="448" y="220" transform="rotate(0,454,226)"/><rect width="12" height="12" x="448" y="232" transform="rotate(0,454,238)"/><rect width="12" height="12" x="448" y="244" transform="rotate(0,454,250)"/><rect width="12" height="12" x="448" y="256" transform="rotate(0,454,262)"/><rect width="12" height="12" x="448" y="268" transform="rotate(0,454,274)"/><rect width="12" height="12" x="448" y="292" transform="rotate(0,454,298)"/><rect width="12" height="12" x="448" y="364" transform="rotate(0,454,370)"/><rect width="12" height="12" x="448" y="388" transform="rotate(0,454,394)"/><rect width="12" height="12" x="448" y="400" transform="rotate(0,454,406)"/><rect width="12" height="12" x="448" y="412" transform="rotate(0,454,418)"/><rect width="12" height="12" x="448" y="424" transform="rotate(0,454,430)"/><rect width="12" height="12" x="460" y="136" transform="rotate(0,466,142)"/><rect width="12" height="12" x="460" y="160" transform="rotate(0,466,166)"/><rect width="12" height="12" x="460" y="184" transform="rotate(0,466,190)"/><rect width="12" height="12" x="460" y="196" transform="rotate(0,466,202)"/><rect width="12" height="12" x="460" y="208" transform="rotate(0,466,214)"/><rect width="12" height="12" x="460" y="220" transform="rotate(0,466,226)"/><rect width="12" height="12" x="460" y="268" transform="rotate(0,466,274)"/><rect width="12" height="12" x="460" y="304" transform="rotate(0,466,310)"/><rect width="12" height="12" x="460" y="316" transform="rotate(0,466,322)"/><rect width="12" height="12" x="460" y="352" transform="rotate(0,466,358)"/><rect width="12" height="12" x="460" y="364" transform="rotate(0,466,370)"/><rect width="12" height="12" x="460" y="388" transform="rotate(0,466,394)"/><rect width="12" height="12" x="460" y="400" transform="rotate(0,466,406)"/><rect width="12" height="12" x="460" y="412" transform="rotate(0,466,418)"/><rect width="12" height="12" x="460" y="424" transform="rotate(0,466,430)"/><rect width="12" height="12" x="460" y="460" transform="rotate(0,466,466)"/><path d="M 28 28v 84h 84v -84zM 40 40h 60v 60h -60z" clip-rule="evenodd" transform="rotate(0,70,70)"/><rect width="36" height="36" x="52" y="52" transform="rotate(0,70,70)"/><path d="M 388 28v 84h 84v -84zM 400 40h 60v 60h -60z" clip-rule="evenodd" transform="rotate(90,430,70)"/><rect width="36" height="36" x="412" y="52" transform="rotate(90,430,70)"/><path d="M 28 388v 84h 84v -84zM 40 400h 60v 60h -60z" clip-rule="evenodd" transform="rotate(-90,70,430)"/><rect width="36" height="36" x="52" y="412" transform="rotate(-90,70,430)"/></clipPath></defs><rect width="500" height="500" x="0" y="0" fill="#fff" clip-path="url('#clip-path-background-color')"/><rect width="500" height="500" x="0" y="0" fill="#000" clip-path="url('#clip-path-dot-color')"/></svg>