<svg xmlns="http://www.w3.org/2000/svg" width="500" height="500"><defs><clipPath id="clip-path-dot-color"><rect width="12" height="12" x="28" y="148" transform="rotate(0,34,154)"/><rect width="12" height="12" x="28" y="172" transform="rotate(0,34,178)"/><rect width="12" height="12" x="28" y="208" transform="rotate(0,34,214)"/><rect width="12" height="12" x="28" y="220" transform="rotate(0,34,226)"/><rect width="12" height="12" x="28" y="244" transform="rotate(0,34,250)"/><rect width="12" height="12" x="28" y="268" transform="rotate(0,34,274)"/><rect width="12" height="12" x="28" y="280" transform="rotate(0,34,286)"/><rect width="12" height="12" x="28" y="328" transform="rotate(0,34,334)"/><rect width="12" height="12" x="28" y="340" transform="rotate(0,34,346)"/><rect width="12" height="12" x="28" y="352" transform="rotate(0,34,358)"/><rect width="12" height="12" x="28" y="364" transform="rotate(0,34,370)"/><rect width="12" height="12" x="40" y="160" transform="rotate(0,46,166)"/><rect width="12" height="12" x="40" y="172" transform="rotate(0,46,178)"/><rect width="12" height="12" x="40" y="184" transform="rotate(0,46,190)"/><rect width="12" height="12" x="40" y="196" transform="rotate(0,46,202)"/><rect width="12" height="12" x="40" y="220" transform="rotate(0,46,226)"/><rect width="12" height="12" x="40" y="232" transform="rotate(0,46,238)"/><rect width="12" height="12" x="40" y="244" transform="rotate(0,46,250)"/><rect width="12" height="12" x="40" y="256" transform="rotate(0,46,262)"/><rect width="12" height="12" x="40" y="280" transform="rotate(0,46,286)"/><rect width="12" height="12" x="40" y="304" transform="rotate(0,46,310)"/><rect width="12" height="12" x="40" y="316" transform="rotate(0,46,322)"/><rect width="12" height="12" x="40" y="328" transform="rotate(0,46,334)"/><rect width="12" height="12" x="40" y="340" transform="rotate(0,46,346)"/><rect width="12" height="12" x="40" y="364" transform="rotate(0,46,370)"/><rect width="12" height="12" x="52" y="124" transform="rotate(0,58,130)"/><rect width="12" height="12" x="52" y="136" transform="rotate(0,58,142)"/><rect width="12" height="12" x="52" y="184" transform="rotate(0,58,190)"/><rect width="12" height="12" x="52" y="220" transform="rotate(0,58,226)"/><rect width="12" height="12" x="52" y="256" transform="rotate(0,58,262)"/><rect width="12" height="12" x="52" y="268" transform="rotate(0,58,274)"/><rect width="12" height="12" x="52" y="280" transform="rotate(0,58,286)"/><rect width="12" height="12" x="52" y="316" transform="rotate(0,58,322)"/><rect width="12" height="12" x="52" y="364" transform="rotate(0,58,370)"/><rect width="12" height="12" x="64" y="148" transform="rotate(0,70,154)"/><rect width="12" height="12" x="64" y="172" transform="rotate(0,70,178)"/><rect width="12" height="12" x="64" y="208" transform="rotate(0,70,214)"/><rect width="12" height="12" x="64" y="232" transform="rotate(0,70,238)"/><rect width="12" height="12" x="64" y="268" transform="rotate(0,70,274)"/><rect width="12" height="12" x="64" y="328" transform="rotate(0,70,334)"/><rect width="12" height="12" x="64" y="352" transform="rotate(0,70,358)"/><rect width="12" height="12" x="64" y="364" transform="rotate(0,70,370)"/><rect width="12" height="12" x="76" y="124" transform="rotate(0,82,130)"/><rect width="12" height="12" x="76" y="136" transform="rotate(0,82,142)"/><rect width="12" height="12" x="76" y="148" transform="rotate(0,82,154)"/><rect width="12" height="12" x="76" y="160" transform="rotate(0,82,166)"/><rect width="12" height="12" x="76" y="172" transform="rotate(0,82,178)"/><rect width="12" height="12" x="76" y="184" transform="rotate(0,82,190)"/><rect width="12" height="12" x="76" y="244" transform="rotate(0,82,250)"/><rect width="12" height="12" x="76" y="256" transform="rotate(0,82,262)"/><rect width="12" height="12" x="76" y="268" transform="rotate(0,82,274)"/><rect width="12" height="12" x="76" y="280" transform="rotate(0,82,286)"/><rect width="12" height="12" x="76" y="292" transform="rotate(0,82,298)"/><rect width="12" height="12" x="76" y="304" transform="rotate(0,82,310)"/><rect width="12" height="12" x="76" y="340" transform="rotate(0,82,346)"/><rect width="12" height="12" x="76" y="352" transform="rotate(0,82,358)"/><rect width="12" height="12" x="88" y="124" transform="rotate(0,94,130)"/><rect width="12" height="12" x="88" y="148" transform="rotate(0,94,154)"/><rect width="12" height="12" x="88" y="160" transform="rotate(0,94,166)"/><rect width="12" height="12" x="88" y="184" transform="rotate(0,94,190)"/><rect width="12" height="12" x="88" y="208" transform="rotate(0,94,214)"/><rect width="12" height="12" x="88" y="232" transform="rotate(0,94,238)"/><rect width="12" height="12" x="88" y="256" transform="rotate(0,94,262)"/><rect width="12" height="12" x="88" y="316" transform="rotate(0,94,322)"/><rect width="12" height="12" x="88" y="364" transform="rotate(0,94,370)"/><rect width="12" height="12" x="100" y="124" transform="rotate(0,106,130)"/><rect width="12" height="12" x="100" y="148" transform="rotate(0,106,154)"/><rect width="12" height="12" x="100" y="172" transform="rotate(0,106,178)"/><rect width="12" height="12" x="100" y="196" transform="rotate(0,106,202)"/><rect width="12" height="12" x="100" y="220" transform="rotate(0,106,226)"/><rect width="12" height="12" x="100" y="244" transform="rotate(0,106,250)"/><rect width="12" height="12" x="100" y="268" transform="rotate(0,106,274)"/><rect width="12" height="12" x="100" y="292" transform="rotate(0,106,298)"/><rect width="12" height="12" x="100" y="316" transform="rotate(0,106,322)"/><rect width="12" height="12" x="100" y="340" transform="rotate(0,106,346)"/><rect width="12" height="12" x="100" y="364" transform="rotate(0,106,370)"/><rect width="12" height="12" x="112" y="136" transform="rotate(0,118,142)"/><rect width="12" height="12" x="112" y="172" transform="rotate(0,118,178)"/><rect width="12" height="12" x="112" y="208" transform="rotate(0,118,214)"/><rect width="12" height="12" x="112" y="268" transform="rotate(0,118,274)"/><rect width="12" height="12" x="112" y="280" transform="rotate(0,118,286)"/><rect width="12" height="12" x="112" y="292" transform="rotate(0,118,298)"/><rect width="12" height="12" x="112" y="304" transform="rotate(0,118,310)"/><rect width="12" height="12" x="112" y="316" transform="rotate(0,118,322)"/><rect width="12" height="12" x="112" y="328" transform="rotate(0,118,334)"/><rect width="12" height="12" x="124" y="40" transform="rotate(0,130,46)"/><rect width="12" height="12" x="124" y="76" transform="rotate(0,130,82)"/><rect width="12" height="12" x="124" y="100" transform="rotate(0,130,106)"/><rect width="12" height="12" x="124" y="124" transform="rotate(0,130,130)"/><rect width="12" height="12" x="124" y="220" transform="rotate(0,130,226)"/><rect width="12" height="12" x="124" y="232" transform="rotate(0,130,238)"/><rect width="12" height="12" x="124" y="244" transform="rotate(0,130,250)"/><rect width="12" height="12" x="124" y="256" transform="rotate(0,130,262)"/><rect width="12" height="12" x="124" y="268" transform="rotate(0,130,274)"/><rect width="12" height="12" x="124" y="280" transform="rotate(0,130,286)"/><rect width="12" height="12" x="124" y="292" transform="rotate(0,130,298)"/><rect width="12" height="12" x="124" y="304" transform="rotate(0,130,310)"/><rect width="12" height="12" x="124" y="316" transform="rotate(0,130,322)"/><rect width="12" height="12" x="124" y="328" transform="rotate(0,130,334)"/><rect width="12" height="12" x="124" y="352" transform="rotate(0,130,358)"/><rect width="12" height="12" x="124" y="376" transform="rotate(0,130,382)"/><rect width="12" height="12" x="124" y="400" transform="rotate(0,130,406)"/><rect width="12" height="12" x="124" y="412" transform="rotate(0,130,418)"/><rect width="12" height="12" x="124" y="436" transform="rotate(0,130,442)"/><rect width="12" height="12" x="136" y="28" transform="rotate(0,142,34)"/><rect width="12" height="12" x="136" y="52" transform="rotate(0,142,58)"/><rect width="12" height="12" x="136" y="64" transform="rotate(0,142,70)"/><rect width="12" height="12" x="136" y="124" transform="rotate(0,142,130)"/><rect width="12" height="12" x="136" y="136" transform="rotate(0,142,142)"/><rect width="12" height="12" x="136" y="160" transform="rotate(0,142,166)"/><rect width="12" height="12" x="136" y="184" transform="rotate(0,142,190)"/><rect width="12" height="12" x="136" y="196" transform="rotate(0,142,202)"/><rect width="12" height="12" x="136" y="208" transform="rotate(0,142,214)"/><rect width="12" height="12" x="136" y="244" transform="rotate(0,142,250)"/><rect width="12" height="12" x="136" y="256" transform="rotate(0,142,262)"/><rect width="12" height="12" x="136" y="268" transform="rotate(0,142,274)"/><rect width="12" height="12" x="136" y="280" transform="rotate(0,142,286)"/><rect width="12" height="12" x="136" y="304" transform="rotate(0,142,310)"/><rect width="12" height="12" x="136" y="340" transform="rotate(0,142,346)"/><rect width="12" height="12" x="136" y="376" transform="rotate(0,142,382)"/><rect width="12" height="12" x="136" y="412" transform="rotate(0,142,418)"/><rect width="12" height="12" x="136" y="424" transform="rotate(0,142,430)"/><rect width="12" height="12" x="136" y="436" transform="rotate(0,142,442)"/><rect width="12" height="12" x="148" y="28" transform="rotate(0,154,34)"/><rect width="12" height="12" x="148" y="52" transform="rotate(0,154,58)"/><rect width="12" height="12" x="148" y="76" transform="rotate(0,154,82)"/><rect width="12" height="12" x="148" y="88" transform="rotate(0,154,94)"/><rect width="12" height="12" x="148" y="100" transform="rotate(0,154,106)"/><rect width="12" height="12" x="148" y="136" transform="rotate(0,154,142)"/><rect width="12" height="12" x="148" y="160" transform="rotate(0,154,166)"/><rect width="12" height="12" x="148" y="172" transform="rotate(0,154,178)"/><rect width="12" height="12" x="148" y="184" transform="rotate(0,154,190)"/><rect width="12" height="12" x="148" y="196" transform="rotate(0,154,202)"/><rect width="12" height="12" x="148" y="220" transform="rotate(0,154,226)"/><rect width="12" height="12" x="148" y="268" transform="rotate(0,154,274)"/><rect width="12" height="12" x="148" y="292" transform="rotate(0,154,298)"/><rect width="12" height="12" x="148" y="304" transform="rotate(0,154,310)"/><rect width="12" height="12" x="148" y="316" transform="rotate(0,154,322)"/><rect width="12" height="12" x="148" y="328" transform="rotate(0,154,334)"/><rect width="12" height="12" x="148" y="340" transform="rotate(0,154,346)"/><rect width="12" height="12" x="148" y="352" transform="rotate(0,154,358)"/><rect width="12" height="12" x="148" y="364" transform="rotate(0,154,370)"/><rect width="12" height="12" x="148" y="376" transform="rotate(0,154,382)"/><rect width="12" height="12" x="148" y="436" transform="rotate(0,154,442)"/><rect width="12" height="12" x="160" y="40" transform="rotate(0,166,46)"/><rect width="12" height="12" x="160" y="52" transform="rotate(0,166,58)"/><rect width="12" height="12" x="160" y="64" transform="rotate(0,166,70)"/><rect width="12" height="12" x="160" y="124" transform="rotate(0,166,130)"/><rect width="12" height="12" x="160" y="136" transform="rotate(0,166,142)"/><rect width="12" height="12" x="160" y="148" transform="rotate(0,166,154)"/><rect width="12" height="12" x="160" y="160" transform="rotate(0,166,166)"/><rect width="12" height="12" x="160" y="172" transform="rotate(0,166,178)"/><rect width="12" height="12" x="160" y="220" transform="rotate(0,166,226)"/><rect width="12" height="12" x="160" y="232" transform="rotate(0,166,238)"/><rect width="12" height="12" x="160" y="280" transform="rotate(0,166,286)"/><rect width="12" height="12" x="160" y="340" transform="rotate(0,166,346)"/><rect width="12" height="12" x="160" y="352" transform="rotate(0,166,358)"/><rect width="12" height="12" x="160" y="376" transform="rotate(0,166,382)"/><rect width="12" height="12" x="160" y="412" transform="rotate(0,166,418)"/><rect width="12" height="12" x="160" y="424" transform="rotate(0,166,430)"/><rect width="12" height="12" x="160" y="436" transform="rotate(0,166,442)"/><rect width="12" height="12" x="160" y="460" transform="rotate(0,166,466)"/><rect width="12" height="12" x="172" y="28" transform="rotate(0,178,34)"/><rect width="12" height="12" x="172" y="64" transform="rotate(0,178,70)"/><rect width="12" height="12" x="172" y="88" transform="rotate(0,178,94)"/><rect width="12" height="12" x="172" y="100" transform="rotate(0,178,106)"/><rect width="12" height="12" x="172" y="124" transform="rotate(0,178,130)"/><rect width="12" height="12" x="172" y="148" transform="rotate(0,178,154)"/><rect width="12" height="12" x="172" y="160" transform="rotate(0,178,166)"/><rect width="12" height="12" x="172" y="184" transform="rotate(0,178,190)"/><rect width="12" height="12" x="172" y="196" transform="rotate(0,178,202)"/><rect width="12" height="12" x="172" y="208" transform="rotate(0,178,214)"/><rect width="12" height="12" x="172" y="220" transform="rotate(0,178,226)"/><rect width="12" height="12" x="172" y="244" transform="rotate(0,178,250)"/><rect width="12" height="12" x="172" y="280" transform="rotate(0,178,286)"/><rect width="12" height="12" x="172" y="292" transform="rotate(0,178,298)"/><rect width="12" height="12" x="172" y="316" transform="rotate(0,178,322)"/><rect width="12" height="12" x="172" y="352" transform="rotate(0,178,358)"/><rect width="12" height="12" x="172" y="364" transform="rotate(0,178,370)"/><rect width="12" height="12" x="172" y="376" transform="rotate(0,178,382)"/><rect width="12" height="12" x="172" y="388" transform="rotate(0,178,394)"/><rect width="12" height="12" x="172" y="400" transform="rotate(0,178,406)"/><rect width="12" height="12" x="172" y="424" transform="rotate(0,178,430)"/><rect width="12" height="12" x="172" y="436" transform="rotate(0,178,442)"/><rect width="12" height="12" x="172" y="460" transform="rotate(0,178,466)"/><rect width="12" height="12" x="184" y="52" transform="rotate(0,190,58)"/><rect width="12" height="12" x="184" y="64" transform="rotate(0,190,70)"/><rect width="12" height="12" x="184" y="88" transform="rotate(0,190,94)"/><rect width="12" height="12" x="184" y="148" transform="rotate(0,190,154)"/><rect width="12" height="12" x="184" y="220" transform="rotate(0,190,226)"/><rect width="12" height="12" x="184" y="232" transform="rotate(0,190,238)"/><rect width="12" height="12" x="184" y="244" transform="rotate(0,190,250)"/><rect width="12" height="12" x="184" y="256" transform="rotate(0,190,262)"/><rect width="12" height="12" x="184" y="268" transform="rotate(0,190,274)"/><rect width="12" height="12" x="184" y="292" transform="rotate(0,190,298)"/><rect width="12" height="12" x="184" y="304" transform="rotate(0,190,310)"/><rect width="12" height="12" x="184" y="340" transform="rotate(0,190,346)"/><rect width="12" height="12" x="184" y="352" transform="rotate(0,190,358)"/><rect width="12" height="12" x="184" y="364" transform="rotate(0,190,370)"/><rect width="12" height="12" x="184" y="376" transform="rotate(0,190,382)"/><rect width="12" height="12" x="184" y="400" transform="rotate(0,190,406)"/><rect width="12" height="12" x="184" y="412" transform="rotate(0,190,418)"/><rect width="12" height="12" x="184" y="436" transform="rotate(0,190,442)"/><rect width="12" height="12" x="196" y="28" transform="rotate(0,202,34)"/><rect width="12" height="12" x="196" y="40" transform="rotate(0,202,46)"/><rect width="12" height="12" x="196" y="52" transform="rotate(0,202,58)"/><rect width="12" height="12" x="196" y="64" transform="rotate(0,202,70)"/><rect width="12" height="12" x="196" y="76" transform="rotate(0,202,82)"/><rect width="12" height="12" x="196" y="100" transform="rotate(0,202,106)"/><rect width="12" height="12" x="196" y="136" transform="rotate(0,202,142)"/><rect width="12" height="12" x="196" y="148" transform="rotate(0,202,154)"/><rect width="12" height="12" x="196" y="172" transform="rotate(0,202,178)"/><rect width="12" height="12" x="196" y="184" transform="rotate(0,202,190)"/><rect width="12" height="12" x="196" y="220" transform="rotate(0,202,226)"/><rect width="12" height="12" x="196" y="232" transform="rotate(0,202,238)"/><rect width="12" height="12" x="196" y="268" transform="rotate(0,202,274)"/><rect width="12" height="12" x="196" y="280" transform="rotate(0,202,286)"/><rect width="12" height="12" x="196" y="292" transform="rotate(0,202,298)"/><rect width="12" height="12" x="196" y="304" transform="rotate(0,202,310)"/><rect width="12" height="12" x="196" y="328" transform="rotate(0,202,334)"/><rect width="12" height="12" x="196" y="340" transform="rotate(0,202,346)"/><rect width="12" height="12" x="196" y="352" transform="rotate(0,202,358)"/><rect width="12" height="12" x="196" y="364" transform="rotate(0,202,370)"/><rect width="12" height="12" x="196" y="388" transform="rotate(0,202,394)"/><rect width="12" height="12" x="196" y="400" transform="rotate(0,202,406)"/><rect width="12" height="12" x="196" y="424" transform="rotate(0,202,430)"/><rect width="12" height="12" x="196" y="436" transform="rotate(0,202,442)"/><rect width="12" height="12" x="208" y="28" transform="rotate(0,214,34)"/><rect width="12" height="12" x="208" y="52" transform="rotate(0,214,58)"/><rect width="12" height="12" x="208" y="88" transform="rotate(0,214,94)"/><rect width="12" height="12" x="208" y="112" transform="rotate(0,214,118)"/><rect width="12" height="12" x="208" y="124" transform="rotate(0,214,130)"/><rect width="12" height="12" x="208" y="136" transform="rotate(0,214,142)"/><rect width="12" height="12" x="208" y="148" transform="rotate(0,214,154)"/><rect width="12" height="12" x="208" y="184" transform="rotate(0,214,190)"/><rect width="12" height="12" x="208" y="196" transform="rotate(0,214,202)"/><rect width="12" height="12" x="208" y="244" transform="rotate(0,214,250)"/><rect width="12" height="12" x="208" y="256" transform="rotate(0,214,262)"/><rect width="12" height="12" x="208" y="280" transform="rotate(0,214,286)"/><rect width="12" height="12" x="208" y="316" transform="rotate(0,214,322)"/><rect width="12" height="12" x="208" y="340" transform="rotate(0,214,346)"/><rect width="12" height="12" x="208" y="352" transform="rotate(0,214,358)"/><rect width="12" height="12" x="208" y="364" transform="rotate(0,214,370)"/><rect width="12" height="12" x="208" y="388" transform="rotate(0,214,394)"/><rect width="12" height="12" x="208" y="400" transform="rotate(0,214,406)"/><rect width="12" height="12" x="208" y="436" transform="rotate(0,214,442)"/><rect width="12" height="12" x="208" y="448" transform="rotate(0,214,454)"/><rect width="12" height="12" x="208" y="460" transform="rotate(0,214,466)"/><rect width="12" height="12" x="220" y="40" transform="rotate(0,226,46)"/><rect width="12" height="12" x="220" y="88" transform="rotate(0,226,94)"/><rect width="12" height="12" x="220" y="100" transform="rotate(0,226,106)"/><rect width="12" height="12" x="220" y="124" transform="rotate(0,226,130)"/><rect width="12" height="12" x="220" y="136" transform="rotate(0,226,142)"/><rect width="12" height="12" x="220" y="148" transform="rotate(0,226,154)"/><rect width="12" height="12" x="220" y="172" transform="rotate(0,226,178)"/><rect width="12" height="12" x="220" y="184" transform="rotate(0,226,190)"/><rect width="12" height="12" x="220" y="196" transform="rotate(0,226,202)"/><rect width="12" height="12" x="220" y="220" transform="rotate(0,226,226)"/><rect width="12" height="12" x="220" y="232" transform="rotate(0,226,238)"/><rect width="12" height="12" x="220" y="244" transform="rotate(0,226,250)"/><rect width="12" height="12" x="220" y="304" transform="rotate(0,226,310)"/><rect width="12" height="12" x="220" y="376" transform="rotate(0,226,382)"/><rect width="12" height="12" x="220" y="388" transform="rotate(0,226,394)"/><rect width="12" height="12" x="220" y="400" transform="rotate(0,226,406)"/><rect width="12" height="12" x="220" y="424" transform="rotate(0,226,430)"/><rect width="12" height="12" x="220" y="436" transform="rotate(0,226,442)"/><rect width="12" height="12" x="220" y="448" transform="rotate(0,226,454)"/><rect width="12" height="12" x="232" y="28" transform="rotate(0,238,34)"/><rect width="12" height="12" x="232" y="40" transform="rotate(0,238,46)"/><rect width="12" height="12" x="232" y="64" transform="rotate(0,238,70)"/><rect width="12" height="12" x="232" y="88" transform="rotate(0,238,94)"/><rect width="12" height="12" x="232" y="184" transform="rotate(0,238,190)"/><rect width="12" height="12" x="232" y="220" transform="rotate(0,238,226)"/><rect width="12" height="12" x="232" y="232" transform="rotate(0,238,238)"/><rect width="12" height="12" x="232" y="292" transform="rotate(0,238,298)"/><rect width="12" height="12" x="232" y="316" transform="rotate(0,238,322)"/><rect width="12" height="12" x="232" y="340" transform="rotate(0,238,346)"/><rect width="12" height="12" x="232" y="352" transform="rotate(0,238,358)"/><rect width="12" height="12" x="232" y="364" transform="rotate(0,238,370)"/><rect width="12" height="12" x="232" y="412" transform="rotate(0,238,418)"/><rect width="12" height="12" x="232" y="424" transform="rotate(0,238,430)"/><rect width="12" height="12" x="244" y="40" transform="rotate(0,250,46)"/><rect width="12" height="12" x="244" y="76" transform="rotate(0,250,82)"/><rect width="12" height="12" x="244" y="88" transform="rotate(0,250,94)"/><rect width="12" height="12" x="244" y="100" transform="rotate(0,250,106)"/><rect width="12" height="12" x="244" y="112" transform="rotate(0,250,118)"/><rect width="12" height="12" x="244" y="124" transform="rotate(0,250,130)"/><rect width="12" height="12" x="244" y="172" transform="rotate(0,250,178)"/><rect width="12" height="12" x="244" y="184" transform="rotate(0,250,190)"/><rect width="12" height="12" x="244" y="196" transform="rotate(0,250,202)"/><rect width="12" height="12" x="244" y="208" transform="rotate(0,250,214)"/><rect width="12" height="12" x="244" y="220" transform="rotate(0,250,226)"/><rect width="12" height="12" x="244" y="232" transform="rotate(0,250,238)"/><rect width="12" height="12" x="244" y="244" transform="rotate(0,250,250)"/><rect width="12" height="12" x="244" y="256" transform="rotate(0,250,262)"/><rect width="12" height="12" x="244" y="304" transform="rotate(0,250,310)"/><rect width="12" height="12" x="244" y="316" transform="rotate(0,250,322)"/><rect width="12" height="12" x="244" y="328" transform="rotate(0,250,334)"/><rect width="12" height="12" x="244" y="340" transform="rotate(0,250,346)"/><rect width="12" height="12" x="244" y="352" transform="rotate(0,250,358)"/><rect width="12" height="12" x="244" y="364" transform="rotate(0,250,370)"/><rect width="12" height="12" x="244" y="388" transform="rotate(0,250,394)"/><rect width="12" height="12" x="256" y="64" transform="rotate(0,262,70)"/><rect width="12" height="12" x="256" y="124" transform="rotate(0,262,130)"/><rect width="12" height="12" x="256" y="136" transform="rotate(0,262,142)"/><rect width="12" height="12" x="256" y="148" transform="rotate(0,262,154)"/><rect width="12" height="12" x="256" y="160" transform="rotate(0,262,166)"/><rect width="12" height="12" x="256" y="172" transform="rotate(0,262,178)"/><rect width="12" height="12" x="256" y="256" transform="rotate(0,262,262)"/><rect width="12" height="12" x="256" y="280" transform="rotate(0,262,286)"/><rect width="12" height="12" x="256" y="304" transform="rotate(0,262,310)"/><rect width="12" height="12" x="256" y="340" transform="rotate(0,262,346)"/><rect width="12" height="12" x="256" y="388" transform="rotate(0,262,394)"/><rect width="12" height="12" x="256" y="412" transform="rotate(0,262,418)"/><rect width="12" height="12" x="256" y="436" transform="rotate(0,262,442)"/><rect width="12" height="12" x="256" y="448" transform="rotate(0,262,454)"/><rect width="12" height="12" x="268" y="40" transform="rotate(0,274,46)"/><rect width="12" height="12" x="268" y="64" transform="rotate(0,274,70)"/><rect width="12" height="12" x="268" y="76" transform="rotate(0,274,82)"/><rect width="12" height="12" x="268" y="88" transform="rotate(0,274,94)"/><rect width="12" height="12" x="268" y="100" transform="rotate(0,274,106)"/><rect width="12" height="12" x="268" y="112" transform="rotate(0,274,118)"/><rect width="12" height="12" x="268" y="124" transform="rotate(0,274,130)"/><rect width="12" height="12" x="268" y="148" transform="rotate(0,274,154)"/><rect width="12" height="12" x="268" y="172" transform="rotate(0,274,178)"/><rect width="12" height="12" x="268" y="184" transform="rotate(0,274,190)"/><rect width="12" height="12" x="268" y="208" transform="rotate(0,274,214)"/><rect width="12" height="12" x="268" y="256" transform="rotate(0,274,262)"/><rect width="12" height="12" x="268" y="280" transform="rotate(0,274,286)"/><rect width="12" height="12" x="268" y="292" transform="rotate(0,274,298)"/><rect width="12" height="12" x="268" y="316" transform="rotate(0,274,322)"/><rect width="12" height="12" x="268" y="352" transform="rotate(0,274,358)"/><rect width="12" height="12" x="268" y="376" transform="rotate(0,274,382)"/><rect width="12" height="12" x="268" y="388" transform="rotate(0,274,394)"/><rect width="12" height="12" x="268" y="436" transform="rotate(0,274,442)"/><rect width="12" height="12" x="268" y="448" transform="rotate(0,274,454)"/><rect width="12" height="12" x="268" y="460" transform="rotate(0,274,466)"/><rect width="12" height="12" x="280" y="28" transform="rotate(0,286,34)"/><rect width="12" height="12" x="280" y="52" transform="rotate(0,286,58)"/><rect width="12" height="12" x="280" y="112" transform="rotate(0,286,118)"/><rect width="12" height="12" x="280" y="136" transform="rotate(0,286,142)"/><rect width="12" height="12" x="280" y="148" transform="rotate(0,286,154)"/><rect width="12" height="12" x="280" y="220" transform="rotate(0,286,226)"/><rect width="12" height="12" x="280" y="232" transform="rotate(0,286,238)"/><rect width="12" height="12" x="280" y="256" transform="rotate(0,286,262)"/><rect width="12" height="12" x="280" y="280" transform="rotate(0,286,286)"/><rect width="12" height="12" x="280" y="304" transform="rotate(0,286,310)"/><rect width="12" height="12" x="280" y="328" transform="rotate(0,286,334)"/><rect width="12" height="12" x="280" y="352" transform="rotate(0,286,358)"/><rect width="12" height="12" x="280" y="412" transform="rotate(0,286,418)"/><rect width="12" height="12" x="292" y="28" transform="rotate(0,298,34)"/><rect width="12" height="12" x="292" y="52" transform="rotate(0,298,58)"/><rect width="12" height="12" x="292" y="64" transform="rotate(0,298,70)"/><rect width="12" height="12" x="292" y="76" transform="rotate(0,298,82)"/><rect width="12" height="12" x="292" y="88" transform="rotate(0,298,94)"/><rect width="12" height="12" x="292" y="100" transform="rotate(0,298,106)"/><rect width="12" height="12" x="292" y="112" transform="rotate(0,298,118)"/><rect width="12" height="12" x="292" y="148" transform="rotate(0,298,154)"/><rect width="12" height="12" x="292" y="160" transform="rotate(0,298,166)"/><rect width="12" height="12" x="292" y="196" transform="rotate(0,298,202)"/><rect width="12" height="12" x="292" y="208" transform="rotate(0,298,214)"/><rect width="12" height="12" x="292" y="244" transform="rotate(0,298,250)"/><rect width="12" height="12" x="292" y="268" transform="rotate(0,298,274)"/><rect width="12" height="12" x="292" y="304" transform="rotate(0,298,310)"/><rect width="12" height="12" x="292" y="316" transform="rotate(0,298,322)"/><rect width="12" height="12" x="292" y="352" transform="rotate(0,298,358)"/><rect width="12" height="12" x="292" y="364" transform="rotate(0,298,370)"/><rect width="12" height="12" x="292" y="436" transform="rotate(0,298,442)"/><rect width="12" height="12" x="304" y="52" transform="rotate(0,310,58)"/><rect width="12" height="12" x="304" y="124" transform="rotate(0,310,130)"/><rect width="12" height="12" x="304" y="136" transform="rotate(0,310,142)"/><rect width="12" height="12" x="304" y="148" transform="rotate(0,310,154)"/><rect width="12" height="12" x="304" y="172" transform="rotate(0,310,178)"/><rect width="12" height="12" x="304" y="184" transform="rotate(0,310,190)"/><rect width="12" height="12" x="304" y="208" transform="rotate(0,310,214)"/><rect width="12" height="12" x="304" y="256" transform="rotate(0,310,262)"/><rect width="12" height="12" x="304" y="280" transform="rotate(0,310,286)"/><rect width="12" height="12" x="304" y="304" transform="rotate(0,310,310)"/><rect width="12" height="12" x="304" y="340" transform="rotate(0,310,346)"/><rect width="12" height="12" x="304" y="364" transform="rotate(0,310,370)"/><rect width="12" height="12" x="304" y="376" transform="rotate(0,310,382)"/><rect width="12" height="12" x="304" y="400" transform="rotate(0,310,406)"/><rect width="12" height="12" x="304" y="436" transform="rotate(0,310,442)"/><rect width="12" height="12" x="304" y="460" transform="rotate(0,310,466)"/><rect width="12" height="12" x="316" y="76" transform="rotate(0,322,82)"/><rect width="12" height="12" x="316" y="88" transform="rotate(0,322,94)"/><rect width="12" height="12" x="316" y="100" transform="rotate(0,322,106)"/><rect width="12" height="12" x="316" y="112" transform="rotate(0,322,118)"/><rect width="12" height="12" x="316" y="136" transform="rotate(0,322,142)"/><rect width="12" height="12" x="316" y="148" transform="rotate(0,322,154)"/><rect width="12" height="12" x="316" y="160" transform="rotate(0,322,166)"/><rect width="12" height="12" x="316" y="184" transform="rotate(0,322,190)"/><rect width="12" height="12" x="316" y="232" transform="rotate(0,322,238)"/><rect width="12" height="12" x="316" y="256" transform="rotate(0,322,262)"/><rect width="12" height="12" x="316" y="280" transform="rotate(0,322,286)"/><rect width="12" height="12" x="316" y="292" transform="rotate(0,322,298)"/><rect width="12" height="12" x="316" y="328" transform="rotate(0,322,334)"/><rect width="12" height="12" x="316" y="340" transform="rotate(0,322,346)"/><rect width="12" height="12" x="316" y="352" transform="rotate(0,322,358)"/><rect width="12" height="12" x="316" y="376" transform="rotate(0,322,382)"/><rect width="12" height="12" x="316" y="388" transform="rotate(0,322,394)"/><rect width="12" height="12" x="316" y="400" transform="rotate(0,322,406)"/><rect width="12" height="12" x="316" y="424" transform="rotate(0,322,430)"/><rect width="12" height="12" x="316" y="436" transform="rotate(0,322,442)"/><rect width="12" height="12" x="316" y="448" transform="rotate(0,322,454)"/><rect width="12" height="12" x="328" y="28" transform="rotate(0,334,34)"/><rect width="12" height="12" x="328" y="40" transform="rotate(0,334,46)"/><rect width="12" height="12" x="328" y="64" transform="rotate(0,334,70)"/><rect width="12" height="12" x="328" y="112" transform="rotate(0,334,118)"/><rect width="12" height="12" x="328" y="148" transform="rotate(0,334,154)"/><rect width="12" height="12" x="328" y="184" transform="rotate(0,334,190)"/><rect width="12" height="12" x="328" y="196" transform="rotate(0,334,202)"/><rect width="12" height="12" x="328" y="244" transform="rotate(0,334,250)"/><rect width="12" height="12" x="328" y="292" transform="rotate(0,334,298)"/><rect width="12" height="12" x="328" y="304" transform="rotate(0,334,310)"/><rect width="12" height="12" x="328" y="328" transform="rotate(0,334,334)"/><rect width="12" height="12" x="328" y="352" transform="rotate(0,334,358)"/><rect width="12" height="12" x="328" y="364" transform="rotate(0,334,370)"/><rect width="12" height="12" x="328" y="412" transform="rotate(0,334,418)"/><rect width="12" height="12" x="340" y="88" transform="rotate(0,346,94)"/><rect width="12" height="12" x="340" y="100" transform="rotate(0,346,106)"/><rect width="12" height="12" x="340" y="136" transform="rotate(0,346,142)"/><rect width="12" height="12" x="340" y="148" transform="rotate(0,346,154)"/><rect width="12" height="12" x="340" y="160" transform="rotate(0,346,166)"/><rect width="12" height="12" x="340" y="172" transform="rotate(0,346,178)"/><rect width="12" height="12" x="340" y="184" transform="rotate(0,346,190)"/><rect width="12" height="12" x="340" y="196" transform="rotate(0,346,202)"/><rect width="12" height="12" x="340" y="232" transform="rotate(0,346,238)"/><rect width="12" height="12" x="340" y="244" transform="rotate(0,346,250)"/><rect width="12" height="12" x="340" y="268" transform="rotate(0,346,274)"/><rect width="12" height="12" x="340" y="292" transform="rotate(0,346,298)"/><rect width="12" height="12" x="340" y="304" transform="rotate(0,346,310)"/><rect width="12" height="12" x="340" y="316" transform="rotate(0,346,322)"/><rect width="12" height="12" x="340" y="340" transform="rotate(0,346,346)"/><rect width="12" height="12" x="340" y="352" transform="rotate(0,346,358)"/><rect width="12" height="12" x="340" y="376" transform="rotate(0,346,382)"/><rect width="12" height="12" x="340" y="412" transform="rotate(0,346,418)"/><rect width="12" height="12" x="340" y="436" transform="rotate(0,346,442)"/><rect width="12" height="12" x="352" y="52" transform="rotate(0,358,58)"/><rect width="12" height="12" x="352" y="64" transform="rotate(0,358,70)"/><rect width="12" height="12" x="352" y="76" transform="rotate(0,358,82)"/><rect width="12" height="12" x="352" y="88" transform="rotate(0,358,94)"/><rect width="12" height="12" x="352" y="112" transform="rotate(0,358,118)"/><rect width="12" height="12" x="352" y="136" transform="rotate(0,358,142)"/><rect width="12" height="12" x="352" y="148" transform="rotate(0,358,154)"/><rect width="12" height="12" x="352" y="184" transform="rotate(0,358,190)"/><rect width="12" height="12" x="352" y="244" transform="rotate(0,358,250)"/><rect width="12" height="12" x="352" y="280" transform="rotate(0,358,286)"/><rect width="12" height="12" x="352" y="292" transform="rotate(0,358,298)"/><rect width="12" height="12" x="352" y="316" transform="rotate(0,358,322)"/><rect width="12" height="12" x="352" y="340" transform="rotate(0,358,346)"/><rect width="12" height="12" x="352" y="352" transform="rotate(0,358,358)"/><rect width="12" height="12" x="352" y="388" transform="rotate(0,358,394)"/><rect width="12" height="12" x="352" y="400" transform="rotate(0,358,406)"/><rect width="12" height="12" x="352" y="412" transform="rotate(0,358,418)"/><rect width="12" height="12" x="352" y="424" transform="rotate(0,358,430)"/><rect width="12" height="12" x="352" y="436" transform="rotate(0,358,442)"/><rect width="12" height="12" x="352" y="460" transform="rotate(0,358,466)"/><rect width="12" height="12" x="364" y="28" transform="rotate(0,370,34)"/><rect width="12" height="12" x="364" y="40" transform="rotate(0,370,46)"/><rect width="12" height="12" x="364" y="52" transform="rotate(0,370,58)"/><rect width="12" height="12" x="364" y="64" transform="rotate(0,370,70)"/><rect width="12" height="12" x="364" y="100" transform="rotate(0,370,106)"/><rect width="12" height="12" x="364" y="112" transform="rotate(0,370,118)"/><rect width="12" height="12" x="364" y="124" transform="rotate(0,370,130)"/><rect width="12" height="12" x="364" y="136" transform="rotate(0,370,142)"/><rect width="12" height="12" x="364" y="172" transform="rotate(0,370,178)"/><rect width="12" height="12" x="364" y="220" transform="rotate(0,370,226)"/><rect width="12" height="12" x="364" y="232" transform="rotate(0,370,238)"/><rect width="12" height="12" x="364" y="280" transform="rotate(0,370,286)"/><rect width="12" height="12" x="364" y="292" transform="rotate(0,370,298)"/><rect width="12" height="12" x="364" y="304" transform="rotate(0,370,310)"/><rect width="12" height="12" x="364" y="316" transform="rotate(0,370,322)"/><rect width="12" height="12" x="364" y="352" transform="rotate(0,370,358)"/><rect width="12" height="12" x="364" y="364" transform="rotate(0,370,370)"/><rect width="12" height="12" x="364" y="376" transform="rotate(0,370,382)"/><rect width="12" height="12" x="364" y="388" transform="rotate(0,370,394)"/><rect width="12" height="12" x="364" y="400" transform="rotate(0,370,406)"/><rect width="12" height="12" x="364" y="412" transform="rotate(0,370,418)"/><rect width="12" height="12" x="364" y="436" transform="rotate(0,370,442)"/><rect width="12" height="12" x="364" y="448" transform="rotate(0,370,454)"/><rect width="12" height="12" x="364" y="460" transform="rotate(0,370,466)"/><rect width="12" height="12" x="376" y="124" transform="rotate(0,382,130)"/><rect width="12" height="12" x="376" y="148" transform="rotate(0,382,154)"/><rect width="12" height="12" x="376" y="160" transform="rotate(0,382,166)"/><rect width="12" height="12" x="376" y="196" transform="rotate(0,382,202)"/><rect width="12" height="12" x="376" y="220" transform="rotate(0,382,226)"/><rect width="12" height="12" x="376" y="280" transform="rotate(0,382,286)"/><rect width="12" height="12" x="376" y="304" transform="rotate(0,382,310)"/><rect width="12" height="12" x="376" y="352" transform="rotate(0,382,358)"/><rect width="12" height="12" x="376" y="364" transform="rotate(0,382,370)"/><rect width="12" height="12" x="376" y="412" transform="rotate(0,382,418)"/><rect width="12" height="12" x="376" y="424" transform="rotate(0,382,430)"/><rect width="12" height="12" x="388" y="148" transform="rotate(0,394,154)"/><rect width="12" height="12" x="388" y="160" transform="rotate(0,394,166)"/><rect width="12" height="12" x="388" y="172" transform="rotate(0,394,178)"/><rect width="12" height="12" x="388" y="220" transform="rotate(0,394,226)"/><rect width="12" height="12" x="388" y="256" transform="rotate(0,394,262)"/><rect width="12" height="12" x="388" y="304" transform="rotate(0,394,310)"/><rect width="12" height="12" x="388" y="316" transform="rotate(0,394,322)"/><rect width="12" height="12" x="388" y="340" transform="rotate(0,394,346)"/><rect width="12" height="12" x="388" y="364" transform="rotate(0,394,370)"/><rect width="12" height="12" x="388" y="388" transform="rotate(0,394,394)"/><rect width="12" height="12" x="388" y="412" transform="rotate(0,394,418)"/><rect width="12" height="12" x="388" y="424" transform="rotate(0,394,430)"/><rect width="12" height="12" x="388" y="436" transform="rotate(0,394,442)"/><rect width="12" height="12" x="400" y="136" transform="rotate(0,406,142)"/><rect width="12" height="12" x="400" y="148" transform="rotate(0,406,154)"/><rect width="12" height="12" x="400" y="172" transform="rotate(0,406,178)"/><rect width="12" height="12" x="400" y="208" transform="rotate(0,406,214)"/><rect width="12" height="12" x="400" y="220" transform="rotate(0,406,226)"/><rect width="12" height="12" x="400" y="292" transform="rotate(0,406,298)"/><rect width="12" height="12" x="400" y="304" transform="rotate(0,406,310)"/><rect width="12" height="12" x="400" y="316" transform="rotate(0,406,322)"/><rect width="12" height="12" x="400" y="340" transform="rotate(0,406,346)"/><rect width="12" height="12" x="400" y="364" transform="rotate(0,406,370)"/><rect width="12" height="12" x="400" y="412" transform="rotate(0,406,418)"/><rect width="12" height="12" x="400" y="436" transform="rotate(0,406,442)"/><rect width="12" height="12" x="412" y="124" transform="rotate(0,418,130)"/><rect width="12" height="12" x="412" y="160" transform="rotate(0,418,166)"/><rect width="12" height="12" x="412" y="184" transform="rotate(0,418,190)"/><rect width="12" height="12" x="412" y="208" transform="rotate(0,418,214)"/><rect width="12" height="12" x="412" y="220" transform="rotate(0,418,226)"/><rect width="12" height="12" x="412" y="292" transform="rotate(0,418,298)"/><rect width="12" height="12" x="412" y="316" transform="rotate(0,418,322)"/><rect width="12" height="12" x="412" y="340" transform="rotate(0,418,346)"/><rect width="12" height="12" x="412" y="364" transform="rotate(0,418,370)"/><rect width="12" height="12" x="412" y="376" transform="rotate(0,418,382)"/><rect width="12" height="12" x="412" y="388" transform="rotate(0,418,394)"/><rect width="12" height="12" x="412" y="400" transform="rotate(0,418,406)"/><rect width="12" height="12" x="412" y="412" transform="rotate(0,418,418)"/><rect width="12" height="12" x="412" y="424" transform="rotate(0,418,430)"/><rect width="12" height="12" x="412" y="436" transform="rotate(0,418,442)"/><rect width="12" height="12" x="412" y="460" transform="rotate(0,418,466)"/><rect width="12" height="12" x="424" y="136" transform="rotate(0,430,142)"/><rect width="12" height="12" x="424" y="172" transform="rotate(0,430,178)"/><rect width="12" height="12" x="424" y="184" transform="rotate(0,430,190)"/><rect width="12" height="12" x="424" y="208" transform="rotate(0,430,214)"/><rect width="12" height="12" x="424" y="232" transform="rotate(0,430,238)"/><rect width="12" height="12" x="424" y="256" transform="rotate(0,430,262)"/><rect width="12" height="12" x="424" y="268" transform="rotate(0,430,274)"/><rect width="12" height="12" x="424" y="280" transform="rotate(0,430,286)"/><rect width="12" height="12" x="424" y="328" transform="rotate(0,430,334)"/><rect width="12" height="12" x="424" y="340" transform="rotate(0,430,346)"/><rect width="12" height="12" x="424" y="352" transform="rotate(0,430,358)"/><rect width="12" height="12" x="424" y="388" transform="rotate(0,430,394)"/><rect width="12" height="12" x="424" y="400" transform="rotate(0,430,406)"/><rect width="12" height="12" x="424" y="448" transform="rotate(0,430,454)"/><rect width="12" height="12" x="436" y="136" transform="rotate(0,442,142)"/><rect width="12" height="12" x="436" y="172" transform="rotate(0,442,178)"/><rect width="12" height="12" x="436" y="196" transform="rotate(0,442,202)"/><rect width="12" height="12" x="436" y="220" transform="rotate(0,442,226)"/><rect width="12" height="12" x="436" y="268" transform="rotate(0,442,274)"/><rect width="12" height="12" x="436" y="340" transform="rotate(0,442,346)"/><rect width="12" height="12" x="436" y="352" transform="rotate(0,442,358)"/><rect width="12" height="12" x="436" y="364" transform="rotate(0,442,370)"/><rect width="12" height="12" x="436" y="388" transform="rotate(0,442,394)"/><rect width="12" height="12" x="436" y="400" transform="rotate(0,442,406)"/><rect width="12" height="12" x="436" y="448" transform="rotate(0,442,454)"/><rect width="12" height="12" x="448" y="124" transform="rotate(0,454,130)"/><rect width="12" height="12" x="448" y="136" transform="rotate(0,454,142)"/><rect width="12" height="12" x="448" y="160" transform="rotate(0,454,166)"/><rect width="12" height="12" x="448" y="172" transform="rotate(0,454,178)"/><rect width="12" height="12" x="448" y="232" transform="rotate(0,454,238)"/><rect width="12" height="12" x="448" y="244" transform="rotate(0,454,250)"/><rect width="12" height="12" x="448" y="280" transform="rotate(0,454,286)"/><rect width="12" height="12" x="448" y="316" transform="rotate(0,454,322)"/><rect width="12" height="12" x="448" y="352" transform="rotate(0,454,358)"/><rect width="12" height="12" x="448" y="376" transform="rotate(0,454,382)"/><rect width="12" height="12" x="448" y="388" transform="rotate(0,454,394)"/><rect width="12" height="12" x="448" y="400" transform="rotate(0,454,406)"/><rect width="12" height="12" x="448" y="412" transform="rotate(0,454,418)"/><rect width="12" height="12" x="448" y="436" transform="rotate(0,454,442)"/><rect width="12" height="12" x="448" y="448" transform="rotate(0,454,454)"/><rect width="12" height="12" x="460" y="148" transform="rotate(0,466,154)"/><rect width="12" height="12" x="460" y="160" transform="rotate(0,466,166)"/><rect width="12" height="12" x="460" y="184" transform="rotate(0,466,190)"/><rect width="12" height="12" x="460" y="196" transform="rotate(0,466,202)"/><rect width="12" height="12" x="460" y="232" transform="rotate(0,466,238)"/><rect width="12" height="12" x="460" y="244" transform="rotate(0,466,250)"/><rect width="12" height="12" x="460" y="256" transform="rotate(0,466,262)"/><rect width="12" height="12" x="460" y="268" transform="rotate(0,466,274)"/><rect width="12" height="12" x="460" y="280" transform="rotate(0,466,286)"/><rect width="12" height="12" x="460" y="292" transform="rotate(0,466,298)"/><rect width="12" height="12" x="460" y="304" transform="rotate(0,466,310)"/><rect width="12" height="12" x="460" y="316" transform="rotate(0,466,322)"/><rect width="12" height="12" x="460" y="376" transform="rotate(0,466,382)"/><rect width="12" height="12" x="460" y="388" transform="rotate(0,466,394)"/><rect width="12" height="12" x="460" y="400" transform="rotate(0,466,406)"/><rect width="12" height="12" x="460" y="412" transform="rotate(0,466,418)"/><rect width="12" height="12" x="460" y="436" transform="rotate(0,466,442)"/><rect width="12" height="12" x="460" y="448" transform="rotate(0,466,454)"/><rect width="12" height="12" x="460" y="460" transform="rotate(0,466,466)"/><path d="M 28 28v 84h 84v -84zM 40 40h 60v 60h -60z" clip-rule="evenodd" transform="rotate(0,70,70)"/><rect width="36" height="36" x="52" y="52" transform="rotate(0,70,70)"/><path d="M 388 28v 84h 84v -84zM 400 40h 60v 60h -60z" clip-rule="evenodd" transform="rotate(90,430,70)"/><rect width="36" height="36" x="412" y="52" transform="rotate(90,430,70)"/><path d="M 28 388v 84h 84v -84zM 40 400h 60v 60h -60z" clip-rule="evenodd" transform="rotate(-90,70,430)"/><rect width="36" height="36" x="52" y="412" transform="rotate(-90,70,430)"/></clipPath></defs><rect width="500" height="500" x="0" y="0" fill="#fff" clip-path="url('#clip-path-background-color')"/><rect width="500" height="500" x="0" y="0" fill="#000" clip-path="url('#clip-path-dot-color')"/></svg>