<svg xmlns="http://www.w3.org/2000/svg" width="500" height="500"><defs><clipPath id="clip-path-dot-color"><rect width="12" height="12" x="28" y="124" transform="rotate(0,34,130)"/><rect width="12" height="12" x="28" y="136" transform="rotate(0,34,142)"/><rect width="12" height="12" x="28" y="148" transform="rotate(0,34,154)"/><rect width="12" height="12" x="28" y="160" transform="rotate(0,34,166)"/><rect width="12" height="12" x="28" y="172" transform="rotate(0,34,178)"/><rect width="12" height="12" x="28" y="184" transform="rotate(0,34,190)"/><rect width="12" height="12" x="28" y="232" transform="rotate(0,34,238)"/><rect width="12" height="12" x="28" y="244" transform="rotate(0,34,250)"/><rect width="12" height="12" x="28" y="256" transform="rotate(0,34,262)"/><rect width="12" height="12" x="28" y="304" transform="rotate(0,34,310)"/><rect width="12" height="12" x="28" y="316" transform="rotate(0,34,322)"/><rect width="12" height="12" x="28" y="328" transform="rotate(0,34,334)"/><rect width="12" height="12" x="28" y="340" transform="rotate(0,34,346)"/><rect width="12" height="12" x="40" y="124" transform="rotate(0,46,130)"/><rect width="12" height="12" x="40" y="136" transform="rotate(0,46,142)"/><rect width="12" height="12" x="40" y="172" transform="rotate(0,46,178)"/><rect width="12" height="12" x="40" y="184" transform="rotate(0,46,190)"/><rect width="12" height="12" x="40" y="220" transform="rotate(0,46,226)"/><rect width="12" height="12" x="40" y="232" transform="rotate(0,46,238)"/><rect width="12" height="12" x="40" y="244" transform="rotate(0,46,250)"/><rect width="12" height="12" x="40" y="280" transform="rotate(0,46,286)"/><rect width="12" height="12" x="40" y="364" transform="rotate(0,46,370)"/><rect width="12" height="12" x="52" y="136" transform="rotate(0,58,142)"/><rect width="12" height="12" x="52" y="232" transform="rotate(0,58,238)"/><rect width="12" height="12" x="52" y="244" transform="rotate(0,58,250)"/><rect width="12" height="12" x="52" y="280" transform="rotate(0,58,286)"/><rect width="12" height="12" x="52" y="292" transform="rotate(0,58,298)"/><rect width="12" height="12" x="52" y="316" transform="rotate(0,58,322)"/><rect width="12" height="12" x="64" y="136" transform="rotate(0,70,142)"/><rect width="12" height="12" x="64" y="196" transform="rotate(0,70,202)"/><rect width="12" height="12" x="64" y="220" transform="rotate(0,70,226)"/><rect width="12" height="12" x="64" y="232" transform="rotate(0,70,238)"/><rect width="12" height="12" x="64" y="244" transform="rotate(0,70,250)"/><rect width="12" height="12" x="64" y="268" transform="rotate(0,70,274)"/><rect width="12" height="12" x="64" y="280" transform="rotate(0,70,286)"/><rect width="12" height="12" x="64" y="328" transform="rotate(0,70,334)"/><rect width="12" height="12" x="64" y="340" transform="rotate(0,70,346)"/><rect width="12" height="12" x="64" y="364" transform="rotate(0,70,370)"/><rect width="12" height="12" x="76" y="160" transform="rotate(0,82,166)"/><rect width="12" height="12" x="76" y="184" transform="rotate(0,82,190)"/><rect width="12" height="12" x="76" y="196" transform="rotate(0,82,202)"/><rect width="12" height="12" x="76" y="208" transform="rotate(0,82,214)"/><rect width="12" height="12" x="76" y="244" transform="rotate(0,82,250)"/><rect width="12" height="12" x="76" y="256" transform="rotate(0,82,262)"/><rect width="12" height="12" x="76" y="292" transform="rotate(0,82,298)"/><rect width="12" height="12" x="76" y="304" transform="rotate(0,82,310)"/><rect width="12" height="12" x="88" y="148" transform="rotate(0,94,154)"/><rect width="12" height="12" x="88" y="184" transform="rotate(0,94,190)"/><rect width="12" height="12" x="88" y="208" transform="rotate(0,94,214)"/><rect width="12" height="12" x="88" y="220" transform="rotate(0,94,226)"/><rect width="12" height="12" x="88" y="232" transform="rotate(0,94,238)"/><rect width="12" height="12" x="88" y="256" transform="rotate(0,94,262)"/><rect width="12" height="12" x="88" y="316" transform="rotate(0,94,322)"/><rect width="12" height="12" x="88" y="364" transform="rotate(0,94,370)"/><rect width="12" height="12" x="100" y="124" transform="rotate(0,106,130)"/><rect width="12" height="12" x="100" y="148" transform="rotate(0,106,154)"/><rect width="12" height="12" x="100" y="172" transform="rotate(0,106,178)"/><rect width="12" height="12" x="100" y="196" transform="rotate(0,106,202)"/><rect width="12" height="12" x="100" y="220" transform="rotate(0,106,226)"/><rect width="12" height="12" x="100" y="244" transform="rotate(0,106,250)"/><rect width="12" height="12" x="100" y="268" transform="rotate(0,106,274)"/><rect width="12" height="12" x="100" y="292" transform="rotate(0,106,298)"/><rect width="12" height="12" x="100" y="316" transform="rotate(0,106,322)"/><rect width="12" height="12" x="100" y="340" transform="rotate(0,106,346)"/><rect width="12" height="12" x="100" y="364" transform="rotate(0,106,370)"/><rect width="12" height="12" x="112" y="148" transform="rotate(0,118,154)"/><rect width="12" height="12" x="112" y="196" transform="rotate(0,118,202)"/><rect width="12" height="12" x="112" y="232" transform="rotate(0,118,238)"/><rect width="12" height="12" x="112" y="244" transform="rotate(0,118,250)"/><rect width="12" height="12" x="112" y="256" transform="rotate(0,118,262)"/><rect width="12" height="12" x="112" y="268" transform="rotate(0,118,274)"/><rect width="12" height="12" x="112" y="304" transform="rotate(0,118,310)"/><rect width="12" height="12" x="112" y="340" transform="rotate(0,118,346)"/><rect width="12" height="12" x="112" y="352" transform="rotate(0,118,358)"/><rect width="12" height="12" x="112" y="364" transform="rotate(0,118,370)"/><rect width="12" height="12" x="124" y="40" transform="rotate(0,130,46)"/><rect width="12" height="12" x="124" y="100" transform="rotate(0,130,106)"/><rect width="12" height="12" x="124" y="112" transform="rotate(0,130,118)"/><rect width="12" height="12" x="124" y="124" transform="rotate(0,130,130)"/><rect width="12" height="12" x="124" y="136" transform="rotate(0,130,142)"/><rect width="12" height="12" x="124" y="160" transform="rotate(0,130,166)"/><rect width="12" height="12" x="124" y="208" transform="rotate(0,130,214)"/><rect width="12" height="12" x="124" y="232" transform="rotate(0,130,238)"/><rect width="12" height="12" x="124" y="244" transform="rotate(0,130,250)"/><rect width="12" height="12" x="124" y="256" transform="rotate(0,130,262)"/><rect width="12" height="12" x="124" y="292" transform="rotate(0,130,298)"/><rect width="12" height="12" x="124" y="304" transform="rotate(0,130,310)"/><rect width="12" height="12" x="124" y="316" transform="rotate(0,130,322)"/><rect width="12" height="12" x="124" y="376" transform="rotate(0,130,382)"/><rect width="12" height="12" x="124" y="448" transform="rotate(0,130,454)"/><rect width="12" height="12" x="124" y="460" transform="rotate(0,130,466)"/><rect width="12" height="12" x="136" y="28" transform="rotate(0,142,34)"/><rect width="12" height="12" x="136" y="40" transform="rotate(0,142,46)"/><rect width="12" height="12" x="136" y="52" transform="rotate(0,142,58)"/><rect width="12" height="12" x="136" y="64" transform="rotate(0,142,70)"/><rect width="12" height="12" x="136" y="76" transform="rotate(0,142,82)"/><rect width="12" height="12" x="136" y="112" transform="rotate(0,142,118)"/><rect width="12" height="12" x="136" y="124" transform="rotate(0,142,130)"/><rect width="12" height="12" x="136" y="148" transform="rotate(0,142,154)"/><rect width="12" height="12" x="136" y="160" transform="rotate(0,142,166)"/><rect width="12" height="12" x="136" y="196" transform="rotate(0,142,202)"/><rect width="12" height="12" x="136" y="208" transform="rotate(0,142,214)"/><rect width="12" height="12" x="136" y="244" transform="rotate(0,142,250)"/><rect width="12" height="12" x="136" y="268" transform="rotate(0,142,274)"/><rect width="12" height="12" x="136" y="292" transform="rotate(0,142,298)"/><rect width="12" height="12" x="136" y="304" transform="rotate(0,142,310)"/><rect width="12" height="12" x="136" y="328" transform="rotate(0,142,334)"/><rect width="12" height="12" x="136" y="388" transform="rotate(0,142,394)"/><rect width="12" height="12" x="136" y="412" transform="rotate(0,142,418)"/><rect width="12" height="12" x="148" y="64" transform="rotate(0,154,70)"/><rect width="12" height="12" x="148" y="100" transform="rotate(0,154,106)"/><rect width="12" height="12" x="148" y="196" transform="rotate(0,154,202)"/><rect width="12" height="12" x="148" y="244" transform="rotate(0,154,250)"/><rect width="12" height="12" x="148" y="268" transform="rotate(0,154,274)"/><rect width="12" height="12" x="148" y="280" transform="rotate(0,154,286)"/><rect width="12" height="12" x="148" y="292" transform="rotate(0,154,298)"/><rect width="12" height="12" x="148" y="328" transform="rotate(0,154,334)"/><rect width="12" height="12" x="148" y="340" transform="rotate(0,154,346)"/><rect width="12" height="12" x="148" y="388" transform="rotate(0,154,394)"/><rect width="12" height="12" x="148" y="424" transform="rotate(0,154,430)"/><rect width="12" height="12" x="148" y="448" transform="rotate(0,154,454)"/><rect width="12" height="12" x="148" y="460" transform="rotate(0,154,466)"/><rect width="12" height="12" x="160" y="76" transform="rotate(0,166,82)"/><rect width="12" height="12" x="160" y="124" transform="rotate(0,166,130)"/><rect width="12" height="12" x="160" y="196" transform="rotate(0,166,202)"/><rect width="12" height="12" x="160" y="208" transform="rotate(0,166,214)"/><rect width="12" height="12" x="160" y="232" transform="rotate(0,166,238)"/><rect width="12" height="12" x="160" y="292" transform="rotate(0,166,298)"/><rect width="12" height="12" x="160" y="304" transform="rotate(0,166,310)"/><rect width="12" height="12" x="160" y="316" transform="rotate(0,166,322)"/><rect width="12" height="12" x="160" y="340" transform="rotate(0,166,346)"/><rect width="12" height="12" x="160" y="352" transform="rotate(0,166,358)"/><rect width="12" height="12" x="160" y="364" transform="rotate(0,166,370)"/><rect width="12" height="12" x="160" y="388" transform="rotate(0,166,394)"/><rect width="12" height="12" x="160" y="400" transform="rotate(0,166,406)"/><rect width="12" height="12" x="160" y="412" transform="rotate(0,166,418)"/><rect width="12" height="12" x="160" y="424" transform="rotate(0,166,430)"/><rect width="12" height="12" x="160" y="448" transform="rotate(0,166,454)"/><rect width="12" height="12" x="172" y="40" transform="rotate(0,178,46)"/><rect width="12" height="12" x="172" y="52" transform="rotate(0,178,58)"/><rect width="12" height="12" x="172" y="88" transform="rotate(0,178,94)"/><rect width="12" height="12" x="172" y="100" transform="rotate(0,178,106)"/><rect width="12" height="12" x="172" y="136" transform="rotate(0,178,142)"/><rect width="12" height="12" x="172" y="148" transform="rotate(0,178,154)"/><rect width="12" height="12" x="172" y="172" transform="rotate(0,178,178)"/><rect width="12" height="12" x="172" y="196" transform="rotate(0,178,202)"/><rect width="12" height="12" x="172" y="220" transform="rotate(0,178,226)"/><rect width="12" height="12" x="172" y="244" transform="rotate(0,178,250)"/><rect width="12" height="12" x="172" y="304" transform="rotate(0,178,310)"/><rect width="12" height="12" x="172" y="316" transform="rotate(0,178,322)"/><rect width="12" height="12" x="172" y="388" transform="rotate(0,178,394)"/><rect width="12" height="12" x="172" y="400" transform="rotate(0,178,406)"/><rect width="12" height="12" x="172" y="448" transform="rotate(0,178,454)"/><rect width="12" height="12" x="172" y="460" transform="rotate(0,178,466)"/><rect width="12" height="12" x="184" y="52" transform="rotate(0,190,58)"/><rect width="12" height="12" x="184" y="76" transform="rotate(0,190,82)"/><rect width="12" height="12" x="184" y="124" transform="rotate(0,190,130)"/><rect width="12" height="12" x="184" y="136" transform="rotate(0,190,142)"/><rect width="12" height="12" x="184" y="160" transform="rotate(0,190,166)"/><rect width="12" height="12" x="184" y="184" transform="rotate(0,190,190)"/><rect width="12" height="12" x="184" y="208" transform="rotate(0,190,214)"/><rect width="12" height="12" x="184" y="244" transform="rotate(0,190,250)"/><rect width="12" height="12" x="184" y="268" transform="rotate(0,190,274)"/><rect width="12" height="12" x="184" y="280" transform="rotate(0,190,286)"/><rect width="12" height="12" x="184" y="304" transform="rotate(0,190,310)"/><rect width="12" height="12" x="184" y="328" transform="rotate(0,190,334)"/><rect width="12" height="12" x="184" y="352" transform="rotate(0,190,358)"/><rect width="12" height="12" x="184" y="364" transform="rotate(0,190,370)"/><rect width="12" height="12" x="184" y="376" transform="rotate(0,190,382)"/><rect width="12" height="12" x="184" y="436" transform="rotate(0,190,442)"/><rect width="12" height="12" x="196" y="40" transform="rotate(0,202,46)"/><rect width="12" height="12" x="196" y="52" transform="rotate(0,202,58)"/><rect width="12" height="12" x="196" y="64" transform="rotate(0,202,70)"/><rect width="12" height="12" x="196" y="88" transform="rotate(0,202,94)"/><rect width="12" height="12" x="196" y="100" transform="rotate(0,202,106)"/><rect width="12" height="12" x="196" y="112" transform="rotate(0,202,118)"/><rect width="12" height="12" x="196" y="124" transform="rotate(0,202,130)"/><rect width="12" height="12" x="196" y="148" transform="rotate(0,202,154)"/><rect width="12" height="12" x="196" y="160" transform="rotate(0,202,166)"/><rect width="12" height="12" x="196" y="184" transform="rotate(0,202,190)"/><rect width="12" height="12" x="196" y="220" transform="rotate(0,202,226)"/><rect width="12" height="12" x="196" y="256" transform="rotate(0,202,262)"/><rect width="12" height="12" x="196" y="268" transform="rotate(0,202,274)"/><rect width="12" height="12" x="196" y="292" transform="rotate(0,202,298)"/><rect width="12" height="12" x="196" y="316" transform="rotate(0,202,322)"/><rect width="12" height="12" x="196" y="328" transform="rotate(0,202,334)"/><rect width="12" height="12" x="196" y="340" transform="rotate(0,202,346)"/><rect width="12" height="12" x="196" y="352" transform="rotate(0,202,358)"/><rect width="12" height="12" x="196" y="376" transform="rotate(0,202,382)"/><rect width="12" height="12" x="196" y="400" transform="rotate(0,202,406)"/><rect width="12" height="12" x="196" y="424" transform="rotate(0,202,430)"/><rect width="12" height="12" x="196" y="448" transform="rotate(0,202,454)"/><rect width="12" height="12" x="196" y="460" transform="rotate(0,202,466)"/><rect width="12" height="12" x="208" y="52" transform="rotate(0,214,58)"/><rect width="12" height="12" x="208" y="76" transform="rotate(0,214,82)"/><rect width="12" height="12" x="208" y="136" transform="rotate(0,214,142)"/><rect width="12" height="12" x="208" y="148" transform="rotate(0,214,154)"/><rect width="12" height="12" x="208" y="184" transform="rotate(0,214,190)"/><rect width="12" height="12" x="208" y="244" transform="rotate(0,214,250)"/><rect width="12" height="12" x="208" y="256" transform="rotate(0,214,262)"/><rect width="12" height="12" x="208" y="280" transform="rotate(0,214,286)"/><rect width="12" height="12" x="208" y="292" transform="rotate(0,214,298)"/><rect width="12" height="12" x="208" y="304" transform="rotate(0,214,310)"/><rect width="12" height="12" x="208" y="364" transform="rotate(0,214,370)"/><rect width="12" height="12" x="208" y="376" transform="rotate(0,214,382)"/><rect width="12" height="12" x="208" y="400" transform="rotate(0,214,406)"/><rect width="12" height="12" x="208" y="412" transform="rotate(0,214,418)"/><rect width="12" height="12" x="208" y="424" transform="rotate(0,214,430)"/><rect width="12" height="12" x="208" y="436" transform="rotate(0,214,442)"/><rect width="12" height="12" x="220" y="52" transform="rotate(0,226,58)"/><rect width="12" height="12" x="220" y="64" transform="rotate(0,226,70)"/><rect width="12" height="12" x="220" y="76" transform="rotate(0,226,82)"/><rect width="12" height="12" x="220" y="100" transform="rotate(0,226,106)"/><rect width="12" height="12" x="220" y="112" transform="rotate(0,226,118)"/><rect width="12" height="12" x="220" y="124" transform="rotate(0,226,130)"/><rect width="12" height="12" x="220" y="136" transform="rotate(0,226,142)"/><rect width="12" height="12" x="220" y="148" transform="rotate(0,226,154)"/><rect width="12" height="12" x="220" y="220" transform="rotate(0,226,226)"/><rect width="12" height="12" x="220" y="256" transform="rotate(0,226,262)"/><rect width="12" height="12" x="220" y="280" transform="rotate(0,226,286)"/><rect width="12" height="12" x="220" y="292" transform="rotate(0,226,298)"/><rect width="12" height="12" x="220" y="304" transform="rotate(0,226,310)"/><rect width="12" height="12" x="220" y="316" transform="rotate(0,226,322)"/><rect width="12" height="12" x="220" y="328" transform="rotate(0,226,334)"/><rect width="12" height="12" x="220" y="340" transform="rotate(0,226,346)"/><rect width="12" height="12" x="220" y="352" transform="rotate(0,226,358)"/><rect width="12" height="12" x="220" y="376" transform="rotate(0,226,382)"/><rect width="12" height="12" x="220" y="388" transform="rotate(0,226,394)"/><rect width="12" height="12" x="220" y="412" transform="rotate(0,226,418)"/><rect width="12" height="12" x="220" y="436" transform="rotate(0,226,442)"/><rect width="12" height="12" x="220" y="448" transform="rotate(0,226,454)"/><rect width="12" height="12" x="232" y="28" transform="rotate(0,238,34)"/><rect width="12" height="12" x="232" y="52" transform="rotate(0,238,58)"/><rect width="12" height="12" x="232" y="64" transform="rotate(0,238,70)"/><rect width="12" height="12" x="232" y="76" transform="rotate(0,238,82)"/><rect width="12" height="12" x="232" y="88" transform="rotate(0,238,94)"/><rect width="12" height="12" x="232" y="136" transform="rotate(0,238,142)"/><rect width="12" height="12" x="232" y="148" transform="rotate(0,238,154)"/><rect width="12" height="12" x="232" y="172" transform="rotate(0,238,178)"/><rect width="12" height="12" x="232" y="184" transform="rotate(0,238,190)"/><rect width="12" height="12" x="232" y="196" transform="rotate(0,238,202)"/><rect width="12" height="12" x="232" y="220" transform="rotate(0,238,226)"/><rect width="12" height="12" x="232" y="256" transform="rotate(0,238,262)"/><rect width="12" height="12" x="232" y="328" transform="rotate(0,238,334)"/><rect width="12" height="12" x="232" y="352" transform="rotate(0,238,358)"/><rect width="12" height="12" x="232" y="364" transform="rotate(0,238,370)"/><rect width="12" height="12" x="232" y="400" transform="rotate(0,238,406)"/><rect width="12" height="12" x="232" y="424" transform="rotate(0,238,430)"/><rect width="12" height="12" x="244" y="28" transform="rotate(0,250,34)"/><rect width="12" height="12" x="244" y="40" transform="rotate(0,250,46)"/><rect width="12" height="12" x="244" y="52" transform="rotate(0,250,58)"/><rect width="12" height="12" x="244" y="76" transform="rotate(0,250,82)"/><rect width="12" height="12" x="244" y="100" transform="rotate(0,250,106)"/><rect width="12" height="12" x="244" y="124" transform="rotate(0,250,130)"/><rect width="12" height="12" x="244" y="136" transform="rotate(0,250,142)"/><rect width="12" height="12" x="244" y="148" transform="rotate(0,250,154)"/><rect width="12" height="12" x="244" y="160" transform="rotate(0,250,166)"/><rect width="12" height="12" x="244" y="172" transform="rotate(0,250,178)"/><rect width="12" height="12" x="244" y="196" transform="rotate(0,250,202)"/><rect width="12" height="12" x="244" y="208" transform="rotate(0,250,214)"/><rect width="12" height="12" x="244" y="220" transform="rotate(0,250,226)"/><rect width="12" height="12" x="244" y="232" transform="rotate(0,250,238)"/><rect width="12" height="12" x="244" y="316" transform="rotate(0,250,322)"/><rect width="12" height="12" x="244" y="352" transform="rotate(0,250,358)"/><rect width="12" height="12" x="244" y="364" transform="rotate(0,250,370)"/><rect width="12" height="12" x="244" y="400" transform="rotate(0,250,406)"/><rect width="12" height="12" x="244" y="412" transform="rotate(0,250,418)"/><rect width="12" height="12" x="244" y="460" transform="rotate(0,250,466)"/><rect width="12" height="12" x="256" y="76" transform="rotate(0,262,82)"/><rect width="12" height="12" x="256" y="112" transform="rotate(0,262,118)"/><rect width="12" height="12" x="256" y="124" transform="rotate(0,262,130)"/><rect width="12" height="12" x="256" y="148" transform="rotate(0,262,154)"/><rect width="12" height="12" x="256" y="160" transform="rotate(0,262,166)"/><rect width="12" height="12" x="256" y="172" transform="rotate(0,262,178)"/><rect width="12" height="12" x="256" y="184" transform="rotate(0,262,190)"/><rect width="12" height="12" x="256" y="208" transform="rotate(0,262,214)"/><rect width="12" height="12" x="256" y="220" transform="rotate(0,262,226)"/><rect width="12" height="12" x="256" y="268" transform="rotate(0,262,274)"/><rect width="12" height="12" x="256" y="292" transform="rotate(0,262,298)"/><rect width="12" height="12" x="256" y="304" transform="rotate(0,262,310)"/><rect width="12" height="12" x="256" y="340" transform="rotate(0,262,346)"/><rect width="12" height="12" x="256" y="352" transform="rotate(0,262,358)"/><rect width="12" height="12" x="256" y="364" transform="rotate(0,262,370)"/><rect width="12" height="12" x="256" y="376" transform="rotate(0,262,382)"/><rect width="12" height="12" x="256" y="412" transform="rotate(0,262,418)"/><rect width="12" height="12" x="256" y="424" transform="rotate(0,262,430)"/><rect width="12" height="12" x="256" y="448" transform="rotate(0,262,454)"/><rect width="12" height="12" x="256" y="460" transform="rotate(0,262,466)"/><rect width="12" height="12" x="268" y="52" transform="rotate(0,274,58)"/><rect width="12" height="12" x="268" y="64" transform="rotate(0,274,70)"/><rect width="12" height="12" x="268" y="88" transform="rotate(0,274,94)"/><rect width="12" height="12" x="268" y="100" transform="rotate(0,274,106)"/><rect width="12" height="12" x="268" y="160" transform="rotate(0,274,166)"/><rect width="12" height="12" x="268" y="220" transform="rotate(0,274,226)"/><rect width="12" height="12" x="268" y="232" transform="rotate(0,274,238)"/><rect width="12" height="12" x="268" y="256" transform="rotate(0,274,262)"/><rect width="12" height="12" x="268" y="268" transform="rotate(0,274,274)"/><rect width="12" height="12" x="268" y="292" transform="rotate(0,274,298)"/><rect width="12" height="12" x="268" y="304" transform="rotate(0,274,310)"/><rect width="12" height="12" x="268" y="316" transform="rotate(0,274,322)"/><rect width="12" height="12" x="268" y="328" transform="rotate(0,274,334)"/><rect width="12" height="12" x="268" y="340" transform="rotate(0,274,346)"/><rect width="12" height="12" x="268" y="376" transform="rotate(0,274,382)"/><rect width="12" height="12" x="268" y="388" transform="rotate(0,274,394)"/><rect width="12" height="12" x="268" y="400" transform="rotate(0,274,406)"/><rect width="12" height="12" x="268" y="412" transform="rotate(0,274,418)"/><rect width="12" height="12" x="268" y="424" transform="rotate(0,274,430)"/><rect width="12" height="12" x="268" y="436" transform="rotate(0,274,442)"/><rect width="12" height="12" x="268" y="460" transform="rotate(0,274,466)"/><rect width="12" height="12" x="280" y="28" transform="rotate(0,286,34)"/><rect width="12" height="12" x="280" y="40" transform="rotate(0,286,46)"/><rect width="12" height="12" x="280" y="64" transform="rotate(0,286,70)"/><rect width="12" height="12" x="280" y="76" transform="rotate(0,286,82)"/><rect width="12" height="12" x="280" y="88" transform="rotate(0,286,94)"/><rect width="12" height="12" x="280" y="124" transform="rotate(0,286,130)"/><rect width="12" height="12" x="280" y="136" transform="rotate(0,286,142)"/><rect width="12" height="12" x="280" y="172" transform="rotate(0,286,178)"/><rect width="12" height="12" x="280" y="184" transform="rotate(0,286,190)"/><rect width="12" height="12" x="280" y="208" transform="rotate(0,286,214)"/><rect width="12" height="12" x="280" y="232" transform="rotate(0,286,238)"/><rect width="12" height="12" x="280" y="256" transform="rotate(0,286,262)"/><rect width="12" height="12" x="280" y="280" transform="rotate(0,286,286)"/><rect width="12" height="12" x="280" y="292" transform="rotate(0,286,298)"/><rect width="12" height="12" x="280" y="304" transform="rotate(0,286,310)"/><rect width="12" height="12" x="280" y="328" transform="rotate(0,286,334)"/><rect width="12" height="12" x="280" y="340" transform="rotate(0,286,346)"/><rect width="12" height="12" x="280" y="352" transform="rotate(0,286,358)"/><rect width="12" height="12" x="280" y="364" transform="rotate(0,286,370)"/><rect width="12" height="12" x="280" y="400" transform="rotate(0,286,406)"/><rect width="12" height="12" x="280" y="412" transform="rotate(0,286,418)"/><rect width="12" height="12" x="280" y="436" transform="rotate(0,286,442)"/><rect width="12" height="12" x="292" y="28" transform="rotate(0,298,34)"/><rect width="12" height="12" x="292" y="52" transform="rotate(0,298,58)"/><rect width="12" height="12" x="292" y="64" transform="rotate(0,298,70)"/><rect width="12" height="12" x="292" y="100" transform="rotate(0,298,106)"/><rect width="12" height="12" x="292" y="112" transform="rotate(0,298,118)"/><rect width="12" height="12" x="292" y="124" transform="rotate(0,298,130)"/><rect width="12" height="12" x="292" y="184" transform="rotate(0,298,190)"/><rect width="12" height="12" x="292" y="196" transform="rotate(0,298,202)"/><rect width="12" height="12" x="292" y="208" transform="rotate(0,298,214)"/><rect width="12" height="12" x="292" y="220" transform="rotate(0,298,226)"/><rect width="12" height="12" x="292" y="232" transform="rotate(0,298,238)"/><rect width="12" height="12" x="292" y="256" transform="rotate(0,298,262)"/><rect width="12" height="12" x="292" y="268" transform="rotate(0,298,274)"/><rect width="12" height="12" x="292" y="292" transform="rotate(0,298,298)"/><rect width="12" height="12" x="292" y="328" transform="rotate(0,298,334)"/><rect width="12" height="12" x="292" y="340" transform="rotate(0,298,346)"/><rect width="12" height="12" x="292" y="352" transform="rotate(0,298,358)"/><rect width="12" height="12" x="292" y="376" transform="rotate(0,298,382)"/><rect width="12" height="12" x="292" y="448" transform="rotate(0,298,454)"/><rect width="12" height="12" x="292" y="460" transform="rotate(0,298,466)"/><rect width="12" height="12" x="304" y="52" transform="rotate(0,310,58)"/><rect width="12" height="12" x="304" y="76" transform="rotate(0,310,82)"/><rect width="12" height="12" x="304" y="88" transform="rotate(0,310,94)"/><rect width="12" height="12" x="304" y="112" transform="rotate(0,310,118)"/><rect width="12" height="12" x="304" y="124" transform="rotate(0,310,130)"/><rect width="12" height="12" x="304" y="172" transform="rotate(0,310,178)"/><rect width="12" height="12" x="304" y="232" transform="rotate(0,310,238)"/><rect width="12" height="12" x="304" y="244" transform="rotate(0,310,250)"/><rect width="12" height="12" x="304" y="268" transform="rotate(0,310,274)"/><rect width="12" height="12" x="304" y="292" transform="rotate(0,310,298)"/><rect width="12" height="12" x="304" y="316" transform="rotate(0,310,322)"/><rect width="12" height="12" x="304" y="328" transform="rotate(0,310,334)"/><rect width="12" height="12" x="304" y="352" transform="rotate(0,310,358)"/><rect width="12" height="12" x="304" y="400" transform="rotate(0,310,406)"/><rect width="12" height="12" x="304" y="424" transform="rotate(0,310,430)"/><rect width="12" height="12" x="316" y="52" transform="rotate(0,322,58)"/><rect width="12" height="12" x="316" y="100" transform="rotate(0,322,106)"/><rect width="12" height="12" x="316" y="184" transform="rotate(0,322,190)"/><rect width="12" height="12" x="316" y="196" transform="rotate(0,322,202)"/><rect width="12" height="12" x="316" y="220" transform="rotate(0,322,226)"/><rect width="12" height="12" x="316" y="304" transform="rotate(0,322,310)"/><rect width="12" height="12" x="316" y="328" transform="rotate(0,322,334)"/><rect width="12" height="12" x="316" y="400" transform="rotate(0,322,406)"/><rect width="12" height="12" x="328" y="28" transform="rotate(0,334,34)"/><rect width="12" height="12" x="328" y="40" transform="rotate(0,334,46)"/><rect width="12" height="12" x="328" y="52" transform="rotate(0,334,58)"/><rect width="12" height="12" x="328" y="64" transform="rotate(0,334,70)"/><rect width="12" height="12" x="328" y="124" transform="rotate(0,334,130)"/><rect width="12" height="12" x="328" y="148" transform="rotate(0,334,154)"/><rect width="12" height="12" x="328" y="196" transform="rotate(0,334,202)"/><rect width="12" height="12" x="328" y="208" transform="rotate(0,334,214)"/><rect width="12" height="12" x="328" y="232" transform="rotate(0,334,238)"/><rect width="12" height="12" x="328" y="244" transform="rotate(0,334,250)"/><rect width="12" height="12" x="328" y="256" transform="rotate(0,334,262)"/><rect width="12" height="12" x="328" y="268" transform="rotate(0,334,274)"/><rect width="12" height="12" x="328" y="292" transform="rotate(0,334,298)"/><rect width="12" height="12" x="328" y="304" transform="rotate(0,334,310)"/><rect width="12" height="12" x="328" y="388" transform="rotate(0,334,394)"/><rect width="12" height="12" x="328" y="400" transform="rotate(0,334,406)"/><rect width="12" height="12" x="328" y="424" transform="rotate(0,334,430)"/><rect width="12" height="12" x="340" y="28" transform="rotate(0,346,34)"/><rect width="12" height="12" x="340" y="52" transform="rotate(0,346,58)"/><rect width="12" height="12" x="340" y="76" transform="rotate(0,346,82)"/><rect width="12" height="12" x="340" y="100" transform="rotate(0,346,106)"/><rect width="12" height="12" x="340" y="136" transform="rotate(0,346,142)"/><rect width="12" height="12" x="340" y="148" transform="rotate(0,346,154)"/><rect width="12" height="12" x="340" y="184" transform="rotate(0,346,190)"/><rect width="12" height="12" x="340" y="196" transform="rotate(0,346,202)"/><rect width="12" height="12" x="340" y="220" transform="rotate(0,346,226)"/><rect width="12" height="12" x="340" y="232" transform="rotate(0,346,238)"/><rect width="12" height="12" x="340" y="244" transform="rotate(0,346,250)"/><rect width="12" height="12" x="340" y="268" transform="rotate(0,346,274)"/><rect width="12" height="12" x="340" y="280" transform="rotate(0,346,286)"/><rect width="12" height="12" x="340" y="340" transform="rotate(0,346,346)"/><rect width="12" height="12" x="340" y="352" transform="rotate(0,346,358)"/><rect width="12" height="12" x="340" y="364" transform="rotate(0,346,370)"/><rect width="12" height="12" x="340" y="388" transform="rotate(0,346,394)"/><rect width="12" height="12" x="340" y="400" transform="rotate(0,346,406)"/><rect width="12" height="12" x="340" y="424" transform="rotate(0,346,430)"/><rect width="12" height="12" x="340" y="448" transform="rotate(0,346,454)"/><rect width="12" height="12" x="340" y="460" transform="rotate(0,346,466)"/><rect width="12" height="12" x="352" y="28" transform="rotate(0,358,34)"/><rect width="12" height="12" x="352" y="52" transform="rotate(0,358,58)"/><rect width="12" height="12" x="352" y="112" transform="rotate(0,358,118)"/><rect width="12" height="12" x="352" y="124" transform="rotate(0,358,130)"/><rect width="12" height="12" x="352" y="148" transform="rotate(0,358,154)"/><rect width="12" height="12" x="352" y="160" transform="rotate(0,358,166)"/><rect width="12" height="12" x="352" y="172" transform="rotate(0,358,178)"/><rect width="12" height="12" x="352" y="184" transform="rotate(0,358,190)"/><rect width="12" height="12" x="352" y="208" transform="rotate(0,358,214)"/><rect width="12" height="12" x="352" y="220" transform="rotate(0,358,226)"/><rect width="12" height="12" x="352" y="244" transform="rotate(0,358,250)"/><rect width="12" height="12" x="352" y="268" transform="rotate(0,358,274)"/><rect width="12" height="12" x="352" y="304" transform="rotate(0,358,310)"/><rect width="12" height="12" x="352" y="364" transform="rotate(0,358,370)"/><rect width="12" height="12" x="352" y="376" transform="rotate(0,358,382)"/><rect width="12" height="12" x="352" y="400" transform="rotate(0,358,406)"/><rect width="12" height="12" x="352" y="424" transform="rotate(0,358,430)"/><rect width="12" height="12" x="352" y="436" transform="rotate(0,358,442)"/><rect width="12" height="12" x="352" y="448" transform="rotate(0,358,454)"/><rect width="12" height="12" x="364" y="28" transform="rotate(0,370,34)"/><rect width="12" height="12" x="364" y="52" transform="rotate(0,370,58)"/><rect width="12" height="12" x="364" y="64" transform="rotate(0,370,70)"/><rect width="12" height="12" x="364" y="76" transform="rotate(0,370,82)"/><rect width="12" height="12" x="364" y="88" transform="rotate(0,370,94)"/><rect width="12" height="12" x="364" y="100" transform="rotate(0,370,106)"/><rect width="12" height="12" x="364" y="124" transform="rotate(0,370,130)"/><rect width="12" height="12" x="364" y="148" transform="rotate(0,370,154)"/><rect width="12" height="12" x="364" y="208" transform="rotate(0,370,214)"/><rect width="12" height="12" x="364" y="232" transform="rotate(0,370,238)"/><rect width="12" height="12" x="364" y="244" transform="rotate(0,370,250)"/><rect width="12" height="12" x="364" y="256" transform="rotate(0,370,262)"/><rect width="12" height="12" x="364" y="292" transform="rotate(0,370,298)"/><rect width="12" height="12" x="364" y="304" transform="rotate(0,370,310)"/><rect width="12" height="12" x="364" y="316" transform="rotate(0,370,322)"/><rect width="12" height="12" x="364" y="328" transform="rotate(0,370,334)"/><rect width="12" height="12" x="364" y="340" transform="rotate(0,370,346)"/><rect width="12" height="12" x="364" y="352" transform="rotate(0,370,358)"/><rect width="12" height="12" x="364" y="364" transform="rotate(0,370,370)"/><rect width="12" height="12" x="364" y="376" transform="rotate(0,370,382)"/><rect width="12" height="12" x="364" y="388" transform="rotate(0,370,394)"/><rect width="12" height="12" x="364" y="400" transform="rotate(0,370,406)"/><rect width="12" height="12" x="364" y="412" transform="rotate(0,370,418)"/><rect width="12" height="12" x="364" y="424" transform="rotate(0,370,430)"/><rect width="12" height="12" x="364" y="436" transform="rotate(0,370,442)"/><rect width="12" height="12" x="364" y="448" transform="rotate(0,370,454)"/><rect width="12" height="12" x="364" y="460" transform="rotate(0,370,466)"/><rect width="12" height="12" x="376" y="124" transform="rotate(0,382,130)"/><rect width="12" height="12" x="376" y="160" transform="rotate(0,382,166)"/><rect width="12" height="12" x="376" y="172" transform="rotate(0,382,178)"/><rect width="12" height="12" x="376" y="184" transform="rotate(0,382,190)"/><rect width="12" height="12" x="376" y="220" transform="rotate(0,382,226)"/><rect width="12" height="12" x="376" y="232" transform="rotate(0,382,238)"/><rect width="12" height="12" x="376" y="256" transform="rotate(0,382,262)"/><rect width="12" height="12" x="376" y="304" transform="rotate(0,382,310)"/><rect width="12" height="12" x="376" y="328" transform="rotate(0,382,334)"/><rect width="12" height="12" x="376" y="340" transform="rotate(0,382,346)"/><rect width="12" height="12" x="376" y="352" transform="rotate(0,382,358)"/><rect width="12" height="12" x="376" y="364" transform="rotate(0,382,370)"/><rect width="12" height="12" x="376" y="412" transform="rotate(0,382,418)"/><rect width="12" height="12" x="376" y="424" transform="rotate(0,382,430)"/><rect width="12" height="12" x="388" y="124" transform="rotate(0,394,130)"/><rect width="12" height="12" x="388" y="136" transform="rotate(0,394,142)"/><rect width="12" height="12" x="388" y="172" transform="rotate(0,394,178)"/><rect width="12" height="12" x="388" y="184" transform="rotate(0,394,190)"/><rect width="12" height="12" x="388" y="196" transform="rotate(0,394,202)"/><rect width="12" height="12" x="388" y="220" transform="rotate(0,394,226)"/><rect width="12" height="12" x="388" y="268" transform="rotate(0,394,274)"/><rect width="12" height="12" x="388" y="280" transform="rotate(0,394,286)"/><rect width="12" height="12" x="388" y="292" transform="rotate(0,394,298)"/><rect width="12" height="12" x="388" y="304" transform="rotate(0,394,310)"/><rect width="12" height="12" x="388" y="328" transform="rotate(0,394,334)"/><rect width="12" height="12" x="388" y="364" transform="rotate(0,394,370)"/><rect width="12" height="12" x="388" y="388" transform="rotate(0,394,394)"/><rect width="12" height="12" x="388" y="412" transform="rotate(0,394,418)"/><rect width="12" height="12" x="388" y="424" transform="rotate(0,394,430)"/><rect width="12" height="12" x="388" y="436" transform="rotate(0,394,442)"/><rect width="12" height="12" x="388" y="460" transform="rotate(0,394,466)"/><rect width="12" height="12" x="400" y="160" transform="rotate(0,406,166)"/><rect width="12" height="12" x="400" y="220" transform="rotate(0,406,226)"/><rect width="12" height="12" x="400" y="232" transform="rotate(0,406,238)"/><rect width="12" height="12" x="400" y="244" transform="rotate(0,406,250)"/><rect width="12" height="12" x="400" y="256" transform="rotate(0,406,262)"/><rect width="12" height="12" x="400" y="292" transform="rotate(0,406,298)"/><rect width="12" height="12" x="400" y="340" transform="rotate(0,406,346)"/><rect width="12" height="12" x="400" y="352" transform="rotate(0,406,358)"/><rect width="12" height="12" x="400" y="364" transform="rotate(0,406,370)"/><rect width="12" height="12" x="400" y="412" transform="rotate(0,406,418)"/><rect width="12" height="12" x="400" y="424" transform="rotate(0,406,430)"/><rect width="12" height="12" x="400" y="448" transform="rotate(0,406,454)"/><rect width="12" height="12" x="400" y="460" transform="rotate(0,406,466)"/><rect width="12" height="12" x="412" y="148" transform="rotate(0,418,154)"/><rect width="12" height="12" x="412" y="196" transform="rotate(0,418,202)"/><rect width="12" height="12" x="412" y="220" transform="rotate(0,418,226)"/><rect width="12" height="12" x="412" y="256" transform="rotate(0,418,262)"/><rect width="12" height="12" x="412" y="280" transform="rotate(0,418,286)"/><rect width="12" height="12" x="412" y="328" transform="rotate(0,418,334)"/><rect width="12" height="12" x="412" y="352" transform="rotate(0,418,358)"/><rect width="12" height="12" x="412" y="364" transform="rotate(0,418,370)"/><rect width="12" height="12" x="412" y="376" transform="rotate(0,418,382)"/><rect width="12" height="12" x="412" y="388" transform="rotate(0,418,394)"/><rect width="12" height="12" x="412" y="400" transform="rotate(0,418,406)"/><rect width="12" height="12" x="412" y="412" transform="rotate(0,418,418)"/><rect width="12" height="12" x="412" y="436" transform="rotate(0,418,442)"/><rect width="12" height="12" x="412" y="460" transform="rotate(0,418,466)"/><rect width="12" height="12" x="424" y="136" transform="rotate(0,430,142)"/><rect width="12" height="12" x="424" y="160" transform="rotate(0,430,166)"/><rect width="12" height="12" x="424" y="184" transform="rotate(0,430,190)"/><rect width="12" height="12" x="424" y="208" transform="rotate(0,430,214)"/><rect width="12" height="12" x="424" y="220" transform="rotate(0,430,226)"/><rect width="12" height="12" x="424" y="232" transform="rotate(0,430,238)"/><rect width="12" height="12" x="424" y="280" transform="rotate(0,430,286)"/><rect width="12" height="12" x="424" y="316" transform="rotate(0,430,322)"/><rect width="12" height="12" x="424" y="328" transform="rotate(0,430,334)"/><rect width="12" height="12" x="424" y="340" transform="rotate(0,430,346)"/><rect width="12" height="12" x="424" y="352" transform="rotate(0,430,358)"/><rect width="12" height="12" x="424" y="364" transform="rotate(0,430,370)"/><rect width="12" height="12" x="424" y="388" transform="rotate(0,430,394)"/><rect width="12" height="12" x="424" y="436" transform="rotate(0,430,442)"/><rect width="12" height="12" x="424" y="448" transform="rotate(0,430,454)"/><rect width="12" height="12" x="436" y="136" transform="rotate(0,442,142)"/><rect width="12" height="12" x="436" y="172" transform="rotate(0,442,178)"/><rect width="12" height="12" x="436" y="184" transform="rotate(0,442,190)"/><rect width="12" height="12" x="436" y="196" transform="rotate(0,442,202)"/><rect width="12" height="12" x="436" y="232" transform="rotate(0,442,238)"/><rect width="12" height="12" x="436" y="256" transform="rotate(0,442,262)"/><rect width="12" height="12" x="436" y="280" transform="rotate(0,442,286)"/><rect width="12" height="12" x="436" y="292" transform="rotate(0,442,298)"/><rect width="12" height="12" x="436" y="340" transform="rotate(0,442,346)"/><rect width="12" height="12" x="436" y="352" transform="rotate(0,442,358)"/><rect width="12" height="12" x="436" y="376" transform="rotate(0,442,382)"/><rect width="12" height="12" x="436" y="400" transform="rotate(0,442,406)"/><rect width="12" height="12" x="436" y="436" transform="rotate(0,442,442)"/><rect width="12" height="12" x="436" y="460" transform="rotate(0,442,466)"/><rect width="12" height="12" x="448" y="124" transform="rotate(0,454,130)"/><rect width="12" height="12" x="448" y="136" transform="rotate(0,454,142)"/><rect width="12" height="12" x="448" y="160" transform="rotate(0,454,166)"/><rect width="12" height="12" x="448" y="184" transform="rotate(0,454,190)"/><rect width="12" height="12" x="448" y="208" transform="rotate(0,454,214)"/><rect width="12" height="12" x="448" y="220" transform="rotate(0,454,226)"/><rect width="12" height="12" x="448" y="256" transform="rotate(0,454,262)"/><rect width="12" height="12" x="448" y="268" transform="rotate(0,454,274)"/><rect width="12" height="12" x="448" y="316" transform="rotate(0,454,322)"/><rect width="12" height="12" x="448" y="340" transform="rotate(0,454,346)"/><rect width="12" height="12" x="448" y="364" transform="rotate(0,454,370)"/><rect width="12" height="12" x="448" y="400" transform="rotate(0,454,406)"/><rect width="12" height="12" x="448" y="412" transform="rotate(0,454,418)"/><rect width="12" height="12" x="448" y="424" transform="rotate(0,454,430)"/><rect width="12" height="12" x="448" y="460" transform="rotate(0,454,466)"/><rect width="12" height="12" x="460" y="148" transform="rotate(0,466,154)"/><rect width="12" height="12" x="460" y="172" transform="rotate(0,466,178)"/><rect width="12" height="12" x="460" y="196" transform="rotate(0,466,202)"/><rect width="12" height="12" x="460" y="208" transform="rotate(0,466,214)"/><rect width="12" height="12" x="460" y="220" transform="rotate(0,466,226)"/><rect width="12" height="12" x="460" y="268" transform="rotate(0,466,274)"/><rect width="12" height="12" x="460" y="292" transform="rotate(0,466,298)"/><rect width="12" height="12" x="460" y="304" transform="rotate(0,466,310)"/><rect width="12" height="12" x="460" y="316" transform="rotate(0,466,322)"/><rect width="12" height="12" x="460" y="352" transform="rotate(0,466,358)"/><rect width="12" height="12" x="460" y="364" transform="rotate(0,466,370)"/><rect width="12" height="12" x="460" y="388" transform="rotate(0,466,394)"/><rect width="12" height="12" x="460" y="400" transform="rotate(0,466,406)"/><rect width="12" height="12" x="460" y="412" transform="rotate(0,466,418)"/><rect width="12" height="12" x="460" y="424" transform="rotate(0,466,430)"/><rect width="12" height="12" x="460" y="460" transform="rotate(0,466,466)"/><path d="M 28 28v 84h 84v -84zM 40 40h 60v 60h -60z" clip-rule="evenodd" transform="rotate(0,70,70)"/><rect width="36" height="36" x="52" y="52" transform="rotate(0,70,70)"/><path d="M 388 28v 84h 84v -84zM 400 40h 60v 60h -60z" clip-rule="evenodd" transform="rotate(90,430,70)"/><rect width="36" height="36" x="412" y="52" transform="rotate(90,430,70)"/><path d="M 28 388v 84h 84v -84zM 40 400h 60v 60h -60z" clip-rule="evenodd" transform="rotate(-90,70,430)"/><rect width="36" height="36" x="52" y="412" transform="rotate(-90,70,430)"/></clipPath></defs><rect width="500" height="500" x="0" y="0" fill="#fff" clip-path="url('#clip-path-background-color')"/><rect width="500" height="500" x="0" y="0" fill="#000" clip-path="url('#clip-path-dot-color')"/></svg>