solid mini_pencil_holder_array_practice
  facet normal 0.000000e+00 0.000000e+00 -1.000000e+00
    outer loop
      vertex 0.000000e+00 0.000000e+00 0.000000e+00
      vertex 0.000000e+00 3.200000e+01 0.000000e+00
      vertex 6.200000e+01 3.200000e+01 0.000000e+00
    endloop
  endfacet
  facet normal 0.000000e+00 0.000000e+00 -1.000000e+00
    outer loop
      vertex 0.000000e+00 0.000000e+00 0.000000e+00
      vertex 6.200000e+01 3.200000e+01 0.000000e+00
      vertex 6.200000e+01 0.000000e+00 0.000000e+00
    endloop
  endfacet
  facet normal 0.000000e+00 0.000000e+00 1.000000e+00
    outer loop
      vertex 0.000000e+00 0.000000e+00 2.500000e+00
      vertex 6.200000e+01 0.000000e+00 2.500000e+00
      vertex 6.200000e+01 3.200000e+01 2.500000e+00
    endloop
  endfacet
  facet normal 0.000000e+00 0.000000e+00 1.000000e+00
    outer loop
      vertex 0.000000e+00 0.000000e+00 2.500000e+00
      vertex 6.200000e+01 3.200000e+01 2.500000e+00
      vertex 0.000000e+00 3.200000e+01 2.500000e+00
    endloop
  endfacet
  facet normal 0.000000e+00 -1.000000e+00 0.000000e+00
    outer loop
      vertex 0.000000e+00 0.000000e+00 0.000000e+00
      vertex 6.200000e+01 0.000000e+00 0.000000e+00
      vertex 6.200000e+01 0.000000e+00 2.500000e+00
    endloop
  endfacet
  facet normal 0.000000e+00 -1.000000e+00 0.000000e+00
    outer loop
      vertex 0.000000e+00 0.000000e+00 0.000000e+00
      vertex 6.200000e+01 0.000000e+00 2.500000e+00
      vertex 0.000000e+00 0.000000e+00 2.500000e+00
    endloop
  endfacet
  facet normal 0.000000e+00 1.000000e+00 0.000000e+00
    outer loop
      vertex 0.000000e+00 3.200000e+01 0.000000e+00
      vertex 0.000000e+00 3.200000e+01 2.500000e+00
      vertex 6.200000e+01 3.200000e+01 2.500000e+00
    endloop
  endfacet
  facet normal 0.000000e+00 1.000000e+00 0.000000e+00
    outer loop
      vertex 0.000000e+00 3.200000e+01 0.000000e+00
      vertex 6.200000e+01 3.200000e+01 2.500000e+00
      vertex 6.200000e+01 3.200000e+01 0.000000e+00
    endloop
  endfacet
  facet normal -1.000000e+00 0.000000e+00 0.000000e+00
    outer loop
      vertex 0.000000e+00 0.000000e+00 0.000000e+00
      vertex 0.000000e+00 0.000000e+00 2.500000e+00
      vertex 0.000000e+00 3.200000e+01 2.500000e+00
    endloop
  endfacet
  facet normal -1.000000e+00 0.000000e+00 0.000000e+00
    outer loop
      vertex 0.000000e+00 0.000000e+00 0.000000e+00
      vertex 0.000000e+00 3.200000e+01 2.500000e+00
      vertex 0.000000e+00 3.200000e+01 0.000000e+00
    endloop
  endfacet
  facet normal 1.000000e+00 0.000000e+00 0.000000e+00
    outer loop
      vertex 6.200000e+01 0.000000e+00 0.000000e+00
      vertex 6.200000e+01 3.200000e+01 0.000000e+00
      vertex 6.200000e+01 3.200000e+01 2.500000e+00
    endloop
  endfacet
  facet normal 1.000000e+00 0.000000e+00 0.000000e+00
    outer loop
      vertex 6.200000e+01 0.000000e+00 0.000000e+00
      vertex 6.200000e+01 3.200000e+01 2.500000e+00
      vertex 6.200000e+01 0.000000e+00 2.500000e+00
    endloop
  endfacet
  facet normal 0.000000e+00 0.000000e+00 -1.000000e+00
    outer loop
      vertex 0.000000e+00 0.000000e+00 2.500000e+00
      vertex 0.000000e+00 2.000000e+00 2.500000e+00
      vertex 6.200000e+01 2.000000e+00 2.500000e+00
    endloop
  endfacet
  facet normal 0.000000e+00 0.000000e+00 -1.000000e+00
    outer loop
      vertex 0.000000e+00 0.000000e+00 2.500000e+00
      vertex 6.200000e+01 2.000000e+00 2.500000e+00
      vertex 6.200000e+01 0.000000e+00 2.500000e+00
    endloop
  endfacet
  facet normal 0.000000e+00 0.000000e+00 1.000000e+00
    outer loop
      vertex 0.000000e+00 0.000000e+00 3.200000e+01
      vertex 6.200000e+01 0.000000e+00 3.200000e+01
      vertex 6.200000e+01 2.000000e+00 3.200000e+01
    endloop
  endfacet
  facet normal 0.000000e+00 0.000000e+00 1.000000e+00
    outer loop
      vertex 0.000000e+00 0.000000e+00 3.200000e+01
      vertex 6.200000e+01 2.000000e+00 3.200000e+01
      vertex 0.000000e+00 2.000000e+00 3.200000e+01
    endloop
  endfacet
  facet normal 0.000000e+00 -1.000000e+00 0.000000e+00
    outer loop
      vertex 0.000000e+00 0.000000e+00 2.500000e+00
      vertex 6.200000e+01 0.000000e+00 2.500000e+00
      vertex 6.200000e+01 0.000000e+00 3.200000e+01
    endloop
  endfacet
  facet normal 0.000000e+00 -1.000000e+00 0.000000e+00
    outer loop
      vertex 0.000000e+00 0.000000e+00 2.500000e+00
      vertex 6.200000e+01 0.000000e+00 3.200000e+01
      vertex 0.000000e+00 0.000000e+00 3.200000e+01
    endloop
  endfacet
  facet normal 0.000000e+00 1.000000e+00 0.000000e+00
    outer loop
      vertex 0.000000e+00 2.000000e+00 2.500000e+00
      vertex 0.000000e+00 2.000000e+00 3.200000e+01
      vertex 6.200000e+01 2.000000e+00 3.200000e+01
    endloop
  endfacet
  facet normal 0.000000e+00 1.000000e+00 0.000000e+00
    outer loop
      vertex 0.000000e+00 2.000000e+00 2.500000e+00
      vertex 6.200000e+01 2.000000e+00 3.200000e+01
      vertex 6.200000e+01 2.000000e+00 2.500000e+00
    endloop
  endfacet
  facet normal -1.000000e+00 0.000000e+00 0.000000e+00
    outer loop
      vertex 0.000000e+00 0.000000e+00 2.500000e+00
      vertex 0.000000e+00 0.000000e+00 3.200000e+01
      vertex 0.000000e+00 2.000000e+00 3.200000e+01
    endloop
  endfacet
  facet normal -1.000000e+00 0.000000e+00 0.000000e+00
    outer loop
      vertex 0.000000e+00 0.000000e+00 2.500000e+00
      vertex 0.000000e+00 2.000000e+00 3.200000e+01
      vertex 0.000000e+00 2.000000e+00 2.500000e+00
    endloop
  endfacet
  facet normal 1.000000e+00 0.000000e+00 0.000000e+00
    outer loop
      vertex 6.200000e+01 0.000000e+00 2.500000e+00
      vertex 6.200000e+01 2.000000e+00 2.500000e+00
      vertex 6.200000e+01 2.000000e+00 3.200000e+01
    endloop
  endfacet
  facet normal 1.000000e+00 0.000000e+00 0.000000e+00
    outer loop
      vertex 6.200000e+01 0.000000e+00 2.500000e+00
      vertex 6.200000e+01 2.000000e+00 3.200000e+01
      vertex 6.200000e+01 0.000000e+00 3.200000e+01
    endloop
  endfacet
  facet normal 0.000000e+00 0.000000e+00 -1.000000e+00
    outer loop
      vertex 0.000000e+00 3.000000e+01 2.500000e+00
      vertex 0.000000e+00 3.200000e+01 2.500000e+00
      vertex 6.200000e+01 3.200000e+01 2.500000e+00
    endloop
  endfacet
  facet normal 0.000000e+00 0.000000e+00 -1.000000e+00
    outer loop
      vertex 0.000000e+00 3.000000e+01 2.500000e+00
      vertex 6.200000e+01 3.200000e+01 2.500000e+00
      vertex 6.200000e+01 3.000000e+01 2.500000e+00
    endloop
  endfacet
  facet normal 0.000000e+00 0.000000e+00 1.000000e+00
    outer loop
      vertex 0.000000e+00 3.000000e+01 3.200000e+01
      vertex 6.200000e+01 3.000000e+01 3.200000e+01
      vertex 6.200000e+01 3.200000e+01 3.200000e+01
    endloop
  endfacet
  facet normal 0.000000e+00 0.000000e+00 1.000000e+00
    outer loop
      vertex 0.000000e+00 3.000000e+01 3.200000e+01
      vertex 6.200000e+01 3.200000e+01 3.200000e+01
      vertex 0.000000e+00 3.200000e+01 3.200000e+01
    endloop
  endfacet
  facet normal 0.000000e+00 -1.000000e+00 0.000000e+00
    outer loop
      vertex 0.000000e+00 3.000000e+01 2.500000e+00
      vertex 6.200000e+01 3.000000e+01 2.500000e+00
      vertex 6.200000e+01 3.000000e+01 3.200000e+01
    endloop
  endfacet
  facet normal 0.000000e+00 -1.000000e+00 0.000000e+00
    outer loop
      vertex 0.000000e+00 3.000000e+01 2.500000e+00
      vertex 6.200000e+01 3.000000e+01 3.200000e+01
      vertex 0.000000e+00 3.000000e+01 3.200000e+01
    endloop
  endfacet
  facet normal 0.000000e+00 1.000000e+00 0.000000e+00
    outer loop
      vertex 0.000000e+00 3.200000e+01 2.500000e+00
      vertex 0.000000e+00 3.200000e+01 3.200000e+01
      vertex 6.200000e+01 3.200000e+01 3.200000e+01
    endloop
  endfacet
  facet normal 0.000000e+00 1.000000e+00 0.000000e+00
    outer loop
      vertex 0.000000e+00 3.200000e+01 2.500000e+00
      vertex 6.200000e+01 3.200000e+01 3.200000e+01
      vertex 6.200000e+01 3.200000e+01 2.500000e+00
    endloop
  endfacet
  facet normal -1.000000e+00 0.000000e+00 0.000000e+00
    outer loop
      vertex 0.000000e+00 3.000000e+01 2.500000e+00
      vertex 0.000000e+00 3.000000e+01 3.200000e+01
      vertex 0.000000e+00 3.200000e+01 3.200000e+01
    endloop
  endfacet
  facet normal -1.000000e+00 0.000000e+00 0.000000e+00
    outer loop
      vertex 0.000000e+00 3.000000e+01 2.500000e+00
      vertex 0.000000e+00 3.200000e+01 3.200000e+01
      vertex 0.000000e+00 3.200000e+01 2.500000e+00
    endloop
  endfacet
  facet normal 1.000000e+00 0.000000e+00 0.000000e+00
    outer loop
      vertex 6.200000e+01 3.000000e+01 2.500000e+00
      vertex 6.200000e+01 3.200000e+01 2.500000e+00
      vertex 6.200000e+01 3.200000e+01 3.200000e+01
    endloop
  endfacet
  facet normal 1.000000e+00 0.000000e+00 0.000000e+00
    outer loop
      vertex 6.200000e+01 3.000000e+01 2.500000e+00
      vertex 6.200000e+01 3.200000e+01 3.200000e+01
      vertex 6.200000e+01 3.000000e+01 3.200000e+01
    endloop
  endfacet
  facet normal 0.000000e+00 0.000000e+00 -1.000000e+00
    outer loop
      vertex 0.000000e+00 0.000000e+00 2.500000e+00
      vertex 0.000000e+00 3.200000e+01 2.500000e+00
      vertex 2.000000e+00 3.200000e+01 2.500000e+00
    endloop
  endfacet
  facet normal 0.000000e+00 0.000000e+00 -1.000000e+00
    outer loop
      vertex 0.000000e+00 0.000000e+00 2.500000e+00
      vertex 2.000000e+00 3.200000e+01 2.500000e+00
      vertex 2.000000e+00 0.000000e+00 2.500000e+00
    endloop
  endfacet
  facet normal 0.000000e+00 0.000000e+00 1.000000e+00
    outer loop
      vertex 0.000000e+00 0.000000e+00 3.200000e+01
      vertex 2.000000e+00 0.000000e+00 3.200000e+01
      vertex 2.000000e+00 3.200000e+01 3.200000e+01
    endloop
  endfacet
  facet normal 0.000000e+00 0.000000e+00 1.000000e+00
    outer loop
      vertex 0.000000e+00 0.000000e+00 3.200000e+01
      vertex 2.000000e+00 3.200000e+01 3.200000e+01
      vertex 0.000000e+00 3.200000e+01 3.200000e+01
    endloop
  endfacet
  facet normal 0.000000e+00 -1.000000e+00 0.000000e+00
    outer loop
      vertex 0.000000e+00 0.000000e+00 2.500000e+00
      vertex 2.000000e+00 0.000000e+00 2.500000e+00
      vertex 2.000000e+00 0.000000e+00 3.200000e+01
    endloop
  endfacet
  facet normal 0.000000e+00 -1.000000e+00 0.000000e+00
    outer loop
      vertex 0.000000e+00 0.000000e+00 2.500000e+00
      vertex 2.000000e+00 0.000000e+00 3.200000e+01
      vertex 0.000000e+00 0.000000e+00 3.200000e+01
    endloop
  endfacet
  facet normal 0.000000e+00 1.000000e+00 0.000000e+00
    outer loop
      vertex 0.000000e+00 3.200000e+01 2.500000e+00
      vertex 0.000000e+00 3.200000e+01 3.200000e+01
      vertex 2.000000e+00 3.200000e+01 3.200000e+01
    endloop
  endfacet
  facet normal 0.000000e+00 1.000000e+00 0.000000e+00
    outer loop
      vertex 0.000000e+00 3.200000e+01 2.500000e+00
      vertex 2.000000e+00 3.200000e+01 3.200000e+01
      vertex 2.000000e+00 3.200000e+01 2.500000e+00
    endloop
  endfacet
  facet normal -1.000000e+00 0.000000e+00 0.000000e+00
    outer loop
      vertex 0.000000e+00 0.000000e+00 2.500000e+00
      vertex 0.000000e+00 0.000000e+00 3.200000e+01
      vertex 0.000000e+00 3.200000e+01 3.200000e+01
    endloop
  endfacet
  facet normal -1.000000e+00 0.000000e+00 0.000000e+00
    outer loop
      vertex 0.000000e+00 0.000000e+00 2.500000e+00
      vertex 0.000000e+00 3.200000e+01 3.200000e+01
      vertex 0.000000e+00 3.200000e+01 2.500000e+00
    endloop
  endfacet
  facet normal 1.000000e+00 0.000000e+00 0.000000e+00
    outer loop
      vertex 2.000000e+00 0.000000e+00 2.500000e+00
      vertex 2.000000e+00 3.200000e+01 2.500000e+00
      vertex 2.000000e+00 3.200000e+01 3.200000e+01
    endloop
  endfacet
  facet normal 1.000000e+00 0.000000e+00 0.000000e+00
    outer loop
      vertex 2.000000e+00 0.000000e+00 2.500000e+00
      vertex 2.000000e+00 3.200000e+01 3.200000e+01
      vertex 2.000000e+00 0.000000e+00 3.200000e+01
    endloop
  endfacet
  facet normal 0.000000e+00 0.000000e+00 -1.000000e+00
    outer loop
      vertex 2.000000e+01 0.000000e+00 2.500000e+00
      vertex 2.000000e+01 3.200000e+01 2.500000e+00
      vertex 2.200000e+01 3.200000e+01 2.500000e+00
    endloop
  endfacet
  facet normal 0.000000e+00 0.000000e+00 -1.000000e+00
    outer loop
      vertex 2.000000e+01 0.000000e+00 2.500000e+00
      vertex 2.200000e+01 3.200000e+01 2.500000e+00
      vertex 2.200000e+01 0.000000e+00 2.500000e+00
    endloop
  endfacet
  facet normal 0.000000e+00 0.000000e+00 1.000000e+00
    outer loop
      vertex 2.000000e+01 0.000000e+00 3.200000e+01
      vertex 2.200000e+01 0.000000e+00 3.200000e+01
      vertex 2.200000e+01 3.200000e+01 3.200000e+01
    endloop
  endfacet
  facet normal 0.000000e+00 0.000000e+00 1.000000e+00
    outer loop
      vertex 2.000000e+01 0.000000e+00 3.200000e+01
      vertex 2.200000e+01 3.200000e+01 3.200000e+01
      vertex 2.000000e+01 3.200000e+01 3.200000e+01
    endloop
  endfacet
  facet normal 0.000000e+00 -1.000000e+00 0.000000e+00
    outer loop
      vertex 2.000000e+01 0.000000e+00 2.500000e+00
      vertex 2.200000e+01 0.000000e+00 2.500000e+00
      vertex 2.200000e+01 0.000000e+00 3.200000e+01
    endloop
  endfacet
  facet normal 0.000000e+00 -1.000000e+00 0.000000e+00
    outer loop
      vertex 2.000000e+01 0.000000e+00 2.500000e+00
      vertex 2.200000e+01 0.000000e+00 3.200000e+01
      vertex 2.000000e+01 0.000000e+00 3.200000e+01
    endloop
  endfacet
  facet normal 0.000000e+00 1.000000e+00 0.000000e+00
    outer loop
      vertex 2.000000e+01 3.200000e+01 2.500000e+00
      vertex 2.000000e+01 3.200000e+01 3.200000e+01
      vertex 2.200000e+01 3.200000e+01 3.200000e+01
    endloop
  endfacet
  facet normal 0.000000e+00 1.000000e+00 0.000000e+00
    outer loop
      vertex 2.000000e+01 3.200000e+01 2.500000e+00
      vertex 2.200000e+01 3.200000e+01 3.200000e+01
      vertex 2.200000e+01 3.200000e+01 2.500000e+00
    endloop
  endfacet
  facet normal -1.000000e+00 0.000000e+00 0.000000e+00
    outer loop
      vertex 2.000000e+01 0.000000e+00 2.500000e+00
      vertex 2.000000e+01 0.000000e+00 3.200000e+01
      vertex 2.000000e+01 3.200000e+01 3.200000e+01
    endloop
  endfacet
  facet normal -1.000000e+00 0.000000e+00 0.000000e+00
    outer loop
      vertex 2.000000e+01 0.000000e+00 2.500000e+00
      vertex 2.000000e+01 3.200000e+01 3.200000e+01
      vertex 2.000000e+01 3.200000e+01 2.500000e+00
    endloop
  endfacet
  facet normal 1.000000e+00 0.000000e+00 0.000000e+00
    outer loop
      vertex 2.200000e+01 0.000000e+00 2.500000e+00
      vertex 2.200000e+01 3.200000e+01 2.500000e+00
      vertex 2.200000e+01 3.200000e+01 3.200000e+01
    endloop
  endfacet
  facet normal 1.000000e+00 0.000000e+00 0.000000e+00
    outer loop
      vertex 2.200000e+01 0.000000e+00 2.500000e+00
      vertex 2.200000e+01 3.200000e+01 3.200000e+01
      vertex 2.200000e+01 0.000000e+00 3.200000e+01
    endloop
  endfacet
  facet normal 0.000000e+00 0.000000e+00 -1.000000e+00
    outer loop
      vertex 4.000000e+01 0.000000e+00 2.500000e+00
      vertex 4.000000e+01 3.200000e+01 2.500000e+00
      vertex 4.200000e+01 3.200000e+01 2.500000e+00
    endloop
  endfacet
  facet normal 0.000000e+00 0.000000e+00 -1.000000e+00
    outer loop
      vertex 4.000000e+01 0.000000e+00 2.500000e+00
      vertex 4.200000e+01 3.200000e+01 2.500000e+00
      vertex 4.200000e+01 0.000000e+00 2.500000e+00
    endloop
  endfacet
  facet normal 0.000000e+00 0.000000e+00 1.000000e+00
    outer loop
      vertex 4.000000e+01 0.000000e+00 3.200000e+01
      vertex 4.200000e+01 0.000000e+00 3.200000e+01
      vertex 4.200000e+01 3.200000e+01 3.200000e+01
    endloop
  endfacet
  facet normal 0.000000e+00 0.000000e+00 1.000000e+00
    outer loop
      vertex 4.000000e+01 0.000000e+00 3.200000e+01
      vertex 4.200000e+01 3.200000e+01 3.200000e+01
      vertex 4.000000e+01 3.200000e+01 3.200000e+01
    endloop
  endfacet
  facet normal 0.000000e+00 -1.000000e+00 0.000000e+00
    outer loop
      vertex 4.000000e+01 0.000000e+00 2.500000e+00
      vertex 4.200000e+01 0.000000e+00 2.500000e+00
      vertex 4.200000e+01 0.000000e+00 3.200000e+01
    endloop
  endfacet
  facet normal 0.000000e+00 -1.000000e+00 0.000000e+00
    outer loop
      vertex 4.000000e+01 0.000000e+00 2.500000e+00
      vertex 4.200000e+01 0.000000e+00 3.200000e+01
      vertex 4.000000e+01 0.000000e+00 3.200000e+01
    endloop
  endfacet
  facet normal 0.000000e+00 1.000000e+00 0.000000e+00
    outer loop
      vertex 4.000000e+01 3.200000e+01 2.500000e+00
      vertex 4.000000e+01 3.200000e+01 3.200000e+01
      vertex 4.200000e+01 3.200000e+01 3.200000e+01
    endloop
  endfacet
  facet normal 0.000000e+00 1.000000e+00 0.000000e+00
    outer loop
      vertex 4.000000e+01 3.200000e+01 2.500000e+00
      vertex 4.200000e+01 3.200000e+01 3.200000e+01
      vertex 4.200000e+01 3.200000e+01 2.500000e+00
    endloop
  endfacet
  facet normal -1.000000e+00 0.000000e+00 0.000000e+00
    outer loop
      vertex 4.000000e+01 0.000000e+00 2.500000e+00
      vertex 4.000000e+01 0.000000e+00 3.200000e+01
      vertex 4.000000e+01 3.200000e+01 3.200000e+01
    endloop
  endfacet
  facet normal -1.000000e+00 0.000000e+00 0.000000e+00
    outer loop
      vertex 4.000000e+01 0.000000e+00 2.500000e+00
      vertex 4.000000e+01 3.200000e+01 3.200000e+01
      vertex 4.000000e+01 3.200000e+01 2.500000e+00
    endloop
  endfacet
  facet normal 1.000000e+00 0.000000e+00 0.000000e+00
    outer loop
      vertex 4.200000e+01 0.000000e+00 2.500000e+00
      vertex 4.200000e+01 3.200000e+01 2.500000e+00
      vertex 4.200000e+01 3.200000e+01 3.200000e+01
    endloop
  endfacet
  facet normal 1.000000e+00 0.000000e+00 0.000000e+00
    outer loop
      vertex 4.200000e+01 0.000000e+00 2.500000e+00
      vertex 4.200000e+01 3.200000e+01 3.200000e+01
      vertex 4.200000e+01 0.000000e+00 3.200000e+01
    endloop
  endfacet
  facet normal 0.000000e+00 0.000000e+00 -1.000000e+00
    outer loop
      vertex 6.000000e+01 0.000000e+00 2.500000e+00
      vertex 6.000000e+01 3.200000e+01 2.500000e+00
      vertex 6.200000e+01 3.200000e+01 2.500000e+00
    endloop
  endfacet
  facet normal 0.000000e+00 0.000000e+00 -1.000000e+00
    outer loop
      vertex 6.000000e+01 0.000000e+00 2.500000e+00
      vertex 6.200000e+01 3.200000e+01 2.500000e+00
      vertex 6.200000e+01 0.000000e+00 2.500000e+00
    endloop
  endfacet
  facet normal 0.000000e+00 0.000000e+00 1.000000e+00
    outer loop
      vertex 6.000000e+01 0.000000e+00 3.200000e+01
      vertex 6.200000e+01 0.000000e+00 3.200000e+01
      vertex 6.200000e+01 3.200000e+01 3.200000e+01
    endloop
  endfacet
  facet normal 0.000000e+00 0.000000e+00 1.000000e+00
    outer loop
      vertex 6.000000e+01 0.000000e+00 3.200000e+01
      vertex 6.200000e+01 3.200000e+01 3.200000e+01
      vertex 6.000000e+01 3.200000e+01 3.200000e+01
    endloop
  endfacet
  facet normal 0.000000e+00 -1.000000e+00 0.000000e+00
    outer loop
      vertex 6.000000e+01 0.000000e+00 2.500000e+00
      vertex 6.200000e+01 0.000000e+00 2.500000e+00
      vertex 6.200000e+01 0.000000e+00 3.200000e+01
    endloop
  endfacet
  facet normal 0.000000e+00 -1.000000e+00 0.000000e+00
    outer loop
      vertex 6.000000e+01 0.000000e+00 2.500000e+00
      vertex 6.200000e+01 0.000000e+00 3.200000e+01
      vertex 6.000000e+01 0.000000e+00 3.200000e+01
    endloop
  endfacet
  facet normal 0.000000e+00 1.000000e+00 0.000000e+00
    outer loop
      vertex 6.000000e+01 3.200000e+01 2.500000e+00
      vertex 6.000000e+01 3.200000e+01 3.200000e+01
      vertex 6.200000e+01 3.200000e+01 3.200000e+01
    endloop
  endfacet
  facet normal 0.000000e+00 1.000000e+00 0.000000e+00
    outer loop
      vertex 6.000000e+01 3.200000e+01 2.500000e+00
      vertex 6.200000e+01 3.200000e+01 3.200000e+01
      vertex 6.200000e+01 3.200000e+01 2.500000e+00
    endloop
  endfacet
  facet normal -1.000000e+00 0.000000e+00 0.000000e+00
    outer loop
      vertex 6.000000e+01 0.000000e+00 2.500000e+00
      vertex 6.000000e+01 0.000000e+00 3.200000e+01
      vertex 6.000000e+01 3.200000e+01 3.200000e+01
    endloop
  endfacet
  facet normal -1.000000e+00 0.000000e+00 0.000000e+00
    outer loop
      vertex 6.000000e+01 0.000000e+00 2.500000e+00
      vertex 6.000000e+01 3.200000e+01 3.200000e+01
      vertex 6.000000e+01 3.200000e+01 2.500000e+00
    endloop
  endfacet
  facet normal 1.000000e+00 0.000000e+00 0.000000e+00
    outer loop
      vertex 6.200000e+01 0.000000e+00 2.500000e+00
      vertex 6.200000e+01 3.200000e+01 2.500000e+00
      vertex 6.200000e+01 3.200000e+01 3.200000e+01
    endloop
  endfacet
  facet normal 1.000000e+00 0.000000e+00 0.000000e+00
    outer loop
      vertex 6.200000e+01 0.000000e+00 2.500000e+00
      vertex 6.200000e+01 3.200000e+01 3.200000e+01
      vertex 6.200000e+01 0.000000e+00 3.200000e+01
    endloop
  endfacet
  facet normal 0.000000e+00 0.000000e+00 -1.000000e+00
    outer loop
      vertex 0.000000e+00 3.200000e+01 0.000000e+00
      vertex 0.000000e+00 3.700000e+01 0.000000e+00
      vertex 6.200000e+01 3.700000e+01 0.000000e+00
    endloop
  endfacet
  facet normal 0.000000e+00 0.000000e+00 -1.000000e+00
    outer loop
      vertex 0.000000e+00 3.200000e+01 0.000000e+00
      vertex 6.200000e+01 3.700000e+01 0.000000e+00
      vertex 6.200000e+01 3.200000e+01 0.000000e+00
    endloop
  endfacet
  facet normal 0.000000e+00 0.000000e+00 1.000000e+00
    outer loop
      vertex 0.000000e+00 3.200000e+01 2.500000e+00
      vertex 6.200000e+01 3.200000e+01 2.500000e+00
      vertex 6.200000e+01 3.700000e+01 2.500000e+00
    endloop
  endfacet
  facet normal 0.000000e+00 0.000000e+00 1.000000e+00
    outer loop
      vertex 0.000000e+00 3.200000e+01 2.500000e+00
      vertex 6.200000e+01 3.700000e+01 2.500000e+00
      vertex 0.000000e+00 3.700000e+01 2.500000e+00
    endloop
  endfacet
  facet normal 0.000000e+00 -1.000000e+00 0.000000e+00
    outer loop
      vertex 0.000000e+00 3.200000e+01 0.000000e+00
      vertex 6.200000e+01 3.200000e+01 0.000000e+00
      vertex 6.200000e+01 3.200000e+01 2.500000e+00
    endloop
  endfacet
  facet normal 0.000000e+00 -1.000000e+00 0.000000e+00
    outer loop
      vertex 0.000000e+00 3.200000e+01 0.000000e+00
      vertex 6.200000e+01 3.200000e+01 2.500000e+00
      vertex 0.000000e+00 3.200000e+01 2.500000e+00
    endloop
  endfacet
  facet normal 0.000000e+00 1.000000e+00 0.000000e+00
    outer loop
      vertex 0.000000e+00 3.700000e+01 0.000000e+00
      vertex 0.000000e+00 3.700000e+01 2.500000e+00
      vertex 6.200000e+01 3.700000e+01 2.500000e+00
    endloop
  endfacet
  facet normal 0.000000e+00 1.000000e+00 0.000000e+00
    outer loop
      vertex 0.000000e+00 3.700000e+01 0.000000e+00
      vertex 6.200000e+01 3.700000e+01 2.500000e+00
      vertex 6.200000e+01 3.700000e+01 0.000000e+00
    endloop
  endfacet
  facet normal -1.000000e+00 0.000000e+00 0.000000e+00
    outer loop
      vertex 0.000000e+00 3.200000e+01 0.000000e+00
      vertex 0.000000e+00 3.200000e+01 2.500000e+00
      vertex 0.000000e+00 3.700000e+01 2.500000e+00
    endloop
  endfacet
  facet normal -1.000000e+00 0.000000e+00 0.000000e+00
    outer loop
      vertex 0.000000e+00 3.200000e+01 0.000000e+00
      vertex 0.000000e+00 3.700000e+01 2.500000e+00
      vertex 0.000000e+00 3.700000e+01 0.000000e+00
    endloop
  endfacet
  facet normal 1.000000e+00 0.000000e+00 0.000000e+00
    outer loop
      vertex 6.200000e+01 3.200000e+01 0.000000e+00
      vertex 6.200000e+01 3.700000e+01 0.000000e+00
      vertex 6.200000e+01 3.700000e+01 2.500000e+00
    endloop
  endfacet
  facet normal 1.000000e+00 0.000000e+00 0.000000e+00
    outer loop
      vertex 6.200000e+01 3.200000e+01 0.000000e+00
      vertex 6.200000e+01 3.700000e+01 2.500000e+00
      vertex 6.200000e+01 3.200000e+01 2.500000e+00
    endloop
  endfacet
endsolid mini_pencil_holder_array_practice
