solid card_holder_boolean_bevel_practice
  facet normal 0.000000e+00 0.000000e+00 -1.000000e+00
    outer loop
      vertex -3.500000e+01 -1.750000e+01 0.000000e+00
      vertex -3.500000e+01 -2.500000e+00 0.000000e+00
      vertex 3.500000e+01 -2.500000e+00 0.000000e+00
    endloop
  endfacet
  facet normal 0.000000e+00 0.000000e+00 -1.000000e+00
    outer loop
      vertex -3.500000e+01 -1.750000e+01 0.000000e+00
      vertex 3.500000e+01 -2.500000e+00 0.000000e+00
      vertex 3.500000e+01 -1.750000e+01 0.000000e+00
    endloop
  endfacet
  facet normal 0.000000e+00 0.000000e+00 1.000000e+00
    outer loop
      vertex -3.500000e+01 -1.750000e+01 4.000000e+00
      vertex 3.500000e+01 -1.750000e+01 4.000000e+00
      vertex 3.500000e+01 -2.500000e+00 4.000000e+00
    endloop
  endfacet
  facet normal 0.000000e+00 0.000000e+00 1.000000e+00
    outer loop
      vertex -3.500000e+01 -1.750000e+01 4.000000e+00
      vertex 3.500000e+01 -2.500000e+00 4.000000e+00
      vertex -3.500000e+01 -2.500000e+00 4.000000e+00
    endloop
  endfacet
  facet normal 0.000000e+00 -1.000000e+00 0.000000e+00
    outer loop
      vertex -3.500000e+01 -1.750000e+01 0.000000e+00
      vertex 3.500000e+01 -1.750000e+01 0.000000e+00
      vertex 3.500000e+01 -1.750000e+01 4.000000e+00
    endloop
  endfacet
  facet normal 0.000000e+00 -1.000000e+00 0.000000e+00
    outer loop
      vertex -3.500000e+01 -1.750000e+01 0.000000e+00
      vertex 3.500000e+01 -1.750000e+01 4.000000e+00
      vertex -3.500000e+01 -1.750000e+01 4.000000e+00
    endloop
  endfacet
  facet normal 0.000000e+00 1.000000e+00 0.000000e+00
    outer loop
      vertex -3.500000e+01 -2.500000e+00 0.000000e+00
      vertex -3.500000e+01 -2.500000e+00 4.000000e+00
      vertex 3.500000e+01 -2.500000e+00 4.000000e+00
    endloop
  endfacet
  facet normal 0.000000e+00 1.000000e+00 0.000000e+00
    outer loop
      vertex -3.500000e+01 -2.500000e+00 0.000000e+00
      vertex 3.500000e+01 -2.500000e+00 4.000000e+00
      vertex 3.500000e+01 -2.500000e+00 0.000000e+00
    endloop
  endfacet
  facet normal -1.000000e+00 0.000000e+00 0.000000e+00
    outer loop
      vertex -3.500000e+01 -1.750000e+01 0.000000e+00
      vertex -3.500000e+01 -1.750000e+01 4.000000e+00
      vertex -3.500000e+01 -2.500000e+00 4.000000e+00
    endloop
  endfacet
  facet normal -1.000000e+00 0.000000e+00 0.000000e+00
    outer loop
      vertex -3.500000e+01 -1.750000e+01 0.000000e+00
      vertex -3.500000e+01 -2.500000e+00 4.000000e+00
      vertex -3.500000e+01 -2.500000e+00 0.000000e+00
    endloop
  endfacet
  facet normal 1.000000e+00 0.000000e+00 0.000000e+00
    outer loop
      vertex 3.500000e+01 -1.750000e+01 0.000000e+00
      vertex 3.500000e+01 -2.500000e+00 0.000000e+00
      vertex 3.500000e+01 -2.500000e+00 4.000000e+00
    endloop
  endfacet
  facet normal 1.000000e+00 0.000000e+00 0.000000e+00
    outer loop
      vertex 3.500000e+01 -1.750000e+01 0.000000e+00
      vertex 3.500000e+01 -2.500000e+00 4.000000e+00
      vertex 3.500000e+01 -1.750000e+01 4.000000e+00
    endloop
  endfacet
  facet normal 0.000000e+00 0.000000e+00 -1.000000e+00
    outer loop
      vertex -3.500000e+01 2.500000e+00 0.000000e+00
      vertex -3.500000e+01 1.750000e+01 0.000000e+00
      vertex 3.500000e+01 1.750000e+01 0.000000e+00
    endloop
  endfacet
  facet normal 0.000000e+00 0.000000e+00 -1.000000e+00
    outer loop
      vertex -3.500000e+01 2.500000e+00 0.000000e+00
      vertex 3.500000e+01 1.750000e+01 0.000000e+00
      vertex 3.500000e+01 2.500000e+00 0.000000e+00
    endloop
  endfacet
  facet normal 0.000000e+00 0.000000e+00 1.000000e+00
    outer loop
      vertex -3.500000e+01 2.500000e+00 4.000000e+00
      vertex 3.500000e+01 2.500000e+00 4.000000e+00
      vertex 3.500000e+01 1.750000e+01 4.000000e+00
    endloop
  endfacet
  facet normal 0.000000e+00 0.000000e+00 1.000000e+00
    outer loop
      vertex -3.500000e+01 2.500000e+00 4.000000e+00
      vertex 3.500000e+01 1.750000e+01 4.000000e+00
      vertex -3.500000e+01 1.750000e+01 4.000000e+00
    endloop
  endfacet
  facet normal 0.000000e+00 -1.000000e+00 0.000000e+00
    outer loop
      vertex -3.500000e+01 2.500000e+00 0.000000e+00
      vertex 3.500000e+01 2.500000e+00 0.000000e+00
      vertex 3.500000e+01 2.500000e+00 4.000000e+00
    endloop
  endfacet
  facet normal 0.000000e+00 -1.000000e+00 0.000000e+00
    outer loop
      vertex -3.500000e+01 2.500000e+00 0.000000e+00
      vertex 3.500000e+01 2.500000e+00 4.000000e+00
      vertex -3.500000e+01 2.500000e+00 4.000000e+00
    endloop
  endfacet
  facet normal 0.000000e+00 1.000000e+00 0.000000e+00
    outer loop
      vertex -3.500000e+01 1.750000e+01 0.000000e+00
      vertex -3.500000e+01 1.750000e+01 4.000000e+00
      vertex 3.500000e+01 1.750000e+01 4.000000e+00
    endloop
  endfacet
  facet normal 0.000000e+00 1.000000e+00 0.000000e+00
    outer loop
      vertex -3.500000e+01 1.750000e+01 0.000000e+00
      vertex 3.500000e+01 1.750000e+01 4.000000e+00
      vertex 3.500000e+01 1.750000e+01 0.000000e+00
    endloop
  endfacet
  facet normal -1.000000e+00 0.000000e+00 0.000000e+00
    outer loop
      vertex -3.500000e+01 2.500000e+00 0.000000e+00
      vertex -3.500000e+01 2.500000e+00 4.000000e+00
      vertex -3.500000e+01 1.750000e+01 4.000000e+00
    endloop
  endfacet
  facet normal -1.000000e+00 0.000000e+00 0.000000e+00
    outer loop
      vertex -3.500000e+01 2.500000e+00 0.000000e+00
      vertex -3.500000e+01 1.750000e+01 4.000000e+00
      vertex -3.500000e+01 1.750000e+01 0.000000e+00
    endloop
  endfacet
  facet normal 1.000000e+00 0.000000e+00 0.000000e+00
    outer loop
      vertex 3.500000e+01 2.500000e+00 0.000000e+00
      vertex 3.500000e+01 1.750000e+01 0.000000e+00
      vertex 3.500000e+01 1.750000e+01 4.000000e+00
    endloop
  endfacet
  facet normal 1.000000e+00 0.000000e+00 0.000000e+00
    outer loop
      vertex 3.500000e+01 2.500000e+00 0.000000e+00
      vertex 3.500000e+01 1.750000e+01 4.000000e+00
      vertex 3.500000e+01 2.500000e+00 4.000000e+00
    endloop
  endfacet
  facet normal 0.000000e+00 0.000000e+00 -1.000000e+00
    outer loop
      vertex -3.500000e+01 -2.500000e+00 0.000000e+00
      vertex -3.500000e+01 2.500000e+00 0.000000e+00
      vertex 3.500000e+01 2.500000e+00 0.000000e+00
    endloop
  endfacet
  facet normal 0.000000e+00 0.000000e+00 -1.000000e+00
    outer loop
      vertex -3.500000e+01 -2.500000e+00 0.000000e+00
      vertex 3.500000e+01 2.500000e+00 0.000000e+00
      vertex 3.500000e+01 -2.500000e+00 0.000000e+00
    endloop
  endfacet
  facet normal 0.000000e+00 0.000000e+00 1.000000e+00
    outer loop
      vertex -3.500000e+01 -2.500000e+00 2.000000e+00
      vertex 3.500000e+01 -2.500000e+00 2.000000e+00
      vertex 3.500000e+01 2.500000e+00 2.000000e+00
    endloop
  endfacet
  facet normal 0.000000e+00 0.000000e+00 1.000000e+00
    outer loop
      vertex -3.500000e+01 -2.500000e+00 2.000000e+00
      vertex 3.500000e+01 2.500000e+00 2.000000e+00
      vertex -3.500000e+01 2.500000e+00 2.000000e+00
    endloop
  endfacet
  facet normal 0.000000e+00 -1.000000e+00 0.000000e+00
    outer loop
      vertex -3.500000e+01 -2.500000e+00 0.000000e+00
      vertex 3.500000e+01 -2.500000e+00 0.000000e+00
      vertex 3.500000e+01 -2.500000e+00 2.000000e+00
    endloop
  endfacet
  facet normal 0.000000e+00 -1.000000e+00 0.000000e+00
    outer loop
      vertex -3.500000e+01 -2.500000e+00 0.000000e+00
      vertex 3.500000e+01 -2.500000e+00 2.000000e+00
      vertex -3.500000e+01 -2.500000e+00 2.000000e+00
    endloop
  endfacet
  facet normal 0.000000e+00 1.000000e+00 0.000000e+00
    outer loop
      vertex -3.500000e+01 2.500000e+00 0.000000e+00
      vertex -3.500000e+01 2.500000e+00 2.000000e+00
      vertex 3.500000e+01 2.500000e+00 2.000000e+00
    endloop
  endfacet
  facet normal 0.000000e+00 1.000000e+00 0.000000e+00
    outer loop
      vertex -3.500000e+01 2.500000e+00 0.000000e+00
      vertex 3.500000e+01 2.500000e+00 2.000000e+00
      vertex 3.500000e+01 2.500000e+00 0.000000e+00
    endloop
  endfacet
  facet normal -1.000000e+00 0.000000e+00 0.000000e+00
    outer loop
      vertex -3.500000e+01 -2.500000e+00 0.000000e+00
      vertex -3.500000e+01 -2.500000e+00 2.000000e+00
      vertex -3.500000e+01 2.500000e+00 2.000000e+00
    endloop
  endfacet
  facet normal -1.000000e+00 0.000000e+00 0.000000e+00
    outer loop
      vertex -3.500000e+01 -2.500000e+00 0.000000e+00
      vertex -3.500000e+01 2.500000e+00 2.000000e+00
      vertex -3.500000e+01 2.500000e+00 0.000000e+00
    endloop
  endfacet
  facet normal 1.000000e+00 0.000000e+00 0.000000e+00
    outer loop
      vertex 3.500000e+01 -2.500000e+00 0.000000e+00
      vertex 3.500000e+01 2.500000e+00 0.000000e+00
      vertex 3.500000e+01 2.500000e+00 2.000000e+00
    endloop
  endfacet
  facet normal 1.000000e+00 0.000000e+00 0.000000e+00
    outer loop
      vertex 3.500000e+01 -2.500000e+00 0.000000e+00
      vertex 3.500000e+01 2.500000e+00 2.000000e+00
      vertex 3.500000e+01 -2.500000e+00 2.000000e+00
    endloop
  endfacet
  facet normal 0.000000e+00 0.000000e+00 -1.000000e+00
    outer loop
      vertex -3.300000e+01 -1.550000e+01 4.000000e+00
      vertex -3.300000e+01 -1.250000e+01 4.000000e+00
      vertex 3.300000e+01 -1.250000e+01 4.000000e+00
    endloop
  endfacet
  facet normal 0.000000e+00 0.000000e+00 -1.000000e+00
    outer loop
      vertex -3.300000e+01 -1.550000e+01 4.000000e+00
      vertex 3.300000e+01 -1.250000e+01 4.000000e+00
      vertex 3.300000e+01 -1.550000e+01 4.000000e+00
    endloop
  endfacet
  facet normal 0.000000e+00 0.000000e+00 1.000000e+00
    outer loop
      vertex -3.300000e+01 -1.550000e+01 8.000000e+00
      vertex 3.300000e+01 -1.550000e+01 8.000000e+00
      vertex 3.300000e+01 -1.250000e+01 8.000000e+00
    endloop
  endfacet
  facet normal 0.000000e+00 0.000000e+00 1.000000e+00
    outer loop
      vertex -3.300000e+01 -1.550000e+01 8.000000e+00
      vertex 3.300000e+01 -1.250000e+01 8.000000e+00
      vertex -3.300000e+01 -1.250000e+01 8.000000e+00
    endloop
  endfacet
  facet normal 0.000000e+00 -1.000000e+00 0.000000e+00
    outer loop
      vertex -3.300000e+01 -1.550000e+01 4.000000e+00
      vertex 3.300000e+01 -1.550000e+01 4.000000e+00
      vertex 3.300000e+01 -1.550000e+01 8.000000e+00
    endloop
  endfacet
  facet normal 0.000000e+00 -1.000000e+00 0.000000e+00
    outer loop
      vertex -3.300000e+01 -1.550000e+01 4.000000e+00
      vertex 3.300000e+01 -1.550000e+01 8.000000e+00
      vertex -3.300000e+01 -1.550000e+01 8.000000e+00
    endloop
  endfacet
  facet normal 0.000000e+00 1.000000e+00 0.000000e+00
    outer loop
      vertex -3.300000e+01 -1.250000e+01 4.000000e+00
      vertex -3.300000e+01 -1.250000e+01 8.000000e+00
      vertex 3.300000e+01 -1.250000e+01 8.000000e+00
    endloop
  endfacet
  facet normal 0.000000e+00 1.000000e+00 0.000000e+00
    outer loop
      vertex -3.300000e+01 -1.250000e+01 4.000000e+00
      vertex 3.300000e+01 -1.250000e+01 8.000000e+00
      vertex 3.300000e+01 -1.250000e+01 4.000000e+00
    endloop
  endfacet
  facet normal -1.000000e+00 0.000000e+00 0.000000e+00
    outer loop
      vertex -3.300000e+01 -1.550000e+01 4.000000e+00
      vertex -3.300000e+01 -1.550000e+01 8.000000e+00
      vertex -3.300000e+01 -1.250000e+01 8.000000e+00
    endloop
  endfacet
  facet normal -1.000000e+00 0.000000e+00 0.000000e+00
    outer loop
      vertex -3.300000e+01 -1.550000e+01 4.000000e+00
      vertex -3.300000e+01 -1.250000e+01 8.000000e+00
      vertex -3.300000e+01 -1.250000e+01 4.000000e+00
    endloop
  endfacet
  facet normal 1.000000e+00 0.000000e+00 0.000000e+00
    outer loop
      vertex 3.300000e+01 -1.550000e+01 4.000000e+00
      vertex 3.300000e+01 -1.250000e+01 4.000000e+00
      vertex 3.300000e+01 -1.250000e+01 8.000000e+00
    endloop
  endfacet
  facet normal 1.000000e+00 0.000000e+00 0.000000e+00
    outer loop
      vertex 3.300000e+01 -1.550000e+01 4.000000e+00
      vertex 3.300000e+01 -1.250000e+01 8.000000e+00
      vertex 3.300000e+01 -1.550000e+01 8.000000e+00
    endloop
  endfacet
  facet normal -1.000000e+00 0.000000e+00 0.000000e+00
    outer loop
      vertex -3.300000e+01 6.000000e+00 4.000000e+00
      vertex -3.300000e+01 2.200000e+01 2.800000e+01
      vertex -3.300000e+01 1.300000e+01 4.000000e+00
    endloop
  endfacet
  facet normal -1.000000e+00 0.000000e+00 0.000000e+00
    outer loop
      vertex -3.300000e+01 6.000000e+00 4.000000e+00
      vertex -3.300000e+01 1.500000e+01 2.800000e+01
      vertex -3.300000e+01 2.200000e+01 2.800000e+01
    endloop
  endfacet
  facet normal 1.000000e+00 0.000000e+00 0.000000e+00
    outer loop
      vertex 3.300000e+01 6.000000e+00 4.000000e+00
      vertex 3.300000e+01 1.300000e+01 4.000000e+00
      vertex 3.300000e+01 2.200000e+01 2.800000e+01
    endloop
  endfacet
  facet normal 1.000000e+00 0.000000e+00 0.000000e+00
    outer loop
      vertex 3.300000e+01 6.000000e+00 4.000000e+00
      vertex 3.300000e+01 2.200000e+01 2.800000e+01
      vertex 3.300000e+01 1.500000e+01 2.800000e+01
    endloop
  endfacet
  facet normal 0.000000e+00 0.000000e+00 1.000000e+00
    outer loop
      vertex -3.300000e+01 6.000000e+00 4.000000e+00
      vertex 3.300000e+01 6.000000e+00 4.000000e+00
      vertex 3.300000e+01 1.300000e+01 4.000000e+00
    endloop
  endfacet
  facet normal 0.000000e+00 0.000000e+00 1.000000e+00
    outer loop
      vertex -3.300000e+01 6.000000e+00 4.000000e+00
      vertex 3.300000e+01 1.300000e+01 4.000000e+00
      vertex -3.300000e+01 1.300000e+01 4.000000e+00
    endloop
  endfacet
  facet normal 0.000000e+00 -9.363292e-01 3.511234e-01
    outer loop
      vertex -3.300000e+01 1.300000e+01 4.000000e+00
      vertex 3.300000e+01 1.300000e+01 4.000000e+00
      vertex 3.300000e+01 2.200000e+01 2.800000e+01
    endloop
  endfacet
  facet normal 0.000000e+00 -9.363292e-01 3.511234e-01
    outer loop
      vertex -3.300000e+01 1.300000e+01 4.000000e+00
      vertex 3.300000e+01 2.200000e+01 2.800000e+01
      vertex -3.300000e+01 2.200000e+01 2.800000e+01
    endloop
  endfacet
  facet normal 0.000000e+00 0.000000e+00 -1.000000e+00
    outer loop
      vertex -3.300000e+01 2.200000e+01 2.800000e+01
      vertex 3.300000e+01 2.200000e+01 2.800000e+01
      vertex 3.300000e+01 1.500000e+01 2.800000e+01
    endloop
  endfacet
  facet normal 0.000000e+00 0.000000e+00 -1.000000e+00
    outer loop
      vertex -3.300000e+01 2.200000e+01 2.800000e+01
      vertex 3.300000e+01 1.500000e+01 2.800000e+01
      vertex -3.300000e+01 1.500000e+01 2.800000e+01
    endloop
  endfacet
  facet normal 0.000000e+00 9.363292e-01 -3.511234e-01
    outer loop
      vertex -3.300000e+01 1.500000e+01 2.800000e+01
      vertex 3.300000e+01 1.500000e+01 2.800000e+01
      vertex 3.300000e+01 6.000000e+00 4.000000e+00
    endloop
  endfacet
  facet normal 0.000000e+00 9.363292e-01 -3.511234e-01
    outer loop
      vertex -3.300000e+01 1.500000e+01 2.800000e+01
      vertex 3.300000e+01 6.000000e+00 4.000000e+00
      vertex -3.300000e+01 6.000000e+00 4.000000e+00
    endloop
  endfacet
  facet normal 0.000000e+00 0.000000e+00 -1.000000e+00
    outer loop
      vertex -3.200000e+01 -1.600000e+01 -2.000000e+00
      vertex -3.200000e+01 -8.000000e+00 -2.000000e+00
      vertex -2.400000e+01 -8.000000e+00 -2.000000e+00
    endloop
  endfacet
  facet normal 0.000000e+00 0.000000e+00 -1.000000e+00
    outer loop
      vertex -3.200000e+01 -1.600000e+01 -2.000000e+00
      vertex -2.400000e+01 -8.000000e+00 -2.000000e+00
      vertex -2.400000e+01 -1.600000e+01 -2.000000e+00
    endloop
  endfacet
  facet normal 0.000000e+00 0.000000e+00 1.000000e+00
    outer loop
      vertex -3.200000e+01 -1.600000e+01 0.000000e+00
      vertex -2.400000e+01 -1.600000e+01 0.000000e+00
      vertex -2.400000e+01 -8.000000e+00 0.000000e+00
    endloop
  endfacet
  facet normal 0.000000e+00 0.000000e+00 1.000000e+00
    outer loop
      vertex -3.200000e+01 -1.600000e+01 0.000000e+00
      vertex -2.400000e+01 -8.000000e+00 0.000000e+00
      vertex -3.200000e+01 -8.000000e+00 0.000000e+00
    endloop
  endfacet
  facet normal 0.000000e+00 -1.000000e+00 0.000000e+00
    outer loop
      vertex -3.200000e+01 -1.600000e+01 -2.000000e+00
      vertex -2.400000e+01 -1.600000e+01 -2.000000e+00
      vertex -2.400000e+01 -1.600000e+01 0.000000e+00
    endloop
  endfacet
  facet normal 0.000000e+00 -1.000000e+00 0.000000e+00
    outer loop
      vertex -3.200000e+01 -1.600000e+01 -2.000000e+00
      vertex -2.400000e+01 -1.600000e+01 0.000000e+00
      vertex -3.200000e+01 -1.600000e+01 0.000000e+00
    endloop
  endfacet
  facet normal 0.000000e+00 1.000000e+00 0.000000e+00
    outer loop
      vertex -3.200000e+01 -8.000000e+00 -2.000000e+00
      vertex -3.200000e+01 -8.000000e+00 0.000000e+00
      vertex -2.400000e+01 -8.000000e+00 0.000000e+00
    endloop
  endfacet
  facet normal 0.000000e+00 1.000000e+00 0.000000e+00
    outer loop
      vertex -3.200000e+01 -8.000000e+00 -2.000000e+00
      vertex -2.400000e+01 -8.000000e+00 0.000000e+00
      vertex -2.400000e+01 -8.000000e+00 -2.000000e+00
    endloop
  endfacet
  facet normal -1.000000e+00 0.000000e+00 0.000000e+00
    outer loop
      vertex -3.200000e+01 -1.600000e+01 -2.000000e+00
      vertex -3.200000e+01 -1.600000e+01 0.000000e+00
      vertex -3.200000e+01 -8.000000e+00 0.000000e+00
    endloop
  endfacet
  facet normal -1.000000e+00 0.000000e+00 0.000000e+00
    outer loop
      vertex -3.200000e+01 -1.600000e+01 -2.000000e+00
      vertex -3.200000e+01 -8.000000e+00 0.000000e+00
      vertex -3.200000e+01 -8.000000e+00 -2.000000e+00
    endloop
  endfacet
  facet normal 1.000000e+00 0.000000e+00 0.000000e+00
    outer loop
      vertex -2.400000e+01 -1.600000e+01 -2.000000e+00
      vertex -2.400000e+01 -8.000000e+00 -2.000000e+00
      vertex -2.400000e+01 -8.000000e+00 0.000000e+00
    endloop
  endfacet
  facet normal 1.000000e+00 0.000000e+00 0.000000e+00
    outer loop
      vertex -2.400000e+01 -1.600000e+01 -2.000000e+00
      vertex -2.400000e+01 -8.000000e+00 0.000000e+00
      vertex -2.400000e+01 -1.600000e+01 0.000000e+00
    endloop
  endfacet
  facet normal 0.000000e+00 0.000000e+00 -1.000000e+00
    outer loop
      vertex 2.400000e+01 -1.600000e+01 -2.000000e+00
      vertex 2.400000e+01 -8.000000e+00 -2.000000e+00
      vertex 3.200000e+01 -8.000000e+00 -2.000000e+00
    endloop
  endfacet
  facet normal 0.000000e+00 0.000000e+00 -1.000000e+00
    outer loop
      vertex 2.400000e+01 -1.600000e+01 -2.000000e+00
      vertex 3.200000e+01 -8.000000e+00 -2.000000e+00
      vertex 3.200000e+01 -1.600000e+01 -2.000000e+00
    endloop
  endfacet
  facet normal 0.000000e+00 0.000000e+00 1.000000e+00
    outer loop
      vertex 2.400000e+01 -1.600000e+01 0.000000e+00
      vertex 3.200000e+01 -1.600000e+01 0.000000e+00
      vertex 3.200000e+01 -8.000000e+00 0.000000e+00
    endloop
  endfacet
  facet normal 0.000000e+00 0.000000e+00 1.000000e+00
    outer loop
      vertex 2.400000e+01 -1.600000e+01 0.000000e+00
      vertex 3.200000e+01 -8.000000e+00 0.000000e+00
      vertex 2.400000e+01 -8.000000e+00 0.000000e+00
    endloop
  endfacet
  facet normal 0.000000e+00 -1.000000e+00 0.000000e+00
    outer loop
      vertex 2.400000e+01 -1.600000e+01 -2.000000e+00
      vertex 3.200000e+01 -1.600000e+01 -2.000000e+00
      vertex 3.200000e+01 -1.600000e+01 0.000000e+00
    endloop
  endfacet
  facet normal 0.000000e+00 -1.000000e+00 0.000000e+00
    outer loop
      vertex 2.400000e+01 -1.600000e+01 -2.000000e+00
      vertex 3.200000e+01 -1.600000e+01 0.000000e+00
      vertex 2.400000e+01 -1.600000e+01 0.000000e+00
    endloop
  endfacet
  facet normal 0.000000e+00 1.000000e+00 0.000000e+00
    outer loop
      vertex 2.400000e+01 -8.000000e+00 -2.000000e+00
      vertex 2.400000e+01 -8.000000e+00 0.000000e+00
      vertex 3.200000e+01 -8.000000e+00 0.000000e+00
    endloop
  endfacet
  facet normal 0.000000e+00 1.000000e+00 0.000000e+00
    outer loop
      vertex 2.400000e+01 -8.000000e+00 -2.000000e+00
      vertex 3.200000e+01 -8.000000e+00 0.000000e+00
      vertex 3.200000e+01 -8.000000e+00 -2.000000e+00
    endloop
  endfacet
  facet normal -1.000000e+00 0.000000e+00 0.000000e+00
    outer loop
      vertex 2.400000e+01 -1.600000e+01 -2.000000e+00
      vertex 2.400000e+01 -1.600000e+01 0.000000e+00
      vertex 2.400000e+01 -8.000000e+00 0.000000e+00
    endloop
  endfacet
  facet normal -1.000000e+00 0.000000e+00 0.000000e+00
    outer loop
      vertex 2.400000e+01 -1.600000e+01 -2.000000e+00
      vertex 2.400000e+01 -8.000000e+00 0.000000e+00
      vertex 2.400000e+01 -8.000000e+00 -2.000000e+00
    endloop
  endfacet
  facet normal 1.000000e+00 0.000000e+00 0.000000e+00
    outer loop
      vertex 3.200000e+01 -1.600000e+01 -2.000000e+00
      vertex 3.200000e+01 -8.000000e+00 -2.000000e+00
      vertex 3.200000e+01 -8.000000e+00 0.000000e+00
    endloop
  endfacet
  facet normal 1.000000e+00 0.000000e+00 0.000000e+00
    outer loop
      vertex 3.200000e+01 -1.600000e+01 -2.000000e+00
      vertex 3.200000e+01 -8.000000e+00 0.000000e+00
      vertex 3.200000e+01 -1.600000e+01 0.000000e+00
    endloop
  endfacet
  facet normal 0.000000e+00 0.000000e+00 -1.000000e+00
    outer loop
      vertex -3.200000e+01 8.000000e+00 -2.000000e+00
      vertex -3.200000e+01 1.600000e+01 -2.000000e+00
      vertex -2.400000e+01 1.600000e+01 -2.000000e+00
    endloop
  endfacet
  facet normal 0.000000e+00 0.000000e+00 -1.000000e+00
    outer loop
      vertex -3.200000e+01 8.000000e+00 -2.000000e+00
      vertex -2.400000e+01 1.600000e+01 -2.000000e+00
      vertex -2.400000e+01 8.000000e+00 -2.000000e+00
    endloop
  endfacet
  facet normal 0.000000e+00 0.000000e+00 1.000000e+00
    outer loop
      vertex -3.200000e+01 8.000000e+00 0.000000e+00
      vertex -2.400000e+01 8.000000e+00 0.000000e+00
      vertex -2.400000e+01 1.600000e+01 0.000000e+00
    endloop
  endfacet
  facet normal 0.000000e+00 0.000000e+00 1.000000e+00
    outer loop
      vertex -3.200000e+01 8.000000e+00 0.000000e+00
      vertex -2.400000e+01 1.600000e+01 0.000000e+00
      vertex -3.200000e+01 1.600000e+01 0.000000e+00
    endloop
  endfacet
  facet normal 0.000000e+00 -1.000000e+00 0.000000e+00
    outer loop
      vertex -3.200000e+01 8.000000e+00 -2.000000e+00
      vertex -2.400000e+01 8.000000e+00 -2.000000e+00
      vertex -2.400000e+01 8.000000e+00 0.000000e+00
    endloop
  endfacet
  facet normal 0.000000e+00 -1.000000e+00 0.000000e+00
    outer loop
      vertex -3.200000e+01 8.000000e+00 -2.000000e+00
      vertex -2.400000e+01 8.000000e+00 0.000000e+00
      vertex -3.200000e+01 8.000000e+00 0.000000e+00
    endloop
  endfacet
  facet normal 0.000000e+00 1.000000e+00 0.000000e+00
    outer loop
      vertex -3.200000e+01 1.600000e+01 -2.000000e+00
      vertex -3.200000e+01 1.600000e+01 0.000000e+00
      vertex -2.400000e+01 1.600000e+01 0.000000e+00
    endloop
  endfacet
  facet normal 0.000000e+00 1.000000e+00 0.000000e+00
    outer loop
      vertex -3.200000e+01 1.600000e+01 -2.000000e+00
      vertex -2.400000e+01 1.600000e+01 0.000000e+00
      vertex -2.400000e+01 1.600000e+01 -2.000000e+00
    endloop
  endfacet
  facet normal -1.000000e+00 0.000000e+00 0.000000e+00
    outer loop
      vertex -3.200000e+01 8.000000e+00 -2.000000e+00
      vertex -3.200000e+01 8.000000e+00 0.000000e+00
      vertex -3.200000e+01 1.600000e+01 0.000000e+00
    endloop
  endfacet
  facet normal -1.000000e+00 0.000000e+00 0.000000e+00
    outer loop
      vertex -3.200000e+01 8.000000e+00 -2.000000e+00
      vertex -3.200000e+01 1.600000e+01 0.000000e+00
      vertex -3.200000e+01 1.600000e+01 -2.000000e+00
    endloop
  endfacet
  facet normal 1.000000e+00 0.000000e+00 0.000000e+00
    outer loop
      vertex -2.400000e+01 8.000000e+00 -2.000000e+00
      vertex -2.400000e+01 1.600000e+01 -2.000000e+00
      vertex -2.400000e+01 1.600000e+01 0.000000e+00
    endloop
  endfacet
  facet normal 1.000000e+00 0.000000e+00 0.000000e+00
    outer loop
      vertex -2.400000e+01 8.000000e+00 -2.000000e+00
      vertex -2.400000e+01 1.600000e+01 0.000000e+00
      vertex -2.400000e+01 8.000000e+00 0.000000e+00
    endloop
  endfacet
  facet normal 0.000000e+00 0.000000e+00 -1.000000e+00
    outer loop
      vertex 2.400000e+01 8.000000e+00 -2.000000e+00
      vertex 2.400000e+01 1.600000e+01 -2.000000e+00
      vertex 3.200000e+01 1.600000e+01 -2.000000e+00
    endloop
  endfacet
  facet normal 0.000000e+00 0.000000e+00 -1.000000e+00
    outer loop
      vertex 2.400000e+01 8.000000e+00 -2.000000e+00
      vertex 3.200000e+01 1.600000e+01 -2.000000e+00
      vertex 3.200000e+01 8.000000e+00 -2.000000e+00
    endloop
  endfacet
  facet normal 0.000000e+00 0.000000e+00 1.000000e+00
    outer loop
      vertex 2.400000e+01 8.000000e+00 0.000000e+00
      vertex 3.200000e+01 8.000000e+00 0.000000e+00
      vertex 3.200000e+01 1.600000e+01 0.000000e+00
    endloop
  endfacet
  facet normal 0.000000e+00 0.000000e+00 1.000000e+00
    outer loop
      vertex 2.400000e+01 8.000000e+00 0.000000e+00
      vertex 3.200000e+01 1.600000e+01 0.000000e+00
      vertex 2.400000e+01 1.600000e+01 0.000000e+00
    endloop
  endfacet
  facet normal 0.000000e+00 -1.000000e+00 0.000000e+00
    outer loop
      vertex 2.400000e+01 8.000000e+00 -2.000000e+00
      vertex 3.200000e+01 8.000000e+00 -2.000000e+00
      vertex 3.200000e+01 8.000000e+00 0.000000e+00
    endloop
  endfacet
  facet normal 0.000000e+00 -1.000000e+00 0.000000e+00
    outer loop
      vertex 2.400000e+01 8.000000e+00 -2.000000e+00
      vertex 3.200000e+01 8.000000e+00 0.000000e+00
      vertex 2.400000e+01 8.000000e+00 0.000000e+00
    endloop
  endfacet
  facet normal 0.000000e+00 1.000000e+00 0.000000e+00
    outer loop
      vertex 2.400000e+01 1.600000e+01 -2.000000e+00
      vertex 2.400000e+01 1.600000e+01 0.000000e+00
      vertex 3.200000e+01 1.600000e+01 0.000000e+00
    endloop
  endfacet
  facet normal 0.000000e+00 1.000000e+00 0.000000e+00
    outer loop
      vertex 2.400000e+01 1.600000e+01 -2.000000e+00
      vertex 3.200000e+01 1.600000e+01 0.000000e+00
      vertex 3.200000e+01 1.600000e+01 -2.000000e+00
    endloop
  endfacet
  facet normal -1.000000e+00 0.000000e+00 0.000000e+00
    outer loop
      vertex 2.400000e+01 8.000000e+00 -2.000000e+00
      vertex 2.400000e+01 8.000000e+00 0.000000e+00
      vertex 2.400000e+01 1.600000e+01 0.000000e+00
    endloop
  endfacet
  facet normal -1.000000e+00 0.000000e+00 0.000000e+00
    outer loop
      vertex 2.400000e+01 8.000000e+00 -2.000000e+00
      vertex 2.400000e+01 1.600000e+01 0.000000e+00
      vertex 2.400000e+01 1.600000e+01 -2.000000e+00
    endloop
  endfacet
  facet normal 1.000000e+00 0.000000e+00 0.000000e+00
    outer loop
      vertex 3.200000e+01 8.000000e+00 -2.000000e+00
      vertex 3.200000e+01 1.600000e+01 -2.000000e+00
      vertex 3.200000e+01 1.600000e+01 0.000000e+00
    endloop
  endfacet
  facet normal 1.000000e+00 0.000000e+00 0.000000e+00
    outer loop
      vertex 3.200000e+01 8.000000e+00 -2.000000e+00
      vertex 3.200000e+01 1.600000e+01 0.000000e+00
      vertex 3.200000e+01 8.000000e+00 0.000000e+00
    endloop
  endfacet
endsolid card_holder_boolean_bevel_practice
